<svg width="18" height="19" viewBox="0 0 18 19" fill="none" xmlns="http://www.w3.org/2000/svg">
<g clip-path="url(#clip0_1141_390)">
<path d="M10.2637 7.75562V6.6631L10.8074 6.58366L13.1188 0H15.1415L17.4578 6.58366L18 6.6631V7.75562H15.1037V6.6631L15.611 6.56807L15.3764 5.72762H12.8843L12.6609 6.56807L13.1663 6.6631V7.75562H10.2637ZM6.44918 4.62063H4.91009V18.7368C4.91009 18.8682 4.78019 19 4.64696 19H2.38638C2.25129 19 2.11991 18.8823 2.11991 18.7368V4.62063H0.582297C0.447204 4.62063 0.310998 4.5746 0.201514 4.47808C-0.0423214 4.26722 -0.0679296 3.89748 0.14139 3.65507L3.15203 0.199719C3.39141 -0.0649642 3.80819 -0.0683053 4.04127 0.210855L6.8823 3.64394C6.97731 3.74862 7.03261 3.8882 7.03261 4.03706C7.03261 4.36226 6.77281 4.62063 6.44918 4.62063ZM13.2788 4.41608H14.9767L14.2207 2.06772L14.135 1.79673H14.1035L14.0129 2.09482L13.2788 4.41608ZM11.1626 18.9937V17.8266L14.7882 12.6699H12.8319L12.6939 13.6559H11.294L11.3942 11.2377H17.136V12.3636L13.4992 17.5663H15.8248L15.974 16.645H17.3705L17.2169 18.9937H11.1626Z" fill="#AB854F"/>
</g>
<defs>
<clipPath id="clip0_1141_390">
<rect width="18" height="19" fill="white"/>
</clipPath>
</defs>
</svg>
