<svg width="25" height="25" viewBox="0 0 25 25" fill="none" xmlns="http://www.w3.org/2000/svg">
<g clip-path="url(#clip0_1131_113)">
<path d="M12.2785 14.0625C15.9955 14.0625 19.0111 10.9131 19.0111 7.03125C19.0111 3.14941 15.9955 0 12.2785 0C8.56162 0 5.546 3.14941 5.546 7.03125C5.546 10.9131 8.56162 14.0625 12.2785 14.0625ZM18.263 15.625H15.6869C14.649 16.123 13.4941 16.4062 12.2785 16.4062C11.0629 16.4062 9.9128 16.123 8.87019 15.625H6.29406C2.98856 15.625 0.30957 18.4229 0.30957 21.875V22.6562C0.30957 23.9502 1.31478 25 2.55375 25H22.0033C23.2423 25 24.2475 23.9502 24.2475 22.6562V21.875C24.2475 18.4229 21.5685 15.625 18.263 15.625Z" fill="#A9844F"/>
</g>
<defs>
<clipPath id="clip0_1131_113">
<rect width="23.938" height="25" fill="white" transform="translate(0.30957)"/>
</clipPath>
</defs>
</svg>
