<svg width="27" height="27" viewBox="0 0 27 27" fill="none" xmlns="http://www.w3.org/2000/svg">
<g clip-path="url(#clip0_1131_111)">
<path d="M15.9164 1.64203C17.4367 2.1336 18.8066 3.03418 19.8886 4.25344C21.0595 5.55863 21.8455 7.1888 22.1525 8.94871V9.01026C22.1966 9.27624 22.2282 9.52903 22.2471 9.76643C22.2703 10.0434 22.2829 10.3226 22.2829 10.6017V12.8285C22.2829 13.4461 22.2829 14.0748 22.325 14.7057C22.3803 15.8376 22.6934 16.9393 23.2381 17.9194C23.851 18.9232 24.6694 19.7723 25.6344 20.4055C25.9081 20.5925 26.1066 20.878 26.192 21.2079C26.256 21.4653 26.2502 21.7362 26.1752 21.9904C26.1013 22.2444 25.9623 22.4724 25.7733 22.6498C25.5262 22.8762 25.2077 22.9991 24.8791 22.995H17.6964V23.0125C16.8253 28.3321 9.7835 28.3167 8.93352 22.995H1.74442C1.39796 23.0031 1.06211 22.8698 0.808171 22.6235C0.627539 22.4431 0.496822 22.2152 0.429801 21.9637C0.36278 21.7123 0.361937 21.4466 0.427361 21.1947C0.518159 20.8542 0.729526 20.5627 1.01856 20.3791C2.20938 19.5372 3.04254 18.6206 3.56852 17.5743C4.0945 16.528 4.33645 15.2794 4.33645 13.7759V10.6017C4.33645 10.3467 4.34907 10.0698 4.37432 9.77302C4.39957 9.47627 4.43533 9.21909 4.48162 8.94651C4.78447 7.23921 5.53272 5.65246 6.64386 4.36123C7.755 3.06999 9.18586 2.12444 10.7787 1.62884C11.7486 -0.542944 14.9465 -0.54734 15.9164 1.64203ZM18.8409 5.27559C17.8577 4.16626 16.5933 3.37123 15.1948 2.9829C15.076 2.9488 14.9675 2.88339 14.8799 2.79294C14.7922 2.70249 14.7282 2.59003 14.6941 2.46634C14.3343 1.17602 12.3797 1.14744 12.0179 2.45535C11.9826 2.5828 11.9158 2.69829 11.8242 2.79014C11.7326 2.882 11.6194 2.94697 11.4961 2.97851C10.0895 3.34932 8.81389 4.13326 7.82026 5.23762C6.82663 6.34198 6.1565 7.72056 5.88914 9.21029C5.84987 9.44183 5.82041 9.67264 5.80078 9.90271C5.78184 10.1225 5.77343 10.3423 5.77343 10.6017V13.7759C5.77343 15.5146 5.48309 16.9764 4.83718 18.2667C4.21863 19.5021 3.28869 20.5506 1.98847 21.5024H24.6393C23.5829 20.7687 22.6884 19.808 22.0157 18.6844C21.3556 17.5054 20.9734 16.1793 20.9006 14.8156C20.8543 14.1825 20.8564 13.4967 20.8585 12.8373V10.6017C20.8585 10.3599 20.8585 10.1247 20.8312 9.89392C20.8038 9.66311 20.787 9.45429 20.7555 9.26744L20.7428 9.20809C20.485 7.73426 19.8278 6.36866 18.8493 5.27339L18.8409 5.27559Z" fill="#A9844F"/>
</g>
<defs>
<clipPath id="clip0_1131_111">
<rect width="25.853" height="27" fill="white" transform="translate(0.387695)"/>
</clipPath>
</defs>
</svg>
