<svg width="13" height="13" viewBox="0 0 13 13" fill="none" xmlns="http://www.w3.org/2000/svg">
<g clip-path="url(#clip0_1131_367)">
<path fill-rule="evenodd" clip-rule="evenodd" d="M7.38011 10.3827L7.35344 10.4313C7.61357 10.5414 7.89871 10.5805 8.17919 10.5443C8.45968 10.5081 8.72527 10.3981 8.94835 10.2256C9.17142 10.0532 9.34384 9.8246 9.44766 9.56368C9.55148 9.30276 9.58292 9.01902 9.5387 8.74197C9.49448 8.46492 9.37622 8.20468 9.19623 7.98831C9.01623 7.77193 8.78106 7.60734 8.51519 7.51163C8.24932 7.41593 7.96244 7.39261 7.6844 7.4441C7.40636 7.4956 7.14731 7.62003 6.93419 7.80444L6.92885 7.81185C7.21367 8.08105 7.42099 8.42067 7.52946 8.79574C7.69034 9.32419 7.63517 9.8942 7.37584 10.3827H7.38011ZM8.6336 0.496175C8.6336 0.222168 8.9067 0 9.24487 0C9.58305 0 9.85508 0.222168 9.85508 0.496175V2.45654C9.85508 2.73055 9.58198 2.95272 9.24487 2.95272C8.90776 2.95272 8.6336 2.73055 8.6336 2.45654V0.496175ZM3.13212 0.496175C3.13212 0.222168 3.40522 0 3.74339 0C4.08157 0 4.3536 0.222168 4.3536 0.496175V2.45654C4.3536 2.73055 4.0805 2.95272 3.74339 2.95272C3.40629 2.95272 3.13212 2.73055 3.13212 2.45654V0.496175ZM0.678484 3.74618H12.3215V2.14551C12.3214 2.06417 12.2888 1.98621 12.2308 1.92863C12.2023 1.89995 12.1682 1.87722 12.1306 1.86177C12.0931 1.84633 12.0528 1.83849 12.0121 1.8387H10.8973C10.8513 1.84127 10.8051 1.83448 10.7618 1.81876C10.7185 1.80304 10.6788 1.77872 10.6453 1.74727C10.6117 1.71583 10.585 1.67793 10.5668 1.6359C10.5485 1.59386 10.5391 1.54858 10.5391 1.50281C10.5391 1.45704 10.5485 1.41175 10.5668 1.36972C10.585 1.32768 10.6117 1.28979 10.6453 1.25834C10.6788 1.2269 10.7185 1.20257 10.7618 1.18685C10.8051 1.17113 10.8513 1.16435 10.8973 1.16691H12.0132C12.2748 1.16747 12.5254 1.27075 12.7104 1.45415C12.8953 1.63755 12.9994 1.88614 13 2.14551V12.0214C12.9994 12.2808 12.8953 12.5294 12.7104 12.7128C12.5254 12.8962 12.2748 12.9994 12.0132 13H0.986788C0.725237 12.9989 0.474736 12.8953 0.28989 12.7118C0.105044 12.5283 0.000842209 12.2797 0 12.0203L0 2.14551C0.000279512 1.88576 0.104233 1.63668 0.289139 1.45272C0.474046 1.26875 0.724869 1.16486 0.986788 1.16374H2.17947C2.26601 1.16856 2.34741 1.20604 2.40696 1.26851C2.46651 1.33097 2.49969 1.41367 2.49969 1.49963C2.49969 1.58559 2.46651 1.6683 2.40696 1.73076C2.34741 1.79322 2.26601 1.83071 2.17947 1.83553H0.986788C0.906627 1.83706 0.83017 1.86928 0.773429 1.92546C0.744602 1.95386 0.721744 1.98766 0.706179 2.02489C0.690614 2.06211 0.682651 2.10203 0.682751 2.14233V3.74618H0.678484ZM12.3247 4.41903H0.677417V12.0203C0.677417 12.1017 0.710011 12.1798 0.76803 12.2373C0.826048 12.2948 0.904738 12.3271 0.986788 12.3271H12.0132C12.0953 12.3269 12.1739 12.2945 12.232 12.237C12.2902 12.1796 12.3231 12.1017 12.3236 12.0203V4.41903H12.3247ZM5.33399 1.8387C5.24373 1.8387 5.15718 1.80315 5.09336 1.73986C5.02953 1.67657 4.99368 1.59073 4.99368 1.50122C4.99368 1.41171 5.02953 1.32587 5.09336 1.26258C5.15718 1.19929 5.24373 1.16374 5.33399 1.16374H7.6084C7.65448 1.16117 7.7006 1.16796 7.74395 1.18368C7.78729 1.1994 7.82694 1.22373 7.86048 1.25517C7.89402 1.28661 7.92073 1.32451 7.93899 1.36654C7.95724 1.40858 7.96666 1.45387 7.96666 1.49963C7.96666 1.5454 7.95724 1.59069 7.93899 1.63272C7.92073 1.67476 7.89402 1.71266 7.86048 1.7441C7.82694 1.77554 7.78729 1.79987 7.74395 1.81559C7.7006 1.83131 7.65448 1.8381 7.6084 1.83553L5.33399 1.8387ZM3.58871 6.71688L3.60898 6.71053L5.42253 6.1932L4.94994 5.77743L3.77646 6.11174L3.58444 6.71688H3.58871ZM3.36575 6.7465L3.60258 5.99959C3.60835 5.98274 3.61832 5.9676 3.63156 5.95558C3.6448 5.94356 3.66088 5.93504 3.67832 5.93083L4.94781 5.56795C4.96428 5.5639 4.98148 5.5638 4.99799 5.56767C5.0145 5.57153 5.02985 5.57925 5.04275 5.59017L5.62629 6.10221C5.64224 6.11562 5.65351 6.13369 5.65849 6.15383C5.66347 6.17396 5.66191 6.19515 5.65403 6.21436L5.29772 7.20142C5.67966 7.18425 6.05961 7.26514 6.40079 7.43628V7.42993C6.69038 7.14165 7.05467 6.93835 7.45344 6.84246C7.85221 6.74657 8.26994 6.76184 8.66052 6.88657C9.05109 7.0113 9.39931 7.24064 9.66672 7.54927C9.93414 7.8579 10.1103 8.23382 10.1759 8.63551C10.2414 9.0372 10.1938 9.44904 10.0382 9.82556C9.88254 10.2021 9.62504 10.5286 9.29406 10.7692C8.96309 11.0097 8.57153 11.1548 8.16262 11.1885C7.75371 11.2223 7.34335 11.1433 6.97686 10.9603L6.96939 10.9688C6.747 11.1943 6.47844 11.37 6.18181 11.484C5.88517 11.598 5.56736 11.6476 5.24976 11.6295C4.93217 11.6114 4.62217 11.526 4.34065 11.3791C4.05913 11.2322 3.81262 11.0272 3.61774 10.7778C3.42285 10.5285 3.28411 10.2406 3.21086 9.93359C3.13761 9.62659 3.13156 9.30759 3.1931 8.99807C3.25464 8.68855 3.38235 8.39571 3.56763 8.13926C3.75291 7.88281 3.99145 7.66871 4.26719 7.51139L3.40629 6.86287C3.39089 6.85036 3.37933 6.83381 3.37292 6.81511C3.36651 6.79642 3.3655 6.77631 3.37001 6.75708L3.36575 6.7465ZM6.01141 7.96208L5.99754 7.98006C5.77819 8.40349 5.70278 8.88591 5.78257 9.35533C5.86236 9.82474 6.09306 10.256 6.44026 10.5847L6.43173 10.5942C6.21835 10.7777 5.95936 10.9012 5.68163 10.952C5.40389 11.0028 5.11752 10.9789 4.8522 10.883C4.58689 10.787 4.35228 10.6224 4.17272 10.4062C3.99316 10.1901 3.87518 9.93021 3.831 9.65359C3.78683 9.37696 3.81808 9.09366 3.92151 8.83305C4.02493 8.57244 4.19678 8.34401 4.41921 8.17145C4.64165 7.99888 4.90659 7.88847 5.18655 7.85166C5.46651 7.81484 5.75131 7.85297 6.01141 7.96208ZM6.54481 8.32918L6.5352 8.34188C6.40568 8.62595 6.36431 8.94182 6.41637 9.24928C6.46842 9.55674 6.61154 9.84189 6.82751 10.0684V10.0589C6.95786 9.77463 6.99987 9.45827 6.94819 9.1502C6.89651 8.84214 6.75348 8.55631 6.53734 8.32918H6.54481Z" fill="#AB854F"/>
</g>
<defs>
<clipPath id="clip0_1131_367">
<rect width="13" height="13" fill="white"/>
</clipPath>
</defs>
</svg>
