<svg width="71" height="76" viewBox="0 0 71 76" fill="none" xmlns="http://www.w3.org/2000/svg">
<g clip-path="url(#clip0_780_30)">
<path fill-rule="evenodd" clip-rule="evenodd" d="M15.8521 27.6712C13.3791 28.6051 11.9324 31.2832 11.005 34.1839L8.03739 43.3376L6.60923 40.6595C0.25979 40.2822 -0.469746 43.9128 5.8797 47.1042C-1.18692 51.681 -0.216263 59.6904 0.482361 68.5781C0.476004 68.6894 0.476004 68.8009 0.482361 68.9121V73.86C0.483992 74.4287 0.710542 74.9737 1.11252 75.3758C1.51449 75.7779 2.05922 76.0046 2.62769 76.0062H11.7469C12.3154 76.0046 12.8601 75.7779 13.2621 75.3758C13.6641 74.9737 13.8906 74.4287 13.8922 73.86V72.1406H57.1266V73.86C57.1282 74.4287 57.3547 74.9737 57.7567 75.3758C58.1587 75.7779 58.7034 76.0046 59.2719 76.0062H68.4158C68.9843 76.0046 69.529 75.7779 69.931 75.3758C70.333 74.9737 70.5595 74.4287 70.5612 73.86V70.0563C71.2722 58.472 71.7173 53.8086 67.1361 49.1019L66.0108 47.3763C72.9538 44.0859 72.3356 40.276 65.8068 40.6595L64.5703 43.0531L62.3632 34.1777C61.4481 30.5225 59.2719 27.3187 55.5006 27.3187H55.4573C55.0431 28.5557 54.567 29.737 54.0291 30.9245C56.8113 31.0111 58.4991 33.3984 59.0988 36.1507L61.3121 45.3538H11.1287L13.8922 36.1507C14.1791 35.2077 14.5776 34.3025 15.0793 33.4541C15.3165 32.958 15.6557 32.5175 16.0747 32.1615C16.463 31.7782 16.9203 31.4718 17.4225 31.2585C17.2061 30.8317 16.9959 30.4111 16.8042 29.9782C16.4518 29.2236 16.1303 28.4567 15.8397 27.6898L15.8521 27.6712ZM43.2777 37.0537C41.3101 39.2388 39.0409 41.1319 36.5388 42.6758C36.3826 42.7917 36.1949 42.8573 36.0005 42.8639C35.8062 42.8706 35.6144 42.8179 35.4507 42.7129C31.8701 40.4446 28.6904 37.5981 26.0409 34.2891C22.8047 30.3453 20.6278 25.6407 19.7162 20.6204C18.9619 15.9632 19.6667 11.4792 21.9852 7.83626C22.9289 6.35503 24.1138 5.0422 25.4906 3.95215C28.504 1.44155 32.2898 0.0458889 36.2111 0C39.998 0.063469 43.6231 1.54673 46.369 4.15625C47.4247 5.12605 48.3384 6.24 49.0831 7.46517C51.5561 11.5719 52.1125 16.8105 51.0182 22.111C49.8031 27.6849 47.1321 32.8368 43.2777 37.0413V37.0413V37.0537ZM41.9361 14.8438C41.9409 15.6778 41.7278 16.4986 41.3179 17.2249C40.9112 17.9538 40.3039 18.5506 39.5682 18.9443C38.6762 19.3799 37.6917 19.5922 36.6995 19.5628H34.6222V23.3789H30.5912V10.1061H36.6686C38.0899 10.0092 39.4926 10.4733 40.576 11.3988C41.0317 11.8453 41.3883 12.3828 41.6227 12.9764C41.857 13.5699 41.9638 14.2062 41.9361 14.8438V14.8438ZM36.477 16.4395C36.675 16.4363 36.8701 16.3909 37.0492 16.3062C37.2283 16.2216 37.3873 16.0996 37.5155 15.9486C37.6436 15.7975 37.7381 15.6208 37.7925 15.4303C37.8469 15.2397 37.86 15.0398 37.8309 14.8438C37.8524 14.6512 37.8337 14.4563 37.7759 14.2714C37.718 14.0866 37.6225 13.9157 37.4951 13.7697C37.3678 13.6238 37.2116 13.5059 37.0363 13.4235C36.861 13.3412 36.6706 13.2961 36.477 13.2913H34.6222V16.4395H36.477ZM35.5001 4.25521C41.8619 4.25521 47.0243 9.82162 47.0243 16.7425C47.0243 23.6634 41.8619 29.2298 35.5001 29.2298C29.1383 29.2298 23.9759 23.6634 23.9759 16.7425C23.9759 9.82162 29.1383 4.25521 35.5001 4.25521ZM17.5708 57.6432L9.42846 56.6165C7.51188 56.4063 6.99873 57.235 7.6479 58.8678L8.532 61.0016C8.7779 61.5056 9.15616 61.9332 9.6263 62.2386C10.1798 62.5574 10.8054 62.7298 11.444 62.7396L18.6961 62.7953C20.4457 62.7953 21.2 62.0902 20.6497 60.4883C20.4567 59.7711 20.0634 59.1238 19.516 58.6221C18.9685 58.1204 18.2895 57.7852 17.5585 57.6556L17.5708 57.6432ZM53.4665 57.6432L61.5903 56.6165C63.5131 56.4063 64.0263 57.235 63.3709 58.8678L62.493 61.0016C62.2458 61.5047 61.8678 61.932 61.3987 62.2386C60.8335 62.5617 60.1949 62.7342 59.5439 62.7396L52.298 62.7953C50.5484 62.7953 49.825 62.0902 50.3382 60.4883C50.5325 59.7718 50.9262 59.1253 51.4734 58.6238C52.0207 58.1223 52.699 57.7866 53.4294 57.6556L53.4665 57.6432Z" fill="#AB854F"/>
</g>
<defs>
<clipPath id="clip0_780_30">
<rect width="71" height="76" fill="white"/>
</clipPath>
</defs>
</svg>
