<svg width="50" height="44" viewBox="0 0 50 44" fill="none" xmlns="http://www.w3.org/2000/svg">
<g clip-path="url(#clip0_1278_4)">
<path fill-rule="evenodd" clip-rule="evenodd" d="M20.9391 38.1298C26.1882 43.1835 33.61 44.7109 41.0319 41.5544L47.2616 43.9919L45.1986 39.0926C52.1159 33.5555 50.8952 25.9507 45.7845 20.7671C45.4452 22.7442 44.7753 24.6503 43.8029 26.4057C42.3717 28.9488 40.4212 31.1633 38.0778 32.9056C35.6727 34.7211 32.9642 36.0965 30.0781 36.968C27.1154 37.8502 24.0292 38.248 20.9391 38.1461V38.1298ZM12.8499 21.9655C12.5273 21.9472 12.2238 21.8063 12.0018 21.5718C11.7799 21.3372 11.6562 21.0268 11.6562 20.7041C11.6562 20.3814 11.7799 20.071 12.0018 19.8364C12.2238 19.6019 12.5273 19.461 12.8499 19.4427H25.0285C25.3512 19.461 25.6546 19.6019 25.8766 19.8364C26.0986 20.071 26.2222 20.3814 26.2222 20.7041C26.2222 21.0268 26.0986 21.3372 25.8766 21.5718C25.6546 21.8063 25.3512 21.9472 25.0285 21.9655H12.8499ZM12.8499 14.97C12.5273 14.9517 12.2238 14.8108 12.0018 14.5763C11.7799 14.3417 11.6562 14.0313 11.6562 13.7086C11.6562 13.3859 11.7799 13.0755 12.0018 12.8409C12.2238 12.6064 12.5273 12.4655 12.8499 12.4472H30.249C30.5717 12.4655 30.8752 12.6064 31.0971 12.8409C31.3191 13.0755 31.4428 13.3859 31.4428 13.7086C31.4428 14.0313 31.3191 14.3417 31.0971 14.5763C30.8752 14.8108 30.5717 14.9517 30.249 14.97H12.8499ZM22.0866 1.43124e-06C27.9989 0.190935 33.2845 2.28308 37.0646 5.52082C40.9261 8.82356 43.2373 13.3207 43.0949 18.224C42.9443 23.1558 40.3605 27.5066 36.3037 30.5819C32.3242 33.5962 26.9165 35.3714 21.0205 35.2008C19.4248 35.1557 17.8366 34.9639 16.276 34.628C14.905 34.3367 13.5614 33.929 12.2599 33.4093L2.72217 37.1467L5.90821 29.5784C4.14352 28.0704 2.68963 26.2339 1.62761 24.1714C0.489589 21.9473 -0.070101 19.4733 1.96356e-06 16.9768C0.154624 12.0654 2.73845 7.71859 6.79525 4.63115C10.7747 1.62497 16.1865 -0.162495 22.0785 1.43124e-06H22.0866ZM22.0256 2.51057H22.0052C16.6829 2.36839 11.8571 3.94867 8.31706 6.62986C4.85026 9.25418 2.64486 12.9347 2.52279 17.0621C2.46858 19.1366 2.9373 21.1915 3.88591 23.0379C4.93445 25.0571 6.40869 26.8256 8.2072 28.2216L8.95183 28.8147L7.35677 32.6212L12.2721 30.6915L12.7482 30.8947C14.0492 31.4444 15.3993 31.8702 16.7806 32.1662C18.198 32.4715 19.6403 32.6469 21.0897 32.6902C26.3794 32.8446 31.2622 31.2643 34.786 28.5791C38.2487 25.9548 40.4541 22.2783 40.5802 18.1671C40.6982 14.06 38.7248 10.2657 35.4289 7.44234C32.0597 4.54584 27.3275 2.68526 22.0337 2.52276L22.0256 2.51057Z" fill="#AB854F"/>
</g>
<defs>
<clipPath id="clip0_1278_4">
<rect width="50" height="44" fill="white"/>
</clipPath>
</defs>
</svg>
