<svg width="39" height="39" viewBox="0 0 39 39" fill="none" xmlns="http://www.w3.org/2000/svg">
<g clip-path="url(#clip0_788_5)">
<path d="M19.4998 1.56707e-05C24.013 -0.00127439 28.387 1.56244 31.8764 4.4247C35.3658 7.28696 37.7548 11.2706 38.6362 15.6969C39.5175 20.1232 38.8368 24.7181 36.71 28.6987C34.5832 32.6793 31.1419 35.7993 26.9725 37.5269C22.8031 39.2546 18.1636 39.483 13.8447 38.1733C9.52574 36.8636 5.79458 34.0968 3.28701 30.3443C0.779447 26.5919 -0.349356 22.0861 0.0929608 17.5946C0.535277 13.1032 2.52134 8.9041 5.71272 5.71291C7.52097 3.89912 9.66992 2.46066 12.036 1.48023C14.4021 0.499811 16.9387 -0.00323673 19.4998 1.56707e-05V1.56707e-05ZM20.5028 17.5132C20.8881 17.7079 21.2088 18.0099 21.4263 18.3828H24.5684C24.5105 18.244 24.4899 18.0924 24.5088 17.9431C24.5278 17.7939 24.5855 17.6522 24.6763 17.5322C24.8142 17.3556 25.0163 17.2405 25.2385 17.212C25.4608 17.1835 25.6853 17.2438 25.8634 17.3799L27.7327 18.824C27.8322 18.9028 27.9124 19.0032 27.9674 19.1175C28.0224 19.2319 28.0507 19.3573 28.0501 19.4841V19.5032C28.0509 19.6306 28.0227 19.7565 27.9678 19.8714C27.9128 19.9863 27.8324 20.0872 27.7327 20.1665L25.8634 21.6074C25.7169 21.7173 25.5386 21.7766 25.3555 21.7763C25.1723 21.7761 24.9942 21.7163 24.8481 21.6059C24.7019 21.4956 24.5956 21.3407 24.5451 21.1646C24.4947 20.9886 24.5029 20.8009 24.5684 20.6299H21.4232C21.2526 20.9138 21.0207 21.156 20.7444 21.3387C20.4682 21.5214 20.1546 21.64 19.8266 21.6859C19.4985 21.7318 19.1644 21.7037 18.8486 21.6038C18.5329 21.5039 18.2434 21.3346 18.0015 21.1084C17.7596 20.8822 17.5713 20.6048 17.4504 20.2964C17.3295 19.9881 17.2791 19.6566 17.3029 19.3262C17.3266 18.9959 17.424 18.675 17.5877 18.3871C17.7515 18.0993 17.9775 17.8516 18.2493 17.6624L18.2747 13.365C18.102 13.4363 17.9105 13.4482 17.7303 13.399C17.5501 13.3497 17.3913 13.2421 17.2788 13.0929C17.1663 12.9438 17.1064 12.7615 17.1086 12.5747C17.1108 12.3879 17.1749 12.2071 17.2908 12.0606L18.773 10.2261C18.8496 10.1304 18.946 10.0525 19.0556 9.99775C19.1652 9.94296 19.2853 9.91258 19.4078 9.90871H19.4268C19.5622 9.90541 19.6964 9.93485 19.818 9.99453C19.9395 10.0542 20.0449 10.1424 20.1251 10.2515L21.5247 12.1558C21.634 12.3035 21.6921 12.4829 21.6901 12.6667C21.6882 12.8505 21.6263 13.0286 21.5139 13.174C21.4016 13.3194 21.2448 13.4242 21.0674 13.4724C20.8901 13.5206 20.7019 13.5097 20.5313 13.4412L20.5028 17.5132ZM27.4852 31.459C27.5702 31.6707 27.5763 31.9059 27.5025 32.1218C27.4287 32.3377 27.2798 32.5199 27.0829 32.6352C26.8861 32.7506 26.6544 32.7914 26.4299 32.7503C26.2055 32.7091 26.0033 32.5888 25.8602 32.4111L25.1588 31.1987C25.0738 30.987 25.0676 30.7518 25.1414 30.5359C25.2153 30.32 25.3642 30.1379 25.561 30.0225C25.7579 29.9072 25.9896 29.8663 26.214 29.9075C26.4384 29.9486 26.6406 30.0689 26.7838 30.2466L27.4852 31.4622V31.459ZM11.5113 7.53786C11.4364 7.32768 11.4378 7.09789 11.515 6.88859C11.5923 6.67929 11.7406 6.50377 11.9341 6.39267C12.1276 6.28157 12.354 6.24194 12.5737 6.2807C12.7934 6.31946 12.9925 6.43415 13.1363 6.60475L13.8377 7.81715C13.9276 7.92375 13.9929 8.04876 14.0291 8.18337C14.0653 8.31799 14.0716 8.45891 14.0473 8.59619C14.0231 8.73347 13.969 8.86376 13.889 8.97785C13.8089 9.09194 13.7047 9.18706 13.5838 9.25647C13.4629 9.32589 13.3283 9.36791 13.1893 9.37958C13.0504 9.39125 12.9107 9.37227 12.7799 9.32398C12.6491 9.2757 12.5305 9.1993 12.4325 9.10016C12.3345 9.00102 12.2595 8.88158 12.2127 8.75026L11.5113 7.53786ZM32.3951 25.8635C32.5264 25.9103 32.6459 25.9854 32.745 26.0834C32.8441 26.1814 32.9205 26.2999 32.9688 26.4307C33.0171 26.5615 33.0361 26.7013 33.0244 26.8402C33.0127 26.9791 32.9707 27.1137 32.9013 27.2346C32.8319 27.3555 32.7368 27.4597 32.6227 27.5398C32.5086 27.6199 32.3783 27.6739 32.241 27.6982C32.1037 27.7224 31.9628 27.7162 31.8282 27.6799C31.6936 27.6437 31.5686 27.5784 31.462 27.4885L30.2496 26.7871C30.079 26.6433 29.9643 26.4442 29.9255 26.2245C29.8868 26.0048 29.9264 25.7784 30.0375 25.5849C30.1486 25.3915 30.3241 25.2431 30.5334 25.1659C30.7427 25.0886 30.9725 25.0873 31.1827 25.1621L32.3951 25.8635V25.8635ZM6.60139 13.1365C6.47432 13.0855 6.35974 13.0077 6.26548 12.9083C6.17122 12.809 6.09949 12.6905 6.05518 12.561C6.01088 12.4314 5.99503 12.2938 6.00874 12.1576C6.02244 12.0213 6.06537 11.8897 6.13459 11.7715C6.20382 11.6534 6.29771 11.5516 6.40986 11.473C6.52201 11.3945 6.64979 11.341 6.78447 11.3163C6.91916 11.2916 7.05758 11.2963 7.1903 11.33C7.32302 11.3637 7.44692 11.4256 7.55354 11.5115L8.76911 12.2129C8.94677 12.3561 9.06711 12.5583 9.10823 12.7827C9.14936 13.0071 9.10854 13.2388 8.9932 13.4357C8.87785 13.6325 8.69566 13.7814 8.47978 13.8552C8.26391 13.929 8.02869 13.9229 7.81697 13.8379L6.60139 13.1365ZM33.8519 18.5574C34.0766 18.592 34.2815 18.7059 34.4296 18.8785C34.5776 19.0511 34.659 19.271 34.659 19.4984C34.659 19.7258 34.5776 19.9457 34.4296 20.1183C34.2815 20.2909 34.0766 20.4048 33.8519 20.4395H32.449C32.2243 20.4048 32.0194 20.2909 31.8713 20.1183C31.7233 19.9457 31.6419 19.7258 31.6419 19.4984C31.6419 19.271 31.7233 19.0511 31.8713 18.8785C32.0194 18.7059 32.2243 18.592 32.449 18.5574H33.8519ZM5.14778 20.4426C5.01208 20.4636 4.87346 20.4549 4.74144 20.4172C4.60941 20.3795 4.48709 20.3137 4.38288 20.2243C4.27866 20.1349 4.19501 20.0241 4.13765 19.8993C4.0803 19.7746 4.05061 19.6389 4.05061 19.5016C4.05061 19.3643 4.0803 19.2286 4.13765 19.1039C4.19501 18.9791 4.27866 18.8683 4.38288 18.7789C4.48709 18.6895 4.60941 18.6237 4.74144 18.586C4.87346 18.5483 5.01208 18.5397 5.14778 18.5606H6.55061C6.77535 18.5952 6.98027 18.7091 7.12832 18.8817C7.27636 19.0543 7.35774 19.2742 7.35774 19.5016C7.35774 19.729 7.27636 19.9489 7.12832 20.1215C6.98027 20.2941 6.77535 20.408 6.55061 20.4426H5.14778ZM31.462 11.5115C31.6722 11.4366 31.902 11.4379 32.1113 11.5152C32.3206 11.5925 32.4961 11.7408 32.6072 11.9343C32.7183 12.1278 32.7579 12.3541 32.7191 12.5739C32.6804 12.7936 32.5657 12.9927 32.3951 13.1365L31.1827 13.8379C30.9725 13.9128 30.7427 13.9114 30.5334 13.8342C30.3241 13.7569 30.1486 13.6086 30.0375 13.4151C29.9264 13.2216 29.8868 12.9953 29.9255 12.7755C29.9643 12.5558 30.079 12.3567 30.2496 12.2129L31.462 11.5115ZM7.53767 27.4885C7.43108 27.5784 7.30606 27.6437 7.17145 27.6799C7.03684 27.7162 6.89591 27.7224 6.75863 27.6982C6.62135 27.6739 6.49106 27.6199 6.37697 27.5398C6.26288 27.4597 6.16777 27.3555 6.09835 27.2346C6.02893 27.1137 5.98691 26.9791 5.97524 26.8402C5.96358 26.7013 5.98256 26.5615 6.03084 26.4307C6.07912 26.2999 6.15553 26.1814 6.25466 26.0834C6.3538 25.9854 6.47324 25.9103 6.60456 25.8635L7.81697 25.1621C8.02714 25.0873 8.25693 25.0886 8.46624 25.1659C8.67554 25.2431 8.85106 25.3915 8.96216 25.5849C9.07326 25.7784 9.11289 26.0048 9.07412 26.2245C9.03536 26.4442 8.92067 26.6433 8.75007 26.7871L7.53767 27.4885ZM25.8634 6.60475C26.0071 6.43415 26.2063 6.31946 26.426 6.2807C26.6457 6.24194 26.8721 6.28157 27.0655 6.39267C27.259 6.50377 27.4073 6.67929 27.4846 6.88859C27.5619 7.09789 27.5632 7.32768 27.4884 7.53786L26.7869 8.75026C26.7402 8.88158 26.6651 9.00102 26.5671 9.10016C26.4691 9.1993 26.3505 9.2757 26.2198 9.32398C26.089 9.37227 25.9492 9.39125 25.8103 9.37958C25.6714 9.36791 25.5367 9.32589 25.4159 9.25647C25.295 9.18706 25.1908 9.09194 25.1107 8.97785C25.0306 8.86376 24.9765 8.73347 24.9523 8.59619C24.9281 8.45891 24.9343 8.31799 24.9705 8.18337C25.0068 8.04876 25.0721 7.92375 25.1619 7.81715L25.8634 6.60475V6.60475ZM13.1363 32.3985C12.9931 32.5761 12.791 32.6964 12.5665 32.7376C12.3421 32.7787 12.1104 32.7379 11.9136 32.6225C11.7167 32.5072 11.5678 32.325 11.494 32.1091C11.4202 31.8932 11.4263 31.658 11.5113 31.4463L12.2127 30.2307C12.3559 30.0531 12.5581 29.9327 12.7825 29.8916C13.0069 29.8505 13.2386 29.8913 13.4355 30.0066C13.6323 30.122 13.7812 30.3042 13.855 30.5201C13.9289 30.7359 13.9227 30.9711 13.8377 31.1829L13.1363 32.3953V32.3985ZM18.5572 5.14796C18.5918 4.92322 18.7058 4.7183 18.8784 4.57026C19.051 4.42222 19.2708 4.34083 19.4982 4.34083C19.7256 4.34083 19.9455 4.42222 20.1181 4.57026C20.2907 4.7183 20.4046 4.92322 20.4393 5.14796V6.5508C20.4046 6.77554 20.2907 6.98046 20.1181 7.1285C19.9455 7.27655 19.7256 7.35793 19.4982 7.35793C19.2708 7.35793 19.051 7.27655 18.8784 7.1285C18.7058 6.98046 18.5918 6.77554 18.5572 6.5508V5.14796V5.14796ZM20.4393 33.8521C20.4602 33.9878 20.4515 34.1264 20.4138 34.2584C20.3761 34.3904 20.3104 34.5127 20.221 34.617C20.1316 34.7212 20.0207 34.8048 19.896 34.8622C19.7712 34.9195 19.6355 34.9492 19.4982 34.9492C19.3609 34.9492 19.2253 34.9195 19.1005 34.8622C18.9758 34.8048 18.8649 34.7212 18.7755 34.617C18.6861 34.5127 18.6203 34.3904 18.5827 34.2584C18.545 34.1264 18.5363 33.9878 18.5572 33.8521V32.4492C18.5918 32.2245 18.7058 32.0196 18.8784 31.8715C19.051 31.7235 19.2708 31.6421 19.4982 31.6421C19.7256 31.6421 19.9455 31.7235 20.1181 31.8715C20.2907 32.0196 20.4046 32.2245 20.4393 32.4492V33.8521ZM31.7381 7.26491C28.9055 4.43738 25.1802 2.67941 21.1969 2.29048C17.2135 1.90156 13.2185 2.90575 9.89252 5.13197C6.56651 7.3582 4.11524 10.6687 2.95633 14.4996C1.79741 18.3304 2.00255 22.4446 3.53679 26.1411C5.07103 29.8377 7.83945 32.8879 11.3704 34.7723C14.9014 36.6566 18.9764 37.2584 22.9014 36.4752C26.8263 35.6919 30.3582 33.5721 32.8955 30.4768C35.4327 27.3815 36.8183 23.5023 36.8162 19.5C36.8175 17.2267 36.3695 14.9755 35.498 12.8758C34.6265 10.7761 33.3488 8.86926 31.7381 7.26491Z" fill="#AB854F"/>
</g>
<defs>
<clipPath id="clip0_788_5">
<rect width="39" height="39" fill="white"/>
</clipPath>
</defs>
</svg>
