<svg width="123" height="123" viewBox="0 0 123 123" fill="none" xmlns="http://www.w3.org/2000/svg">
<g clip-path="url(#clip0_1708_2)">
<path d="M1.42624 8.31299C-0.474762 6.41199 -0.474762 3.32899 1.42624 1.42699C3.32724 -0.475012 6.41024 -0.475012 8.31224 1.42699L61.4392 54.554L114.566 1.42699C116.467 -0.475012 119.55 -0.475012 121.453 1.42699C123.354 3.32799 123.354 6.41199 121.453 8.31299L68.3242 61.439L121.452 114.567C123.353 116.468 123.353 119.551 121.452 121.453C119.55 123.355 116.467 123.355 114.565 121.453L61.4382 68.326L8.31224 121.453C6.41124 123.355 3.32824 123.355 1.42624 121.453C-0.474762 119.552 -0.474762 116.469 1.42624 114.567L54.5532 61.439L1.42624 8.31299Z" fill="#C69958"/>
</g>
<defs>
<clipPath id="clip0_1708_2">
<rect width="122.878" height="122.88" fill="white"/>
</clipPath>
</defs>
</svg>
