<svg width="105" height="77" viewBox="0 0 105 77" fill="none" xmlns="http://www.w3.org/2000/svg">
<g clip-path="url(#clip0_781_32)">
<path d="M30.6876 51.9392V12.5375C30.6876 9.08814 32.1027 5.95324 34.3852 3.68223C36.6657 1.41121 39.8136 0 43.2774 0C44.8934 0 46.454 0.316553 47.8998 0.890433C49.3969 1.48269 50.7484 2.34658 51.8907 3.41673C52.7499 4.22343 52.7909 5.57133 51.9829 6.42909C51.1729 7.2848 49.8194 7.32565 48.958 6.52099C48.1931 5.80415 47.301 5.23027 46.3269 4.84428C45.3979 4.47463 44.3684 4.27245 43.2794 4.27245C40.9969 4.27245 38.9215 5.20372 37.4162 6.70071C35.913 8.19975 34.9779 10.2665 34.9779 12.5375V21.3929H62.284V12.5375C62.284 9.09426 63.7011 5.96141 65.9816 3.6904C68.262 1.41121 71.412 0 74.8738 0C76.5349 0 78.1263 0.326764 79.5864 0.919025C81.0958 1.52967 82.4657 2.43031 83.6244 3.54948C84.4714 4.36843 84.4899 5.71838 83.6675 6.56184C82.8451 7.4053 81.4896 7.42368 80.6426 6.60268C79.8838 5.87155 78.9794 5.27725 77.9786 4.87287C76.993 4.47501 75.9393 4.2711 74.8758 4.27245C72.5933 4.27245 70.5179 5.20372 69.0126 6.70071C67.5073 8.19566 66.5742 10.2645 66.5742 12.5375V52.5641C67.817 54.1122 69.0618 55.2109 70.2697 55.8726C71.2398 56.4057 72.1708 56.6426 73.0342 56.5956C73.8791 56.5486 74.7158 56.2219 75.5157 55.6296C76.5021 54.8985 77.4413 53.7609 78.2924 52.2353C78.5161 51.8023 78.8824 51.4591 79.3301 51.2632C80.4129 50.7894 81.6782 51.2795 82.154 52.3558C82.9046 54.0489 83.9854 55.1783 85.1974 55.7991L85.2917 55.844C86.0833 56.23 86.9385 56.4179 87.7937 56.4179C88.6673 56.4179 89.5656 56.2219 90.4207 55.8481C91.9568 55.1721 93.3267 53.9182 94.188 52.1741C94.7048 51.1182 95.9845 50.6832 97.0447 51.1979C98.103 51.7125 98.5418 52.9869 98.023 54.0428C96.69 56.7447 94.5551 58.693 92.1454 59.7509C90.7673 60.3575 89.2825 60.672 87.7937 60.672C86.2864 60.672 84.7872 60.3432 83.4009 59.6631L83.2799 59.5998C82.1212 59.0137 81.0466 58.1845 80.1176 57.1C79.4696 57.8659 78.7805 58.5153 78.0607 59.0504C76.578 60.1492 74.964 60.7557 73.268 60.8497C71.5966 60.9416 69.8924 60.5331 68.2087 59.61C67.0131 58.9544 65.8196 58.0293 64.6527 56.8284C63.6437 58.0763 62.4419 59.0361 61.1335 59.6917C59.8292 60.3452 58.4142 60.6985 56.9725 60.7271C55.539 60.7578 54.0911 60.4718 52.713 59.853C51.1032 59.128 49.5815 57.9496 48.2874 56.2974C47.0939 57.5412 45.8716 58.497 44.6452 59.1709C42.9615 60.0961 41.2574 60.5045 39.5839 60.4126C37.8879 60.3187 36.274 59.7121 34.7892 58.6134C34.0694 58.0783 33.3803 57.4288 32.7323 56.665C31.7704 57.7862 30.6507 58.6358 29.4428 59.2261C28.0544 59.9061 26.5574 60.2329 25.0562 60.2349C23.5673 60.2349 22.0825 59.9184 20.7024 59.3139C19.275 58.6869 17.9441 57.7474 16.8182 56.5221C16.2358 57.2267 15.5898 57.8475 14.8761 58.3826C13.2457 59.5998 11.3098 60.3187 9.01292 60.4433C7.83372 60.5066 6.82473 59.608 6.76116 58.4337C6.69759 57.2593 7.59993 56.2545 8.77913 56.1912C10.1962 56.1136 11.3611 55.6909 12.3126 54.9802C13.3093 54.2347 14.1358 53.1319 14.8166 51.737C15.3355 50.6771 16.6193 50.2359 17.6836 50.7526C18.1799 50.9936 18.5408 51.4021 18.7316 51.8739C19.597 53.5465 20.9341 54.7535 22.4291 55.409C23.2843 55.7848 24.1805 55.9809 25.0562 55.9809C25.9175 55.9809 26.7747 55.793 27.5643 55.407C28.8091 54.7984 29.9206 53.6629 30.6876 51.9392V51.9392ZM62.284 52.6438V44.4032H34.9779V52.509C35.7141 53.6833 36.5077 54.5799 37.3363 55.1926C38.1361 55.7869 38.9728 56.1116 39.8177 56.1586C40.6831 56.2076 41.6142 55.9686 42.5842 55.4356C43.9459 54.6861 45.3528 53.3851 46.7514 51.5124C47.1841 50.9324 47.8547 50.6342 48.5294 50.6526C49.3292 50.6322 50.1106 51.0631 50.4941 51.8228C51.5625 53.9325 52.9755 55.2926 54.4726 55.9666C55.2703 56.324 56.0927 56.4914 56.8884 56.4751C57.68 56.4588 58.4696 56.2586 59.2058 55.889C60.4301 55.2742 61.5191 54.1816 62.284 52.6438ZM2.24739 76.5793C1.06819 76.6385 0.063308 75.7358 0.00178453 74.5615C-0.0576881 73.3872 0.850808 72.3865 2.03001 72.3252C3.43889 72.2517 4.60169 71.829 5.5553 71.1182C6.55813 70.3687 7.38255 69.2679 8.0593 67.8833C8.572 66.8233 9.85169 66.3802 10.916 66.8907C11.3818 67.1133 11.75 67.4975 11.9517 67.9711C12.8151 69.6662 14.1624 70.8854 15.6698 71.5471C16.5249 71.9229 17.4232 72.119 18.2989 72.119C19.1602 72.119 20.0174 71.9311 20.809 71.5451C22.0559 70.9344 23.1715 69.7928 23.9385 68.0589C24.4163 66.9826 25.6796 66.4925 26.7624 66.9663C27.2259 67.1705 27.5827 67.5197 27.8001 67.9364C28.6512 69.4619 29.5884 70.5975 30.5769 71.3286C31.3767 71.9229 32.2134 72.2497 33.0583 72.2966C33.9238 72.3436 34.8548 72.1047 35.8248 71.5716C37.1866 70.8242 38.5934 69.5232 39.9941 67.6505C40.6954 66.7069 42.0366 66.5088 42.9841 67.2093C43.2876 67.4319 43.5153 67.724 43.6588 68.0446C44.2392 69.3129 45.0267 70.3034 45.9311 70.9937C46.7678 71.6308 47.7132 72.0168 48.6832 72.1333C49.6532 72.2476 50.6602 72.0985 51.622 71.6656C52.6433 71.2061 53.6277 70.4259 54.4869 69.3088C55.137 68.4612 56.3019 68.2345 57.2124 68.7308C57.5816 68.8779 57.9138 69.1291 58.1619 69.4742C59.0663 70.7384 60.1245 71.6063 61.2279 72.1026C62.1466 72.5152 63.1043 72.6724 64.0272 72.5887L64.0682 72.5846C65.0074 72.4886 65.9282 72.1394 66.7506 71.5553C67.7247 70.863 68.5738 69.8296 69.1869 68.4796C69.3346 68.161 69.5622 67.869 69.8657 67.6464C70.8132 66.9459 72.1544 67.144 72.8558 68.0875C74.2565 69.9603 75.6654 71.2612 77.0271 72.0107C77.9971 72.5417 78.9261 72.7807 79.7936 72.7337C80.6364 72.6847 81.4732 72.3599 82.273 71.7656C83.2614 71.0345 84.1987 69.899 85.0497 68.3734C85.2671 67.9568 85.6219 67.6076 86.0874 67.4033C87.1702 66.9295 88.4335 67.4197 88.9113 68.496C89.6763 70.2258 90.794 71.3654 92.047 71.9801C92.8365 72.3681 93.6917 72.556 94.5531 72.556C95.4267 72.556 96.3249 72.3599 97.1822 71.9821C98.7182 71.3082 100.086 70.0542 100.945 68.3121C101.464 67.2583 102.744 66.8213 103.802 67.3359C104.862 67.8526 105.299 69.127 104.782 70.1808C103.449 72.8807 101.314 74.8291 98.9089 75.887C97.5287 76.4935 96.0419 76.8101 94.5531 76.8101C93.0478 76.808 91.5507 76.4792 90.1623 75.8012C88.9503 75.211 87.8347 74.3614 86.8749 73.2422C86.2269 74.004 85.5399 74.6534 84.82 75.1865C83.3373 76.2852 81.7234 76.8918 80.0274 76.9857C78.3539 77.0796 76.6497 76.6712 74.966 75.746C73.7704 75.0905 72.5789 74.1653 71.412 72.9665C70.7578 73.7732 70.0216 74.4614 69.23 75.0251C67.7945 76.0422 66.1743 76.6508 64.503 76.8223L64.4394 76.8264C62.7823 76.9857 61.0822 76.7141 59.4703 75.9891C58.3137 75.4703 57.2042 74.7167 56.1911 73.7201C55.3073 74.5023 54.3598 75.1129 53.3795 75.5541C51.6876 76.3138 49.9075 76.5772 48.1808 76.371C46.4561 76.1627 44.7908 75.4887 43.3348 74.3798C42.631 73.8409 41.9942 73.2204 41.4378 72.5315C40.2709 73.7283 39.0815 74.6514 37.8859 75.309C36.2022 76.2341 34.498 76.6426 32.8245 76.5487C31.1285 76.4547 29.5146 75.8502 28.0298 74.7494C27.31 74.2164 26.623 73.5649 25.9749 72.8031C25.0131 73.9243 23.8934 74.7739 22.6855 75.3641C21.2971 76.0442 19.8 76.373 18.2989 76.373C16.8079 76.373 15.3232 76.0565 13.943 75.452C12.5157 74.825 11.1847 73.8835 10.0588 72.6581C9.47639 73.3647 8.8304 73.9876 8.11878 74.5207C6.48635 75.7379 4.54837 76.4568 2.24739 76.5793V76.5793ZM62.284 40.1308V25.6653H34.9779V40.1308H62.284V40.1308Z" fill="#AB854F"/>
</g>
<defs>
<clipPath id="clip0_781_32">
<rect width="105" height="77" fill="white"/>
</clipPath>
</defs>
</svg>
