<svg width="100" height="57" viewBox="0 0 100 57" fill="none" xmlns="http://www.w3.org/2000/svg">
<g clip-path="url(#clip0_781_37)">
<path fill-rule="evenodd" clip-rule="evenodd" d="M68.8802 42.2101C78.4288 42.2101 87.9747 42.2101 97.5179 42.2101C97.964 42.2123 98.3913 42.39 98.7067 42.7046C99.0222 43.0193 99.2003 43.4454 99.2025 43.8904C99.2025 46.3906 98.1527 51.2934 92.4805 51.2934H61.32C63.6149 48.9475 68.6442 42.9894 68.5791 42.6322C68.6849 42.4861 68.7826 42.34 68.8802 42.1858V42.2101ZM34.7982 2.99524C34.6478 2.8027 34.5373 2.58229 34.473 2.34679C34.4088 2.11129 34.392 1.86541 34.4238 1.62341C34.4883 1.13538 34.7426 0.692213 35.1318 0.389574C35.3229 0.235533 35.5433 0.121612 35.7796 0.0546552C36.0159 -0.0123016 36.2634 -0.0309121 36.5072 -5.81614e-05C36.7514 0.0290486 36.9873 0.106509 37.2011 0.227779C37.4149 0.349048 37.6023 0.511686 37.7523 0.706151C39.1439 2.5082 38.5661 4.27778 37.9883 6.2503C37.7209 7.03967 37.5435 7.85654 37.4593 8.6855C37.3903 9.51562 37.5961 10.3454 38.0452 11.0476C38.303 11.4652 38.3858 11.9671 38.2757 12.4449C38.1655 12.9228 37.8713 13.3383 37.4567 13.6016C37.042 13.8649 36.5401 13.955 36.0594 13.8522C35.5787 13.7495 35.1578 13.4623 34.8877 13.0526C33.1299 10.4226 33.5775 7.93871 34.4238 5.12199C34.5956 4.60427 34.7316 4.0754 34.8307 3.5391C34.8875 3.35117 34.8875 3.15071 34.8307 2.96277L34.7982 2.99524ZM19.0267 5.35739C22.3921 6.75247 25.0652 9.42215 26.4597 12.7807C27.8541 16.1393 27.856 19.9124 26.4648 23.2724C25.0658 26.6381 22.3847 29.3123 19.0104 30.7079C16.9207 31.5701 14.6501 31.905 12.3997 31.683C10.1492 31.461 7.9884 30.6889 6.10852 29.4351C4.22864 28.1813 2.68772 26.4845 1.62223 24.4948C0.556736 22.5052 -0.000453826 20.2842 2.77344e-07 18.0286C0.0143842 15.2984 0.833773 12.6327 2.3561 10.3637C3.87842 8.09468 6.03639 6.32256 8.5612 5.2681V5.2681C10.2135 4.61939 11.9779 4.30217 13.7533 4.3346C15.5574 4.34057 17.344 4.68762 19.0186 5.35739H19.0267ZM12.0117 17.0464V11.3642C12.0106 11.188 12.0445 11.0133 12.1116 10.8503C12.1786 10.6873 12.2775 10.5391 12.4023 10.4145C12.6549 10.1622 12.997 10.0193 13.3545 10.0167C13.7121 10.0189 14.0545 10.1615 14.3074 10.4138C14.5603 10.666 14.7033 11.0075 14.7054 11.3642V17.0464C14.8737 17.1498 15.0293 17.2724 15.1693 17.4116C15.3038 17.5507 15.4237 17.703 15.5273 17.8662H19.5964C19.8627 17.8652 20.1234 17.9431 20.3452 18.0902C20.567 18.2373 20.7399 18.4469 20.842 18.6923C20.944 18.9377 20.9706 19.2078 20.9184 19.4683C20.8661 19.7289 20.7374 19.968 20.5485 20.1553V20.1553C20.298 20.3978 19.9617 20.5319 19.6126 20.5287H15.5436C15.3208 20.8889 15.0136 21.1898 14.6484 21.4054C14.2946 21.615 13.8953 21.7362 13.4844 21.7589C13.0735 21.7815 12.6632 21.7048 12.2884 21.5353C11.9548 21.3873 11.6576 21.1685 11.4176 20.894V20.894C11.2919 20.7496 11.1827 20.5917 11.0921 20.4232C10.8178 19.9113 10.7287 19.3208 10.8398 18.751C10.9417 18.1899 11.228 17.6787 11.6536 17.298C11.7552 17.2079 11.8641 17.1265 11.9792 17.0545L12.0117 17.0464ZM21.5739 10.4307C20.3077 9.15767 18.7518 8.20866 17.0387 7.66453C15.3256 7.12039 13.5061 6.99724 11.735 7.30555C9.51478 7.67711 7.46474 8.72646 5.86751 10.309C4.41102 11.7754 3.4033 13.6253 2.96224 15.6421V15.6421C2.79565 16.4185 2.71109 17.2102 2.70996 18.0042C2.71023 19.4543 2.99797 20.8901 3.55663 22.2288C4.11528 23.5676 4.93383 24.783 5.96517 25.805C7.51107 27.3398 9.47772 28.3839 11.6174 28.806C13.7571 29.2281 15.9742 29.0092 17.9894 28.1768C20.0046 27.3445 21.7279 25.936 22.9421 24.1287C24.1563 22.3213 24.8072 20.196 24.8128 18.0204C24.8124 17.1875 24.7196 16.3572 24.5361 15.5447C24.3506 14.7383 24.0777 13.9544 23.7223 13.2069V13.2069C23.4636 12.6879 23.1498 12.1981 22.7865 11.7457C22.4122 11.2884 22.0128 10.8521 21.5902 10.4388L21.5739 10.4307ZM22.3877 44.2151C20.8679 42.6709 19.6604 40.8492 18.8314 38.8496C18.5521 38.1842 18.3182 37.5008 18.1315 36.804C19.0467 36.5517 19.9416 36.2315 20.8089 35.8461C21.6009 38.9115 23.3873 41.6295 25.8897 43.5764C28.3922 45.5234 31.47 46.5899 34.6436 46.6097H38.4115C40.2903 46.609 42.1505 46.2379 43.8851 45.5176C45.6197 44.7974 47.1945 43.7424 48.5189 42.4131C50.1663 40.7674 51.3893 38.7481 52.0833 36.528C52.8158 34.0928 52.7018 32.2258 52.7018 29.8231V19.5303H32.194C32.194 19.1244 32.194 18.7185 32.194 18.3046C32.194 17.7607 32.194 17.2331 32.1208 16.6811H53.7109C54.2076 16.6813 54.6842 16.8767 55.0374 17.2249C55.2129 17.398 55.3522 17.604 55.4472 17.8312C55.5422 18.0583 55.591 18.302 55.5908 18.5481V24.1572H55.7048C57.0388 24.0447 58.381 24.0746 59.7087 24.2465C61.1747 24.4557 62.5321 25.1369 63.5742 26.1865C64.3053 26.9384 64.8611 27.842 65.2018 28.8328C65.5555 29.86 65.7021 30.947 65.6331 32.031C65.5995 32.6172 65.5095 33.1989 65.3646 33.7681C65.214 34.3464 65.0153 34.9112 64.7705 35.4565C64.2324 36.6147 63.4911 37.6676 62.5814 38.5654C61.2541 39.8557 59.6477 40.8249 57.8857 41.3984C56.1178 41.9699 54.267 42.2442 52.4089 42.2101C52.1729 42.5511 51.9287 42.8676 51.6764 43.1761C51.3184 43.6063 50.9359 44.0365 50.5208 44.4505C48.9326 46.0431 47.0444 47.3069 44.9649 48.1692C42.8853 49.0315 40.6554 49.4753 38.4033 49.4752H34.6517C30.025 49.4044 25.6105 47.5277 22.3551 44.2476L22.3877 44.2151ZM55.1188 27.0307V32.0229C55.1198 34.3136 54.6024 36.575 53.6051 38.6385C56.8604 38.5492 59.2041 37.4777 60.7015 36.0004C61.3326 35.387 61.8456 34.6634 62.2152 33.8655C62.5461 33.1501 62.7393 32.3792 62.7848 31.5926C62.8438 30.9615 62.77 30.3251 62.5682 29.724C62.3664 29.123 62.0411 28.5706 61.613 28.1022C60.3109 26.7791 58.2357 26.8846 56.2256 26.982C55.8594 26.982 55.5013 26.982 55.1188 27.0307ZM43.9453 2.99524C43.799 2.80114 43.6933 2.57966 43.6346 2.34398C43.5759 2.1083 43.5653 1.86325 43.6035 1.62341C43.6337 1.38123 43.7119 1.14745 43.8334 0.935643C43.955 0.723836 44.1175 0.53822 44.3115 0.389574C44.5026 0.235533 44.723 0.121612 44.9593 0.0546552C45.1956 -0.0123016 45.4431 -0.0309121 45.6869 -5.81614e-05C45.9311 0.0290486 46.167 0.106509 46.3808 0.227779C46.5946 0.349048 46.782 0.511686 46.932 0.706151C48.291 2.46761 47.7946 4.18037 47.2005 6.14477C46.9139 6.97275 46.7228 7.8306 46.6309 8.70174C46.5576 9.53514 46.7575 10.3697 47.2005 11.0801C47.4583 11.4976 47.5411 11.9995 47.4309 12.4774C47.3208 12.9553 47.0266 13.3708 46.6119 13.6341C46.1972 13.8974 45.6953 13.9874 45.2147 13.8847C44.734 13.782 44.3131 13.4948 44.043 13.0851C43.1957 11.7993 42.777 10.2795 42.8467 8.74232C42.9311 7.52274 43.1745 6.31934 43.571 5.16257C43.6849 4.80541 44.1895 3.3037 43.9535 2.99524H43.9453ZM3.43425 56.9999C1.17188 56.9999 1.14746 53.3228 3.43425 53.3228H96.9076C97.1599 53.306 97.413 53.3412 97.6512 53.426C97.8894 53.5108 98.1076 53.6435 98.2923 53.8159C98.477 53.9883 98.6242 54.1966 98.7248 54.4281C98.8255 54.6595 98.8774 54.9091 98.8774 55.1614C98.8774 55.4136 98.8255 55.6632 98.7248 55.8947C98.6242 56.1261 98.477 56.3345 98.2923 56.5068C98.1076 56.6792 97.8894 56.8119 97.6512 56.8967C97.413 56.9815 97.1599 57.0167 96.9076 56.9999H3.43425ZM85.7178 16.4132C86.2296 16.4132 86.73 16.5646 87.1555 16.8482C87.5811 17.1319 87.9128 17.535 88.1087 18.0067C88.3045 18.4784 88.3558 18.9974 88.2559 19.4981C88.1561 19.9988 87.9096 20.4588 87.5477 20.8198C87.1858 21.1808 86.7247 21.4266 86.2226 21.5262C85.7206 21.6258 85.2003 21.5747 84.7274 21.3794C84.2546 21.184 83.8504 20.8531 83.566 20.4286C83.2817 20.0041 83.1299 19.5051 83.1299 18.9945C83.1299 18.3099 83.4025 17.6534 83.8879 17.1693C84.3732 16.6852 85.0314 16.4132 85.7178 16.4132ZM63.6556 16.6405C64.3057 16.7599 64.8869 17.1193 65.2832 17.647C66.0106 18.2019 66.6911 18.8155 67.3177 19.4816C68.1984 20.3755 68.9738 21.3668 69.6289 22.4363C70.2594 23.4602 70.7778 24.5488 71.1751 25.6832C71.2484 25.9024 71.3216 26.1297 71.3786 26.3488C71.5034 26.7385 71.6092 27.1281 71.696 27.5177H95.2962C106.641 27.5177 96.5169 10.5768 73.9665 10.8041C69.4295 10.8737 64.9262 11.5954 60.5957 12.9471C60.8165 13.3443 61.0148 13.7535 61.1898 14.1728V14.1728C61.4093 14.6998 61.5888 15.2425 61.7269 15.7963C62.0524 15.9262 62.3779 16.0723 62.7116 16.2265C63.0452 16.3807 63.3219 16.535 63.6149 16.6973L63.6556 16.6405ZM74.349 14.1322C74.8608 14.1322 75.3611 14.2836 75.7867 14.5673C76.2123 14.8509 76.544 15.2541 76.7399 15.7257C76.9357 16.1974 76.987 16.7164 76.8871 17.2171C76.7873 17.7179 76.5408 18.1778 76.1789 18.5388C75.817 18.8998 75.3558 19.1457 74.8538 19.2453C74.3518 19.3449 73.8315 19.2938 73.3586 19.0984C72.8857 18.903 72.4816 18.5722 72.1972 18.1477C71.9128 17.7232 71.7611 17.2241 71.7611 16.7136C71.76 16.3743 71.8262 16.0381 71.9559 15.7245C72.0855 15.4108 72.2761 15.1258 72.5167 14.8859C72.7572 14.646 73.0429 14.4559 73.3573 14.3265C73.6718 14.1972 74.0088 14.1312 74.349 14.1322ZM99.0967 34.0928C99.1643 34.2117 99.2007 34.3457 99.2025 34.4824C99.2025 34.5717 99.2025 34.6691 99.2025 34.7665C99.2025 34.8639 99.2025 34.9532 99.2025 35.0425C99.2007 35.1792 99.1643 35.3132 99.0967 35.4322C98.7061 37.0556 97.1761 39.2717 92.4805 39.2717H70.5078C70.7682 38.6953 70.9635 38.2245 71.0938 37.8511C71.2972 37.2667 71.4762 36.6903 71.6146 36.1302C71.7668 35.547 71.889 34.9564 71.9808 34.3607C72.0513 33.9007 72.1083 33.3081 72.1517 32.583C72.2003 31.8072 72.2003 31.0291 72.1517 30.2533H74.8698L81.8359 37.429L88.7533 30.2533H92.4561C97.1598 30.2533 98.6816 32.4369 99.0723 34.0928H99.0967Z" fill="#AB854F"/>
</g>
<defs>
<clipPath id="clip0_781_37">
<rect width="100" height="57" fill="white"/>
</clipPath>
</defs>
</svg>
