<svg width="89" height="78" viewBox="0 0 89 78" fill="none" xmlns="http://www.w3.org/2000/svg">
<g clip-path="url(#clip0_780_28)">
<path d="M64.0413 49.8652C63.234 52.6808 62.0808 55.3851 60.6082 57.9162H67.7713C68.0811 58.1049 68.4086 58.2628 68.7491 58.3876V58.3876C69.5512 58.6852 70.4154 58.7748 71.2614 58.648C72.1073 58.5212 72.9074 58.1821 73.5873 57.6623L75.5574 56.3205C74.6853 58.2539 73.6557 60.1121 72.4792 61.8764C69.8611 65.7673 66.5163 69.1145 62.6289 71.7333C60.6636 73.056 58.5781 74.1901 56.4001 75.1205C54.1695 76.08 51.847 76.8091 49.4687 77.2965C44.6216 78.2539 39.6345 78.2539 34.7874 77.2965C32.4506 76.824 30.1672 76.1168 27.9719 75.1858L27.856 75.1423C25.6788 74.2102 23.5934 73.0762 21.6272 71.7551C19.6863 70.4495 17.8767 68.958 16.224 67.3017C15.4998 66.5764 14.8189 65.8511 14.1598 65.0532C15.2058 64.1529 16.3038 63.3149 17.4481 62.5436C17.9937 63.1771 18.5586 63.7863 19.1429 64.3714C20.6006 65.8384 22.1993 67.1576 23.9159 68.3099C25.676 69.4849 27.5404 70.495 29.4857 71.3272L29.5798 71.3707C31.516 72.1893 33.5302 72.8089 35.5914 73.2202C36.1056 73.3218 36.6344 73.4161 37.1631 73.4886C32.7721 69.8445 28.8762 65.6407 25.5745 60.9842H19.7803C21.9531 59.6061 24.3722 58.2643 26.7696 57.0023C26.9507 57.3141 27.139 57.6188 27.3346 57.9234H40.56V50.4962L41.574 50.0683C42.0538 50.9903 42.815 51.7349 43.7468 52.1934V57.9162H56.9071C60.0505 52.9768 61.7453 48.0011 61.977 42.9965L64.063 49.8652H64.0413ZM37.1921 38.0426C37.6846 36.4687 39.0535 35.2067 41.038 33.9301L34.2587 25.9952C33.8024 25.5963 33.9183 25.2699 34.3456 24.987L36.5981 24.0223C36.7796 23.9649 36.9713 23.9475 37.1601 23.9713C37.3488 23.9951 37.5303 24.0595 37.6918 24.1602L47.5348 29.1285L59.1234 22.4194L43.1022 2.47334C42.6894 2.0164 42.7473 1.66099 43.3919 1.42889L47.0133 -0.0217285L71.0885 15.5652L79.7799 11.3366C83.0899 9.88603 85.9436 9.65393 87.7471 10.7346C88.1686 10.9082 88.5223 11.2143 88.7549 11.6068C88.9875 11.9993 89.0862 12.4569 89.0363 12.9106C89.0725 15.0865 87.2546 17.4365 84.046 19.4384L75.0142 22.9634L74.2899 51.635L71.0596 53.8109C70.5019 54.2098 70.1759 54.0647 70.0311 53.4627L62.5565 29.0125L50.5044 34.815L49.0558 45.6947C49.0459 45.89 48.9934 46.0808 48.9021 46.2537C48.8107 46.4266 48.6828 46.5774 48.5271 46.6956L46.4774 48.0157C46.0066 48.2042 45.6734 48.1172 45.6082 47.5152L42.8849 37.4334C40.7121 38.3618 38.8869 38.7824 37.3079 38.2892C37.1631 38.2457 37.1486 38.1804 37.1921 38.0426ZM34.1501 33.0162C24.575 38.0934 11.7697 46.3402 7.06185 51.149C-8.33643 67.0261 3.67944 79.3999 21.6707 73.9818C16.0357 73.1477 11.6248 72.009 9.17676 70.3988C-1.27466 63.5228 32.3538 48.6829 40.2196 45.4335L39.6039 43.1488C38.3666 43.2612 37.1192 43.1306 35.9318 42.7644L35.49 42.5686C34.9052 42.3518 34.3733 42.0126 33.9299 41.5736C33.4865 41.1346 33.1418 40.6058 32.9188 40.0227L32.8246 39.7689C32.4361 38.7788 32.4181 37.6814 32.7739 36.679C33.139 35.4946 33.732 34.3932 34.5194 33.4369L34.1645 33.0162H34.1501ZM5.79435 45.7744C5.6276 44.3032 5.54538 42.8235 5.54809 41.3428C5.54582 38.8733 5.78844 36.4096 6.27238 33.9881C6.73836 31.6473 7.44217 29.3604 8.3728 27.1629L8.41626 27.0541C9.35232 24.8727 10.487 22.7823 11.8059 20.8092C13.1054 18.8666 14.5925 17.0567 16.2458 15.4056C17.8985 13.7493 19.708 12.2579 21.6489 10.9522C23.6152 9.63109 25.7005 8.49708 27.8778 7.56503C30.1087 6.60664 32.4311 5.87759 34.8092 5.3891C36.2138 5.10927 37.6333 4.91069 39.0607 4.79434C39.2229 5.04789 39.402 5.29021 39.5967 5.51965L43.7396 10.6911V21.6578H51.1418L47.3827 23.8338L40.56 20.3958V10.6694C36.7141 13.9712 33.2102 17.6526 30.1013 21.6578H31.0646C30.2931 22.3226 29.7444 23.2088 29.4929 24.1964C29.4373 24.3865 29.3962 24.5804 29.3698 24.7767V24.8419H27.8705C26.1302 27.4952 24.7333 30.3588 23.7131 33.3644C22.4022 34.1549 21.084 34.96 19.7803 35.7869C20.6289 31.9183 22.0964 28.2125 24.126 24.8129H14.1526C13.4304 26.0587 12.7846 27.3473 12.2187 28.6716L12.1753 28.7659C11.3522 30.7128 10.7333 32.74 10.3284 34.815C10.0042 36.4462 9.8056 38.0999 9.73445 39.7616H13.7615C11.0017 41.6263 8.34224 43.6358 5.79435 45.7817V45.7744ZM61.9336 42.9457H54.1041L54.5314 39.7544H60.9775L61.9408 42.9457H61.9336ZM58.6671 60.977C55.3622 65.633 51.4667 69.8388 47.0785 73.4886C47.6073 73.4088 48.1287 73.3145 48.6502 73.213C50.7418 72.7904 52.7851 72.1562 54.7487 71.3199C56.6947 70.4893 58.5593 69.4792 60.3184 68.3026C62.035 67.1503 63.6338 65.8311 65.0915 64.3642C66.1696 63.3095 67.1693 62.1774 68.0828 60.977H58.6671ZM43.7323 72.1685C47.8313 68.8778 51.5354 65.1222 54.7704 60.977H43.7323V72.1685ZM40.56 60.977H29.5146C32.7539 65.1209 36.4602 68.8763 40.56 72.1685V60.977ZM26.1902 21.6578C29.4534 17.0755 33.2352 12.8868 37.46 9.17522C36.8372 9.26226 36.2215 9.3638 35.6131 9.48711C33.5171 9.90166 31.4706 10.5362 29.5074 11.3802C27.5622 12.2124 25.6977 13.2224 23.9377 14.3975C22.2211 15.5497 20.6223 16.869 19.1646 18.3359V18.3359C18.1225 19.3714 17.1544 20.4791 16.2675 21.6506L26.1902 21.6578Z" fill="#AB854F"/>
</g>
<defs>
<clipPath id="clip0_780_28">
<rect width="89" height="78" fill="white"/>
</clipPath>
</defs>
</svg>
