<svg width="14" height="14" viewBox="0 0 14 14" fill="none" xmlns="http://www.w3.org/2000/svg">
<g clip-path="url(#clip0_1131_351)">
<path d="M0.787276 -0.0001045H5.67269C5.78936 -0.000156082 5.90455 0.0261462 6.00983 0.076873C6.11511 0.1276 6.20779 0.201464 6.28109 0.293047C6.33928 0.362631 6.3841 0.442554 6.41325 0.528718C6.44439 0.61372 6.46021 0.703656 6.45997 0.794279V5.70198C6.45954 5.80928 6.43784 5.91541 6.39617 6.01412C6.35449 6.11283 6.29367 6.20214 6.21729 6.27679C6.07051 6.41838 5.87574 6.49814 5.67269 6.49981H0.787276C0.687734 6.49827 0.589442 6.47719 0.497888 6.43774C0.401624 6.40009 0.313814 6.34336 0.239648 6.2709C0.165482 6.19843 0.106465 6.1117 0.0660842 6.01583C0.0222043 5.91714 -0.00032313 5.81015 3.50173e-06 5.70198V0.794279C0.00121147 0.602433 0.0703053 0.417334 0.194828 0.272354L0.227868 0.240165C0.295535 0.170517 0.375025 0.113671 0.462569 0.0723212C0.564558 0.0254251 0.675199 0.000746811 0.787276 -0.0001045ZM8.32732 7.50228H13.2162C13.3344 7.50157 13.4512 7.52791 13.5579 7.5793C13.6629 7.63048 13.7555 7.70426 13.8291 7.79543C13.8859 7.86386 13.9306 7.94163 13.9613 8.02535C13.9924 8.11075 14.0082 8.20107 14.008 8.29206V13.1998C14.0077 13.3061 13.986 13.4114 13.9442 13.509C13.9024 13.6075 13.8416 13.6966 13.7653 13.7711C13.6924 13.842 13.6065 13.8978 13.5124 13.9355C13.4199 13.9741 13.3208 13.994 13.2207 13.9942H8.32732C8.22777 13.9935 8.12923 13.974 8.03679 13.9367C7.9437 13.8994 7.8586 13.8443 7.78614 13.7746C7.7092 13.7001 7.64764 13.611 7.60498 13.5125C7.56211 13.4139 7.53999 13.3074 7.54004 13.1998V8.29781C7.53974 8.20228 7.55713 8.10754 7.59131 8.01846C7.62415 7.92937 7.67236 7.84685 7.73373 7.77474L7.76563 7.74255C7.83357 7.673 7.91348 7.61652 8.00147 7.57585C8.10353 7.52783 8.2147 7.50272 8.32732 7.50228ZM13.2162 8.29436H8.32732V13.2055C8.74659 13.2055 13.2139 13.2055 13.2184 13.2055C13.2184 12.7917 13.2184 8.29666 13.2184 8.29436H13.2162ZM0.787276 7.50228H5.67269C5.78936 7.50223 5.90455 7.52853 6.00983 7.57926C6.11511 7.62998 6.20779 7.70385 6.28109 7.79543C6.33868 7.86329 6.38347 7.94122 6.41325 8.02535C6.44441 8.11075 6.46023 8.20107 6.45997 8.29206V13.1998C6.45971 13.3061 6.438 13.4114 6.39616 13.509C6.3553 13.608 6.29437 13.6973 6.21729 13.7711C6.07051 13.9127 5.87574 13.9925 5.67269 13.9942H0.787276C0.688088 13.9935 0.589908 13.974 0.497888 13.9367C0.404319 13.8997 0.318796 13.8446 0.246097 13.7746C0.169151 13.7004 0.107913 13.6112 0.0660842 13.5125C0.023112 13.4159 0.000604324 13.3114 3.50173e-06 13.2055V8.29781C0.000267923 8.20234 0.0176371 8.10769 0.051273 8.01846C0.0845615 7.92934 0.133156 7.84683 0.194828 7.77474L0.227868 7.74255C0.295284 7.6729 0.374847 7.61639 0.462569 7.57585C0.564268 7.52795 0.675044 7.50285 0.787276 7.50228ZM5.67269 8.29436H0.787276V13.2055C1.20541 13.2055 5.67383 13.2055 5.67725 13.2055C5.67725 12.7917 5.67725 8.29666 5.67725 8.29436H5.67269ZM8.32732 -0.0001045H13.2162C13.3344 -0.000808583 13.4512 0.0255252 13.5579 0.0769197C13.6629 0.128101 13.7555 0.201875 13.8291 0.293047C13.8865 0.363208 13.9312 0.442972 13.9613 0.528718C13.9924 0.61372 14.0082 0.703656 14.008 0.794279V5.70198C14.0078 5.80875 13.9861 5.91437 13.9442 6.01238C13.9022 6.11076 13.8414 6.19983 13.7653 6.27449C13.6896 6.34544 13.601 6.40088 13.5044 6.43774C13.4118 6.4758 13.3128 6.4957 13.2127 6.49637H8.32732C8.22763 6.49592 8.12897 6.47601 8.03679 6.43774C7.94398 6.4004 7.85896 6.34581 7.78614 6.27679C7.7092 6.20233 7.64764 6.11325 7.60498 6.01468C7.56202 5.91573 7.5399 5.80886 7.54004 5.70083V0.794279C7.53985 0.699135 7.55724 0.604788 7.59131 0.516072C7.62395 0.426888 7.67219 0.34434 7.73373 0.272354L7.76563 0.240165C7.83378 0.170575 7.91363 0.113745 8.00147 0.0723212C8.10381 0.0252671 8.21485 0.000585153 8.32732 -0.0001045ZM13.2162 0.79198H8.32732V5.70543C8.74659 5.70543 13.2139 5.70543 13.2184 5.70543C13.2184 5.29157 13.2184 0.795429 13.2184 0.794279L13.2162 0.79198ZM5.67611 0.79198H0.787276V5.70313C1.20541 5.70313 5.67383 5.70313 5.67725 5.70313C5.67725 5.28927 5.67725 0.793129 5.67725 0.79198H5.67611Z" fill="#AB854F"/>
</g>
<defs>
<clipPath id="clip0_1131_351">
<rect width="14" height="14" fill="white"/>
</clipPath>
</defs>
</svg>
