<svg width="132" height="154" viewBox="0 0 132 154" fill="none" xmlns="http://www.w3.org/2000/svg">
<g clip-path="url(#clip0_1455_4)">
<path d="M32.4334 16.3868V7.52312C32.4334 5.44923 33.2833 3.5677 34.6455 2.20614C36.0107 0.847591 37.8973 0 39.9767 0H97.677C98.6474 0 99.5154 0.435818 100.097 1.12411L131.099 32.8036C131.693 33.4137 131.991 34.2042 131.991 34.9947L132 130.09C132 132.14 131.15 134.019 129.782 135.386L129.77 135.401C128.393 136.766 126.509 137.613 124.457 137.613H99.5666V146.477C99.5666 148.533 98.7197 150.411 97.3515 151.779L97.3395 151.791C95.9622 153.155 94.0847 154 92.0233 154H7.54329C5.46384 154 3.57726 153.152 2.21205 151.794C0.849863 150.432 0 148.551 0 146.477V23.9129C0 21.836 0.849863 19.9544 2.21205 18.5959C3.57726 17.2343 5.46384 16.3868 7.54329 16.3868H32.4334ZM125.68 39.2386H101.917C99.3436 39.2386 97.0019 38.1837 95.3022 36.4915L95.2901 36.4795C93.5904 34.7843 92.5356 32.4489 92.5356 29.8821V6.30283H39.9767C39.6452 6.30283 39.3378 6.44109 39.1148 6.66351C38.8948 6.88592 38.7532 7.1925 38.7532 7.52312V16.3868H56.1362C57.1036 16.3868 57.9715 16.8226 58.5501 17.5079L98.6534 58.2523C99.2562 58.8625 99.5575 59.662 99.5575 60.4555L99.5666 131.307H124.457C124.791 131.307 125.096 131.172 125.313 130.956L125.325 130.944C125.542 130.727 125.68 130.424 125.68 130.09V39.2386ZM122.157 32.9358L98.8553 9.26038V29.8821C98.8553 30.7237 99.1989 31.4901 99.7504 32.0431C100.305 32.5932 101.073 32.9358 101.917 32.9358H122.157ZM93.2469 65.1773H61.1811C58.0951 65.1773 55.2893 63.9179 53.2581 61.8952C51.2299 59.8724 49.9671 57.0711 49.9671 53.9933V22.6926H7.54329C7.21178 22.6926 6.90438 22.8308 6.68137 23.0533C6.46137 23.2727 6.31973 23.5792 6.31973 23.9129V146.477C6.31973 146.808 6.46137 147.114 6.68137 147.337C6.90438 147.559 7.21178 147.697 7.54329 147.697H92.0233C92.3638 147.697 92.6682 147.562 92.8822 147.349L92.8973 147.333C93.1112 147.12 93.2469 146.817 93.2469 146.477V65.1773V65.1773ZM89.5882 58.8745L56.2869 25.04V53.9933C56.2869 55.3308 56.8414 56.5541 57.7274 57.4378C58.6164 58.3245 59.84 58.8745 61.1811 58.8745H89.5882V58.8745Z" fill="#C69958"/>
</g>
<defs>
<clipPath id="clip0_1455_4">
<rect width="132" height="154" fill="white"/>
</clipPath>
</defs>
</svg>
