<svg width="123" height="122" viewBox="0 0 123 122" fill="none" xmlns="http://www.w3.org/2000/svg">
<g clip-path="url(#clip0_1429_7)">
<path fill-rule="evenodd" clip-rule="evenodd" d="M30.27 48.9601C30.27 48.9701 30.27 48.9701 30.27 48.9601V48.9601ZM108.82 3.60006V33.4701H113.22V27.5601H120.69C121.9 27.5601 122.89 28.5601 122.89 29.7601V63.4001C122.89 64.6001 121.89 65.5901 120.7 65.5901H113.23V62.4101H108.83V116.64C108.32 121.35 97.02 122.2 95.54 116.64V112.21C95.14 112.27 94.74 112.3 94.32 112.3H83.82L80.27 121.16H70.79L67.4 112.3H33.06L29.51 121.16H20.03L16.64 112.3H8.44C3.8 112.3 0 108.5 0 103.86V16.6601C0 12.0201 3.8 8.22006 8.44 8.22006H94.31C94.72 8.22006 95.13 8.25006 95.53 8.31006V3.60006C98.17 -0.979942 105.92 -1.41994 108.82 3.60006ZM108.82 38.9301V56.9601H113.22V38.9301H108.82ZM95.52 105.49V98.9601H6.38V101.69C6.38 104.14 8.36 106.12 10.81 106.12H93.23C94.07 106.13 94.85 105.9 95.52 105.49ZM95.52 94.4201V14.8801C94.85 14.4701 94.06 14.2301 93.21 14.2301H10.81C9.63 14.2301 8.5 14.6901 7.67 15.5301C6.88 16.3301 6.38 17.4401 6.38 18.6601V94.4001H16.96C16.91 94.3601 16.86 94.3101 16.82 94.2601C16.18 93.5601 15.82 92.5801 15.75 91.3301V91.2701L15.74 69.7001L15.76 69.5001C16.04 68.1401 16.64 66.8701 17.38 65.8001C18.1 64.7601 18.98 63.8801 19.81 63.3101L20.49 58.1801C20.49 58.0301 20.52 57.8701 20.56 57.7301L20.49 57.6801L21.13 52.9301L20.69 52.0101L20.6 51.5801V49.1301C20.59 48.3201 20.59 47.9801 21.14 47.6101C21.49 47.3701 21.74 47.3901 22.16 47.4101C22.28 47.4201 22.41 47.4401 22.64 47.4401L28.33 47.4501L28.71 47.4401C29.17 47.4101 29.43 47.4001 29.78 47.7001C30.21 48.0501 30.21 48.3201 30.2 48.9301C30.21 48.8901 30.21 48.8201 30.2 49.1501L30.19 51.5901L30.03 52.1201L29.48 53.0001L31.1 63.6201C32.02 64.2101 32.71 65.0401 33.28 66.0201C33.89 67.0901 34.34 68.2701 34.76 69.4401L34.83 69.7801V91.3001V91.3801C34.72 92.6701 34.36 93.7101 33.68 94.4201H42.12C41.85 94.1701 41.62 93.8601 41.45 93.5201C41.11 92.8601 40.96 92.0301 41 91.0301V54.1601L41.02 54.0401C41.2 53.2401 41.45 52.5001 41.75 51.8101C42.06 51.1201 42.43 50.4901 42.85 49.9401C43.27 49.4001 43.75 48.9201 44.29 48.5201C44.83 48.1101 45.42 47.7701 46.08 47.4901H46.09C46.32 47.4001 46.53 47.2801 46.7 47.1401C46.87 47.0001 47.01 46.8401 47.13 46.6501C47.44 46.1201 47.44 45.6501 47.43 45.0501V44.8401V34.3101C47.28 34.2301 47.15 34.1201 47.03 34.0101C46.71 33.6901 46.5 33.2401 46.5 32.7501V30.7201C46.5 30.2301 46.71 29.7801 47.03 29.4601L47.04 29.4501C47.15 29.3401 47.27 29.2401 47.41 29.1701V27.8801C47.41 27.2801 47.66 26.7301 48.06 26.3301C48.46 25.9301 49.01 25.6801 49.62 25.6801H54.28C54.88 25.6801 55.43 25.9301 55.83 26.3301C56.23 26.7301 56.48 27.2801 56.48 27.8801V29.1701C56.62 29.2501 56.74 29.3501 56.85 29.4601C57.17 29.7801 57.38 30.2301 57.38 30.7201V32.7401C57.38 33.2301 57.18 33.6801 56.85 34.0001C56.68 34.1701 56.49 34.3001 56.27 34.3901V42.3501H56.24V44.6501V44.8501C56.23 45.5601 56.23 46.2501 56.61 46.8201C57.1 47.6001 59.46 48.0901 61.04 50.0901C61.98 51.2801 62.61 52.7701 62.73 54.7201V54.7501V91.2901V91.3001C62.71 92.3801 62.47 93.2601 61.92 93.9301C61.78 94.1001 61.62 94.2601 61.44 94.4001H73.43C73.39 94.2101 73.37 94.0501 73.37 93.9501C73.37 93.6301 73.63 92.5301 73.96 92.5301H77.06V85.4501C71.81 85.2401 68.87 80.5201 68.87 75.3401V66.7701C68.87 66.4501 69.13 66.1801 69.46 66.1801H87.36C87.68 66.1801 87.95 66.4401 87.95 66.7701V75.3401C87.95 80.3701 85.21 85.0401 80.11 85.4201V92.5201H83.69C84.02 92.5201 84.28 93.6201 84.28 93.9401C84.28 94.0401 84.26 94.2001 84.21 94.3901H95.52V94.4201ZM48.29 30.3001H55.57C55.94 30.3001 56.25 30.6101 56.25 30.9801V32.4801C56.25 32.8601 55.94 33.1601 55.57 33.1601H48.29C47.92 33.1601 47.61 32.8501 47.61 32.4801V30.9701C47.61 30.6001 47.92 30.3001 48.29 30.3001ZM55.18 41.8001V35.1601C55.18 34.9001 54.96 34.6801 54.7 34.6801H49.01C48.75 34.6801 48.53 34.9001 48.53 35.1601V41.8001H55.18ZM49.72 26.9901H54.14C54.74 26.9901 55.23 27.4801 55.23 28.0801L55.2 28.9301H48.61L48.64 28.0801C48.63 27.4801 49.12 26.9901 49.72 26.9901ZM49.35 58.9301H60.69V84.0301H49.35C48.54 84.0301 47.87 83.4001 47.87 82.6201V60.3401C47.88 59.5701 48.54 58.9301 49.35 58.9301ZM25.33 74.3701C22.06 74.3701 19.43 77.0101 19.43 80.2801C19.43 83.5501 22.07 86.1801 25.34 86.1801C28.61 86.1801 31.24 83.5401 31.24 80.2701C31.23 77.0001 28.59 74.3601 25.33 74.3701ZM25.33 76.6301L24.28 79.2001L21.51 79.4201L23.63 81.2101L22.98 83.9201L25.34 82.4601L27.7 83.9201L27.03 81.2201L29.16 79.4201L26.39 79.2201L25.34 76.6501L25.33 76.6301ZM27.93 55.5901L22.72 56.6501L23.21 52.9301L23.12 52.3901L22.64 51.4001V49.4301H22.72H28.27L28.26 51.3201L27.66 52.2501L27.5 52.9301L27.93 55.5901ZM32.81 69.7301L17.75 69.7201C17.99 68.6901 18.46 67.7201 19.02 66.9101C19.7 65.9101 20.51 65.1501 21.24 64.7501L21.67 64.5001L21.73 64.0101L22.34 59.3901L28.32 58.1701L29.26 64.3601L29.34 64.8501L29.8 65.0901C30.54 65.4701 31.13 66.1701 31.61 67.0001C32.07 67.8201 32.46 68.7601 32.81 69.7301ZM17.75 72.3801H32.9V87.4701H17.75V72.3801ZM17.74 90.1201H32.89L32.9 91.2701C32.82 92.1001 32.63 92.7201 32.29 93.0801C32.01 93.3801 31.55 93.4901 30.89 93.4001L30.75 93.3801H19.67C19.03 93.3801 18.57 93.2401 18.28 92.9201C17.97 92.5901 17.8 92.0501 17.75 91.3001V90.1101L17.74 90.1201ZM22.22 49.3601C22.2 49.3701 22.22 49.3601 22.3 49.3001C22.42 49.2101 22.31 49.2901 22.22 49.3601Z" fill="#C69958"/>
</g>
<defs>
<clipPath id="clip0_1429_7">
<rect width="122.88" height="121.17" fill="white"/>
</clipPath>
</defs>
</svg>
