<svg width="13" height="13" viewBox="0 0 13 13" fill="none" xmlns="http://www.w3.org/2000/svg">
<circle cx="6.5" cy="6.5" r="6.25" stroke="#AB854F" stroke-width="0.5"/>
<g clip-path="url(#clip0_1131_404)">
<path d="M5.0275 9.82486V8.75291C5.0275 8.65623 5.10995 8.57775 5.21173 8.57775H5.43866C5.44532 8.5731 5.45348 8.56588 5.46302 8.55621C5.47483 8.54428 5.48356 8.53377 5.48902 8.52482V6.59558C5.48324 6.58603 5.47407 6.57475 5.46158 6.56186C5.45907 6.5593 5.45668 6.55661 5.45436 6.55393C5.44845 6.54814 5.44312 6.5436 5.43841 6.54026H5.18429C5.08251 6.5402 5 6.46178 5 6.3651V5.22482C5 5.12814 5.08251 5.04972 5.18429 5.04972H7.39718C7.56031 5.04972 7.68307 5.11519 7.76564 5.24535C7.83031 5.34728 7.86259 5.4883 7.86259 5.66788V8.52303C7.8678 8.53019 7.87684 8.53992 7.88965 8.55215C7.90233 8.56415 7.9127 8.5728 7.92067 8.57782H8.1491C8.25083 8.57782 8.3334 8.65623 8.3334 8.75297V9.82492C8.3334 9.9216 8.25089 10.0001 8.1491 10.0001H5.21179C5.11001 10 5.0275 9.92154 5.0275 9.82486ZM5.39602 8.92807V9.64977H7.96481V8.92807H7.90755C7.85329 8.92807 7.80017 8.91417 7.74781 8.88671C7.70699 8.86535 7.66756 8.83628 7.62913 8.79976C7.59095 8.76354 7.56025 8.72552 7.53739 8.68571C7.5087 8.63582 7.49413 8.58557 7.49413 8.53514V5.66788C7.49413 5.5527 7.47962 5.47189 7.45043 5.42594C7.43944 5.40863 7.42173 5.39992 7.39718 5.39992H5.36852V6.18989H5.45329C5.5076 6.18989 5.56148 6.20451 5.61466 6.23351C5.65114 6.25344 5.68675 6.2806 5.72141 6.31479C5.72518 6.31808 5.72875 6.32148 5.73227 6.32512C5.76894 6.36313 5.79751 6.40055 5.8176 6.4372C5.84404 6.48554 5.8576 6.53411 5.8576 6.58287V8.53503C5.8576 8.58086 5.84611 8.6261 5.82363 8.67085C5.82175 8.67515 5.81968 8.67939 5.81735 8.68357C5.79695 8.72092 5.768 8.75822 5.73089 8.79558C5.6934 8.83342 5.6546 8.86344 5.61429 8.88522C5.56186 8.91357 5.50829 8.92801 5.45335 8.92801H5.39602V8.92807ZM6.67125 4.6553C6.5149 4.6553 6.37111 4.63334 6.23962 4.5893C6.10519 4.54424 5.98576 4.47645 5.88115 4.3858C5.87813 4.38323 5.87525 4.38054 5.87248 4.3778C5.76957 4.28792 5.69227 4.18378 5.64022 4.06562C5.58716 3.94513 5.56085 3.81204 5.56085 3.66678C5.56085 3.52147 5.58716 3.38749 5.64034 3.26544C5.69416 3.14173 5.77428 3.03323 5.88115 2.94055L5.88391 2.93817C5.98727 2.84793 6.1055 2.78008 6.23893 2.73442C6.3713 2.68919 6.51534 2.66669 6.67125 2.66669C6.83074 2.66669 6.97686 2.68895 7.10966 2.73377C7.24548 2.7796 7.36566 2.84847 7.47039 2.94061L7.47046 2.94055C7.57726 3.03317 7.65745 3.14173 7.71126 3.26538C7.76438 3.38743 7.79075 3.52147 7.79075 3.66678C7.79075 3.81204 7.76445 3.94519 7.71132 4.06568C7.65776 4.18718 7.57758 4.29395 7.47014 4.38556L7.47046 4.3858C7.36591 4.47639 7.24541 4.54412 7.10891 4.5893C6.97572 4.63334 6.82992 4.6553 6.67125 4.6553ZM6.362 4.25957C6.45255 4.28989 6.55559 4.30505 6.67125 4.30505C6.79068 4.30505 6.89629 4.28995 6.98803 4.25957C7.0765 4.23033 7.15474 4.18623 7.22287 4.12721L7.22319 4.12751L7.22432 4.12649C7.29006 4.07063 7.33904 4.00558 7.37169 3.93152C7.40553 3.85471 7.4223 3.76633 7.4223 3.66673C7.4223 3.56563 7.40553 3.47593 7.37162 3.39805C7.3391 3.32333 7.28962 3.25685 7.22293 3.19902L7.223 3.19896L7.22155 3.19771C7.15393 3.13803 7.07594 3.09327 6.9874 3.06343C6.89516 3.03234 6.78986 3.01688 6.67131 3.01688C6.55521 3.01688 6.45242 3.0321 6.36276 3.06278C6.2773 3.09196 6.20088 3.136 6.13332 3.19496C6.13181 3.19634 6.1303 3.19771 6.12873 3.19902C6.06205 3.25691 6.01257 3.32333 5.98005 3.39805C5.94614 3.47593 5.92937 3.56563 5.92937 3.66667C5.92937 3.76627 5.9462 3.85459 5.97998 3.93146C6.01125 4.00248 6.05765 4.06526 6.11932 4.11951C6.12252 4.12196 6.12566 4.12446 6.12873 4.12715C6.19674 4.18617 6.27447 4.23021 6.362 4.25957Z" fill="#AB854F"/>
</g>
<defs>
<clipPath id="clip0_1131_404">
<rect width="3.33333" height="7.33333" fill="white" transform="translate(5 2.66669)"/>
</clipPath>
</defs>
</svg>
