<svg width="65" height="64" viewBox="0 0 65 64" fill="none" xmlns="http://www.w3.org/2000/svg">
<g clip-path="url(#clip0_1279_357)">
<path d="M4.58936 0H60.4112C61.6834 0 62.8217 0.515559 63.6506 1.3371C64.4795 2.15812 65 3.30398 65 4.54572V59.4548C65 60.7149 64.48 61.8424 63.6506 62.6634C62.8212 63.4844 61.6643 64.0005 60.4112 64.0005H4.58936C3.31665 64.0005 2.17883 63.485 1.34993 62.6629C0.520508 61.8419 0 60.696 0 59.4548V4.54519C0 3.28511 0.520508 2.15812 1.34993 1.3371C2.17936 0.515559 3.33622 0 4.58936 0ZM4.81205 46.2761L23.5435 28.5145C24.2951 27.8265 25.4716 27.903 26.1465 28.6481C26.1661 28.6669 26.1661 28.6863 26.1851 28.6863L42.8261 48.1864L45.3715 32.6777C45.545 31.6843 46.4897 30.9969 47.4926 31.1693C47.8783 31.2264 48.2253 31.4176 48.495 31.666L60.1694 43.813V5.64442C60.1694 5.39607 60.0726 5.18597 59.8991 5.03351C59.7452 4.88052 59.5135 4.76577 59.2824 4.76577H5.67957C5.42883 4.76577 5.21672 4.86113 5.06279 5.03351C4.90833 5.18597 4.79248 5.41546 4.79248 5.64442V46.2761H4.81205ZM47.8857 10.4086C49.718 10.4086 51.3954 11.1537 52.5909 12.3378C53.8059 13.5407 54.5385 15.1833 54.5385 16.9982C54.5385 18.8126 53.7869 20.4741 52.5909 21.6582C51.3763 22.8617 49.718 23.5873 47.8857 23.5873C46.0544 23.5873 44.3765 22.8428 43.181 21.6582C41.9659 20.4552 41.2333 18.8126 41.2333 16.9982C41.2333 15.1838 41.985 13.5224 43.181 12.3378C44.396 11.1343 46.0544 10.4086 47.8857 10.4086Z" fill="#ABABAB"/>
</g>
<defs>
<clipPath id="clip0_1279_357">
<rect width="65" height="64" fill="white"/>
</clipPath>
</defs>
</svg>
