<svg width="15" height="12" viewBox="0 0 15 12" fill="none" xmlns="http://www.w3.org/2000/svg">
<g clip-path="url(#clip0_1131_383)">
<path fill-rule="evenodd" clip-rule="evenodd" d="M4.31763 -2.66875e-05H14.8157C14.8658 0.000280537 14.9137 0.0195163 14.9491 0.0535141C14.9845 0.087512 15.0046 0.133535 15.0049 0.181614V2.36833C15.0036 2.41602 14.9833 2.4614 14.948 2.49503C14.9128 2.52865 14.8654 2.54791 14.8157 2.5488H4.31763C4.26797 2.54819 4.22052 2.52899 4.1854 2.49527C4.15028 2.46156 4.13028 2.41601 4.12964 2.36833V0.181614C4.12948 0.157816 4.13423 0.134223 4.1436 0.112192C4.15298 0.0901607 4.1668 0.0701274 4.18427 0.053245C4.20174 0.0363626 4.22252 0.0229645 4.24541 0.0138219C4.2683 0.00467932 4.29284 -2.71893e-05 4.31763 -2.66875e-05ZM4.31763 9.45115H14.8157C14.8656 9.45145 14.9133 9.47052 14.9487 9.50427C14.9841 9.53801 15.0042 9.58374 15.0049 9.63161V11.8195C15.0036 11.8672 14.9833 11.9126 14.948 11.9462C14.9128 11.9798 14.8654 11.9991 14.8157 12H4.31763C4.26797 11.9994 4.22052 11.9802 4.1854 11.9464C4.15028 11.9127 4.13028 11.8672 4.12964 11.8195V9.63161C4.12964 9.58375 4.14945 9.53785 4.1847 9.504C4.21996 9.47016 4.26777 9.45115 4.31763 9.45115ZM0.189213 9.45115H2.14234C2.19221 9.45145 2.23997 9.47052 2.27535 9.50427C2.31073 9.53801 2.33091 9.58374 2.33155 9.63161V11.8195C2.3303 11.8672 2.30993 11.9126 2.27468 11.9462C2.23943 11.9798 2.19202 11.9991 2.14234 12H0.189213C0.13934 11.9997 0.0915808 11.9806 0.0562004 11.9468C0.0208201 11.9131 0.000642404 11.8674 3.98966e-06 11.8195V9.63161C3.46701e-06 9.60782 0.00490608 9.58425 0.0144296 9.56228C0.0239532 9.54031 0.0379095 9.52036 0.0554954 9.50359C0.0730812 9.48681 0.0939492 9.47355 0.116898 9.46454C0.139847 9.45554 0.164423 9.45099 0.189213 9.45115ZM4.31763 7.27497H14.8157C14.8658 7.27467 14.9137 7.25543 14.9491 7.22143C14.9845 7.18744 15.0046 7.14141 15.0049 7.09333V4.90661C15.0039 4.85872 14.9837 4.81304 14.9484 4.77917C14.9131 4.7453 14.8656 4.72587 14.8157 4.72497H4.31763C4.26786 4.72588 4.22041 4.74535 4.18532 4.77925C4.15024 4.81315 4.13027 4.85883 4.12964 4.90661V7.09333C4.12964 7.1413 4.14941 7.18733 4.18463 7.22136C4.21985 7.25539 4.26766 7.27466 4.31763 7.27497ZM0.189213 7.27497H2.14234C2.19242 7.27467 2.24036 7.25543 2.27578 7.22143C2.31119 7.18744 2.33123 7.14141 2.33155 7.09333V4.90661C2.33061 4.85872 2.31037 4.81304 2.27509 4.77917C2.23981 4.7453 2.19223 4.72587 2.14234 4.72497H0.189213C0.139228 4.72558 0.0914691 4.74491 0.0561217 4.77885C0.0207744 4.81278 0.000636783 4.85863 3.98966e-06 4.90661V7.09333C3.98966e-06 7.14151 0.0199385 7.18771 0.055422 7.22177C0.0909056 7.25584 0.139032 7.27497 0.189213 7.27497ZM0.189213 -2.66875e-05H2.14234C2.19242 0.000280537 2.24036 0.0195163 2.27578 0.0535141C2.31119 0.087512 2.33123 0.133535 2.33155 0.181614V2.36833C2.3303 2.41602 2.30993 2.4614 2.27468 2.49503C2.23943 2.52865 2.19202 2.54791 2.14234 2.5488H0.189213C0.13934 2.5485 0.0915808 2.52942 0.0562004 2.49568C0.0208201 2.46193 0.000642404 2.41621 3.98966e-06 2.36833V0.181614C-0.000158182 0.157717 0.00462514 0.134027 0.0140763 0.111919C0.0235276 0.0898113 0.0374584 0.0697255 0.0550605 0.0528276C0.0726626 0.0359296 0.0935853 0.0225559 0.116614 0.0134828C0.139644 0.00440961 0.16432 -0.000182372 0.189213 -2.66875e-05Z" fill="#AB854F"/>
</g>
<defs>
<clipPath id="clip0_1131_383">
<rect width="15" height="12" fill="white"/>
</clipPath>
</defs>
</svg>
