<svg width="2215" height="1296" viewBox="0 0 2215 1296" fill="none" xmlns="http://www.w3.org/2000/svg">
<rect width="2215" height="1296" fill="#5F217C"/>
<rect x="1388" y="727" width="454" height="60" fill="#EF1552"/>
<rect x="1587" y="1096" width="454" height="60" fill="#EF1552"/>
<rect x="1948" y="727" width="333" height="60" transform="rotate(90 1948 727)" fill="#EF1552"/>
<rect x="1448" y="939" width="333" height="60" transform="rotate(90 1448 939)" fill="#EF1552"/>
<rect x="2054" y="727" width="333" height="60" transform="rotate(90 2054 727)" fill="#EF1552"/>
<rect x="1554" y="939" width="333" height="60" transform="rotate(90 1554 939)" fill="#EF1552"/>
<rect x="1388" y="851" width="454" height="60" fill="#EF1552"/>
<rect x="1587" y="1212" width="454" height="60" fill="#EF1552"/>
<rect x="416" y="188" width="454" height="60" fill="#EF1552"/>
<rect x="615" y="656" width="454" height="60" fill="#EF1552"/>
<rect x="976" y="188" width="260" height="60" transform="rotate(90 976 188)" fill="#EF1552"/>
<rect x="476" y="549" width="260" height="60" transform="rotate(90 476 549)" fill="#EF1552"/>
<rect x="1082" y="188" width="260" height="60" transform="rotate(90 1082 188)" fill="#EF1552"/>
<rect x="582" y="549" width="260" height="60" transform="rotate(90 582 549)" fill="#EF1552"/>
<rect x="416" y="281" width="454" height="60" fill="#EF1552"/>
<rect x="615" y="749" width="454" height="60" fill="#EF1552"/>
<path d="M77.2632 480C76.6528 480 76.1442 479.634 75.7373 478.901C75.3711 478.169 75.188 477.498 75.188 476.887C75.188 476.195 75.3304 475.667 75.6152 475.3C75.9001 474.934 76.429 474.71 77.2021 474.629C79.3994 474.507 81.2101 474.303 82.6343 474.019C84.0584 473.734 85.2791 473.184 86.2964 472.371C87.3543 471.557 87.8833 470.356 87.8833 468.77V404.683C87.8833 403.055 87.3136 401.834 86.1743 401.021C85.0757 400.207 83.7939 399.678 82.3291 399.434C80.8643 399.149 79.0332 398.925 76.8359 398.762C75.9408 398.681 75.3507 398.518 75.0659 398.274C74.7811 397.989 74.6387 397.399 74.6387 396.504C74.6387 395.894 74.8218 395.243 75.188 394.551C75.5949 393.818 76.1035 393.432 76.7139 393.391H109.917L124.443 436.36L131.768 455.281L150.261 402.241C151.604 398.416 152.438 395.466 152.764 393.391H182.61C183.22 393.391 183.708 393.757 184.075 394.49C184.482 395.222 184.685 395.894 184.685 396.504C184.685 397.196 184.543 397.725 184.258 398.091C183.973 398.457 183.444 398.681 182.671 398.762C180.189 398.966 178.093 399.373 176.384 399.983C174.675 400.553 173.821 401.448 173.821 402.668L173.76 468.708C173.76 470.295 174.228 471.496 175.164 472.31C176.14 473.123 177.178 473.652 178.276 473.896C179.416 474.141 181.043 474.385 183.159 474.629C184.054 474.71 184.644 474.893 184.929 475.178C185.214 475.422 185.356 475.992 185.356 476.887C185.356 477.498 185.153 478.169 184.746 478.901C184.38 479.634 183.892 480 183.281 480H149.285C148.674 480 148.166 479.634 147.759 478.901C147.393 478.169 147.209 477.498 147.209 476.887C147.209 476.195 147.352 475.667 147.637 475.3C147.922 474.934 148.451 474.71 149.224 474.629C151.746 474.425 153.923 474.019 155.754 473.408C157.626 472.798 158.562 471.903 158.562 470.723L158.623 401.814H156.548L129.326 480H126.091L96.062 401.814H93.8037V468.708C93.8037 470.295 94.4141 471.516 95.6348 472.371C96.8555 473.184 98.2389 473.734 99.7852 474.019C101.331 474.263 103.244 474.466 105.522 474.629C106.418 474.71 107.008 474.893 107.292 475.178C107.577 475.422 107.72 475.992 107.72 476.887C107.72 477.498 107.516 478.169 107.109 478.901C106.743 479.634 106.255 480 105.645 480H77.2632ZM289.592 474.629C290.487 474.71 291.077 474.893 291.362 475.178C291.647 475.422 291.79 475.992 291.79 476.887C291.79 477.498 291.586 478.169 291.179 478.901C290.813 479.634 290.325 480 289.714 480H256.633C256.023 480 255.514 479.634 255.107 478.901C254.741 478.169 254.558 477.498 254.558 476.887C254.558 476.195 254.701 475.667 254.985 475.3C255.27 474.934 255.799 474.71 256.572 474.629L259.075 474.507C261.15 474.466 262.615 474.364 263.469 474.202C264.324 473.998 264.751 473.551 264.751 472.859C264.751 472.533 264.69 472.228 264.568 471.943L257.122 450.215L227.825 450.154L220.317 471.943C220.236 472.147 220.195 472.391 220.195 472.676C220.195 473.408 220.643 473.876 221.538 474.08C222.433 474.283 223.959 474.425 226.116 474.507C226.726 474.507 227.723 474.548 229.106 474.629C229.88 474.71 230.409 474.934 230.693 475.3C230.978 475.667 231.121 476.195 231.121 476.887C231.121 477.498 230.917 478.169 230.51 478.901C230.144 479.634 229.656 480 229.045 480H203.228C202.576 480 202.068 479.695 201.702 479.084C201.335 478.474 201.152 477.742 201.152 476.887C201.152 475.992 201.295 475.422 201.58 475.178C201.864 474.893 202.454 474.71 203.35 474.629C203.675 474.588 204.224 474.568 204.998 474.568C206.3 474.527 207.358 474.425 208.171 474.263C209.026 474.059 209.86 473.632 210.674 472.981C211.488 472.33 212.159 471.313 212.688 469.929L241.13 392.048H252.361L280.132 469.929C280.62 471.313 281.271 472.35 282.085 473.042C282.899 473.693 283.733 474.1 284.587 474.263C285.483 474.425 286.581 474.527 287.883 474.568C288.656 474.568 289.226 474.588 289.592 474.629ZM243.328 407.49L229.595 444.966H255.352L243.328 407.49ZM351.226 481.831C343.454 481.831 336.211 480.387 329.497 477.498C322.824 474.609 317.351 469.827 313.079 463.154C308.847 456.44 306.731 447.692 306.731 436.909C306.731 426.777 308.908 418.314 313.262 411.519C317.616 404.683 323.109 399.657 329.741 396.443C336.374 393.188 343.108 391.56 349.944 391.56C356.169 391.56 361.174 391.987 364.958 392.842C368.783 393.656 372.344 394.714 375.64 396.016L378.203 396.931L379.424 416.157C379.505 416.808 379.139 417.378 378.325 417.866C377.552 418.354 376.84 418.599 376.189 418.599L375.457 418.66C374.724 418.66 374.073 418.517 373.503 418.232C372.934 417.948 372.588 417.5 372.466 416.89C371.042 411.071 368.539 406.371 364.958 402.791C361.378 399.21 356.332 397.419 349.822 397.419C345.509 397.419 341.562 398.355 337.981 400.227C334.4 402.058 331.348 405.883 328.826 411.702C326.344 417.52 325.103 425.923 325.103 436.909C325.103 447.326 326.486 455.444 329.253 461.262C332.061 467.04 335.397 470.946 339.263 472.981C343.128 475.015 347.096 476.033 351.165 476.033C357.431 476.033 362.354 474.181 365.935 470.479C369.516 466.735 371.876 461.913 373.015 456.013C373.178 455.24 373.442 454.711 373.809 454.426C374.215 454.141 374.765 453.999 375.457 453.999C376.148 453.999 376.982 454.202 377.959 454.609C378.936 454.976 379.424 455.464 379.424 456.074L377.532 473.408C377.45 474.059 376.169 475.097 373.687 476.521C371.204 477.904 367.97 479.125 363.982 480.183C359.994 481.282 355.742 481.831 351.226 481.831ZM456.926 480.61C457.781 485.9 460.141 490.356 464.006 493.977C467.872 497.598 474.118 499.389 482.744 499.348V503.987C481.686 504.475 480.12 504.902 478.044 505.269C475.969 505.675 473.63 505.879 471.025 505.879C463.132 505.879 456.214 504.17 450.273 500.752C444.373 497.375 440.569 490.864 438.86 481.221C431.698 480.081 425.493 477.416 420.244 473.225C415.036 468.993 411.048 463.683 408.281 457.295C405.514 450.866 404.131 443.867 404.131 436.299C404.131 427.917 405.84 420.328 409.258 413.533C412.716 406.737 417.66 401.387 424.089 397.48C430.559 393.534 438.107 391.56 446.733 391.56C455.36 391.56 462.847 393.534 469.194 397.48C475.542 401.387 480.384 406.737 483.721 413.533C487.098 420.287 488.787 427.876 488.787 436.299C488.787 443.501 487.525 450.174 485.002 456.318C482.48 462.463 478.818 467.671 474.016 471.943C469.215 476.175 463.518 479.064 456.926 480.61ZM422.014 436.421C422.014 449.401 423.886 459.248 427.629 465.962C431.373 472.676 437.7 476.033 446.611 476.033C452.633 476.033 457.415 474.486 460.955 471.394C464.535 468.261 467.078 463.805 468.584 458.027C470.09 452.209 470.842 445.007 470.842 436.421C470.842 427.876 470.049 420.735 468.462 414.998C466.916 409.26 464.332 404.866 460.71 401.814C457.13 398.762 452.308 397.236 446.245 397.236C440.182 397.236 435.361 398.762 431.78 401.814C428.24 404.866 425.717 409.26 424.211 414.998C422.747 420.694 422.014 427.835 422.014 436.421ZM589.116 448.506C589.116 455.586 587.834 461.608 585.271 466.572C582.748 471.536 579.086 475.321 574.285 477.925C569.524 480.488 563.827 481.77 557.195 481.77C545.924 481.77 537.257 478.861 531.194 473.042C525.172 467.223 522.181 458.821 522.222 447.834L522.283 404.683C522.283 403.055 521.855 401.834 521.001 401.021C520.146 400.166 519.129 399.617 517.949 399.373C516.81 399.128 515.365 398.925 513.616 398.762C512.721 398.681 512.131 398.518 511.846 398.274C511.561 397.989 511.418 397.399 511.418 396.504C511.418 395.894 511.602 395.222 511.968 394.49C512.375 393.757 512.883 393.391 513.494 393.391H547.063C547.673 393.391 548.162 393.757 548.528 394.49C548.935 395.222 549.138 395.894 549.138 396.504C549.138 397.196 548.975 397.745 548.65 398.152C548.365 398.518 547.856 398.722 547.124 398.762C544.52 398.966 542.302 399.373 540.471 399.983C538.64 400.553 537.725 401.448 537.725 402.668L537.664 448.018C537.664 457.743 539.271 464.843 542.485 469.319C545.7 473.795 550.684 476.033 557.439 476.033C573.878 476.033 582.097 466.898 582.097 448.628V404.072C582.097 402.323 581.019 401.082 578.862 400.349C576.746 399.617 574.244 399.088 571.355 398.762C570.46 398.681 569.87 398.518 569.585 398.274C569.3 397.989 569.158 397.399 569.158 396.504C569.158 395.894 569.341 395.222 569.707 394.49C570.114 393.757 570.623 393.391 571.233 393.391H599.675C600.286 393.391 600.774 393.757 601.14 394.49C601.547 395.222 601.75 395.894 601.75 396.504C601.75 397.196 601.588 397.745 601.262 398.152C600.977 398.518 600.469 398.722 599.736 398.762C596.481 398.925 593.918 399.535 592.046 400.593C590.174 401.611 589.238 403.055 589.238 404.927L589.116 448.506ZM704.46 474.629C705.356 474.71 705.946 474.893 706.23 475.178C706.515 475.422 706.658 475.992 706.658 476.887C706.658 477.498 706.454 478.169 706.047 478.901C705.681 479.634 705.193 480 704.583 480H671.501C670.891 480 670.382 479.634 669.976 478.901C669.609 478.169 669.426 477.498 669.426 476.887C669.426 476.195 669.569 475.667 669.854 475.3C670.138 474.934 670.667 474.71 671.44 474.629L673.943 474.507C676.018 474.466 677.483 474.364 678.337 474.202C679.192 473.998 679.619 473.551 679.619 472.859C679.619 472.533 679.558 472.228 679.436 471.943L671.99 450.215L642.693 450.154L635.186 471.943C635.104 472.147 635.063 472.391 635.063 472.676C635.063 473.408 635.511 473.876 636.406 474.08C637.301 474.283 638.827 474.425 640.984 474.507C641.594 474.507 642.591 474.548 643.975 474.629C644.748 474.71 645.277 474.934 645.562 475.3C645.846 475.667 645.989 476.195 645.989 476.887C645.989 477.498 645.785 478.169 645.378 478.901C645.012 479.634 644.524 480 643.914 480H618.096C617.445 480 616.936 479.695 616.57 479.084C616.204 478.474 616.021 477.742 616.021 476.887C616.021 475.992 616.163 475.422 616.448 475.178C616.733 474.893 617.323 474.71 618.218 474.629C618.543 474.588 619.093 474.568 619.866 474.568C621.168 474.527 622.226 474.425 623.04 474.263C623.894 474.059 624.728 473.632 625.542 472.981C626.356 472.33 627.027 471.313 627.556 469.929L655.999 392.048H667.229L695 469.929C695.488 471.313 696.139 472.35 696.953 473.042C697.767 473.693 698.601 474.1 699.456 474.263C700.351 474.425 701.449 474.527 702.751 474.568C703.525 474.568 704.094 474.588 704.46 474.629ZM658.196 407.49L644.463 444.966H670.22L658.196 407.49ZM725.627 480C725.017 480 724.508 479.634 724.102 478.901C723.735 478.169 723.552 477.498 723.552 476.887C723.552 476.195 723.695 475.667 723.979 475.3C724.264 474.934 724.793 474.71 725.566 474.629C728.008 474.425 730.063 474.039 731.731 473.469C733.399 472.859 734.233 471.943 734.233 470.723L734.294 404.683C734.294 403.055 733.867 401.834 733.013 401.021C732.158 400.207 731.182 399.698 730.083 399.495C729.025 399.25 727.52 399.006 725.566 398.762C724.671 398.681 724.081 398.518 723.796 398.274C723.512 397.989 723.369 397.399 723.369 396.504C723.369 395.894 723.552 395.222 723.918 394.49C724.325 393.757 724.834 393.391 725.444 393.391L736.919 393.33C739.889 393.33 743.653 393.249 748.21 393.086C748.861 393.045 750.428 392.984 752.91 392.903C755.392 392.821 758.057 392.801 760.906 392.842C770.916 392.882 778.769 394.754 784.465 398.457C790.203 402.119 793.071 407.938 793.071 415.913C793.071 422.505 791.301 427.713 787.761 431.538C784.221 435.363 779.155 438.15 772.563 439.9C776.185 440.266 779.115 441.263 781.353 442.891C783.631 444.478 785.401 446.37 786.663 448.567C787.924 450.764 789.307 453.714 790.813 457.417C791.83 459.858 792.664 461.791 793.315 463.215C793.966 464.639 794.74 466.043 795.635 467.427C796.896 469.868 798.28 471.638 799.785 472.737C801.331 473.795 802.959 474.405 804.668 474.568C805.522 474.649 806.092 474.873 806.377 475.239C806.702 475.605 806.865 476.257 806.865 477.192C806.865 477.762 806.662 478.372 806.255 479.023C805.889 479.674 805.4 480 804.79 480H786.968C785.259 480 783.774 479.288 782.512 477.864C781.251 476.44 780.173 474.649 779.277 472.493C778.382 470.336 777.304 467.406 776.042 463.704C774.415 458.984 772.95 455.179 771.648 452.29C770.387 449.401 768.698 446.939 766.582 444.905C764.466 442.87 761.882 441.853 758.831 441.853H749.187V468.708C749.187 470.336 749.696 471.557 750.713 472.371C751.771 473.184 752.992 473.734 754.375 474.019C755.758 474.263 757.508 474.466 759.624 474.629C760.519 474.71 761.109 474.893 761.394 475.178C761.679 475.422 761.821 475.992 761.821 476.887C761.821 477.498 761.618 478.169 761.211 478.901C760.845 479.634 760.356 480 759.746 480H725.627ZM759.014 436.604C764.629 436.604 769.084 435.18 772.38 432.332C775.676 429.483 777.324 424.641 777.324 417.805C777.324 411.051 775.636 406.188 772.258 403.218C768.922 400.207 764.161 398.701 757.976 398.701H749.248V436.604H759.014ZM830.657 480C830.046 480 829.538 479.634 829.131 478.901C828.765 478.169 828.582 477.498 828.582 476.887C828.582 476.195 828.724 475.667 829.009 475.3C829.334 474.893 829.863 474.67 830.596 474.629C833.037 474.425 835.112 474.039 836.821 473.469C838.571 472.859 839.446 471.943 839.446 470.723L839.507 404.683C839.507 403.055 839.039 401.834 838.103 401.021C837.167 400.207 836.109 399.678 834.929 399.434C833.749 399.189 832.183 398.966 830.229 398.762C829.334 398.681 828.744 398.518 828.459 398.274C828.175 397.989 828.032 397.399 828.032 396.504C828.032 395.894 828.215 395.222 828.582 394.49C828.988 393.757 829.497 393.391 830.107 393.391H863.555C864.165 393.391 864.653 393.757 865.02 394.49C865.426 395.222 865.63 395.894 865.63 396.504C865.63 397.196 865.467 397.745 865.142 398.152C864.857 398.518 864.348 398.722 863.616 398.762C861.134 398.966 859.038 399.373 857.329 399.983C855.62 400.553 854.766 401.448 854.766 402.668L854.705 468.708C854.705 470.336 855.173 471.557 856.108 472.371C857.044 473.184 858.102 473.713 859.282 473.958C860.462 474.202 862.029 474.425 863.982 474.629C864.877 474.71 865.467 474.893 865.752 475.178C866.037 475.422 866.179 475.992 866.179 476.887C866.179 477.498 865.976 478.169 865.569 478.901C865.203 479.634 864.714 480 864.104 480H830.657ZM891.619 476.887C891.619 476.195 891.761 475.667 892.046 475.3C892.331 474.934 892.86 474.71 893.633 474.629C896.074 474.425 898.17 474.039 899.919 473.469C901.669 472.859 902.544 471.943 902.544 470.723V404.683C902.544 403.096 902.076 401.895 901.14 401.082C900.204 400.268 899.167 399.739 898.027 399.495C896.929 399.25 895.342 399.006 893.267 398.762C892.371 398.681 891.781 398.518 891.497 398.274C891.212 397.989 891.069 397.399 891.069 396.504C891.069 395.894 891.252 395.222 891.619 394.49C892.026 393.757 892.534 393.391 893.145 393.391L956.56 393.33L958.696 413.167C958.737 413.818 958.472 414.326 957.903 414.692C957.374 415.059 956.825 415.242 956.255 415.242C955.4 415.242 954.627 415.12 953.936 414.875C953.244 414.591 952.674 414.041 952.227 413.228L949.907 408.772C948.687 406.249 947.69 404.398 946.917 403.218C946.143 401.997 945.208 401.061 944.109 400.41C943.01 399.718 941.586 399.373 939.836 399.373L918.047 399.434V432.515L933 432.454C933.977 432.332 934.913 431.619 935.808 430.317C936.703 429.015 937.456 427.55 938.066 425.923C938.677 424.255 939.043 422.952 939.165 422.017C939.328 420.715 940.264 420.063 941.973 420.063C942.542 420.063 943.132 420.267 943.743 420.674C944.394 421.04 944.719 421.528 944.719 422.139V449.177C944.719 449.788 944.394 450.296 943.743 450.703C943.132 451.069 942.542 451.252 941.973 451.252C941.2 451.252 940.528 451.11 939.958 450.825C939.389 450.5 939.063 449.971 938.982 449.238C938.901 448.221 938.555 446.838 937.944 445.088C937.334 443.298 936.561 441.731 935.625 440.388C934.689 439.005 933.692 438.313 932.634 438.313L918.047 438.374V467.976C918.047 471.557 919.858 473.51 923.479 473.835L940.996 473.774C944.78 473.774 947.954 472.513 950.518 469.99C953.081 467.427 955.299 463.154 957.17 457.173C957.374 456.522 957.903 456.034 958.757 455.708C959.653 455.342 960.507 455.159 961.321 455.159C962.135 455.159 962.847 455.342 963.457 455.708C964.108 456.074 964.474 456.583 964.556 457.234L961.748 479.939L893.694 480C893.083 480 892.575 479.634 892.168 478.901C891.802 478.169 891.619 477.498 891.619 476.887Z" fill="white"/>
<path d="M701.097 602.629C701.992 602.71 702.582 602.893 702.867 603.178C703.152 603.422 703.294 603.992 703.294 604.887C703.294 605.498 703.091 606.169 702.684 606.901C702.318 607.634 701.83 608 701.219 608H668.138C667.528 608 667.019 607.634 666.612 606.901C666.246 606.169 666.063 605.498 666.063 604.887C666.063 604.195 666.205 603.667 666.49 603.3C666.775 602.934 667.304 602.71 668.077 602.629L670.58 602.507C672.655 602.466 674.12 602.364 674.974 602.202C675.829 601.998 676.256 601.551 676.256 600.859C676.256 600.533 676.195 600.228 676.073 599.943L668.626 578.215L639.33 578.154L631.822 599.943C631.741 600.147 631.7 600.391 631.7 600.676C631.7 601.408 632.148 601.876 633.043 602.08C633.938 602.283 635.464 602.425 637.621 602.507C638.231 602.507 639.228 602.548 640.611 602.629C641.384 602.71 641.913 602.934 642.198 603.3C642.483 603.667 642.625 604.195 642.625 604.887C642.625 605.498 642.422 606.169 642.015 606.901C641.649 607.634 641.161 608 640.55 608H614.732C614.081 608 613.573 607.695 613.207 607.084C612.84 606.474 612.657 605.742 612.657 604.887C612.657 603.992 612.8 603.422 613.084 603.178C613.369 602.893 613.959 602.71 614.854 602.629C615.18 602.588 615.729 602.568 616.502 602.568C617.805 602.527 618.862 602.425 619.676 602.263C620.531 602.059 621.365 601.632 622.179 600.981C622.993 600.33 623.664 599.313 624.193 597.929L652.635 520.048H663.866L691.637 597.929C692.125 599.313 692.776 600.35 693.59 601.042C694.404 601.693 695.238 602.1 696.092 602.263C696.987 602.425 698.086 602.527 699.388 602.568C700.161 602.568 700.731 602.588 701.097 602.629ZM654.833 535.49L641.1 572.966H666.856L654.833 535.49ZM741.441 609.831C737.698 609.831 734.544 609.444 731.981 608.671C729.417 607.898 727.464 607.186 726.122 606.535C724.779 605.884 723.945 605.477 723.619 605.314C723.049 605.03 722.378 604.684 721.605 604.277C721.117 603.992 720.628 603.748 720.14 603.544C719.693 603.341 719.286 603.239 718.919 603.239C718.268 603.239 717.597 603.626 716.905 604.399C715.522 606.067 714.057 606.901 712.511 606.901C711.656 606.901 710.965 606.637 710.436 606.108C709.947 605.538 709.723 604.826 709.764 603.972C709.846 602.751 709.886 601.062 709.886 598.906C709.886 595.488 709.622 591.175 709.093 585.966C708.808 583.118 708.666 581.145 708.666 580.046C708.666 578.866 708.971 577.991 709.581 577.421C710.191 576.811 710.944 576.506 711.839 576.506C712.653 576.506 713.365 576.73 713.976 577.177C714.586 577.625 714.993 578.256 715.196 579.069C715.685 580.9 716.214 582.67 716.783 584.379C717.394 586.048 718.35 588.204 719.652 590.849C721.117 593.738 723.009 596.2 725.328 598.234C727.647 600.269 730.15 601.795 732.835 602.812C735.562 603.829 738.247 604.338 740.892 604.338C745.083 604.338 748.583 603.3 751.39 601.225C754.198 599.109 755.581 595.651 755.541 590.849C755.5 587.797 754.523 585.051 752.611 582.609C750.698 580.127 748.338 577.991 745.531 576.201C742.764 574.37 739.224 572.335 734.911 570.097C730.028 567.574 726 565.235 722.826 563.078C719.652 560.881 716.946 558.134 714.708 554.838C712.47 551.502 711.31 547.575 711.229 543.059C711.148 537.972 712.389 533.659 714.952 530.119C717.516 526.579 720.873 523.934 725.023 522.185C729.214 520.435 733.69 519.56 738.451 519.56C741.462 519.56 743.985 519.784 746.019 520.231C748.094 520.638 750.21 521.208 752.367 521.94C753.75 522.469 754.747 522.734 755.357 522.734C755.968 522.734 756.436 522.653 756.761 522.49C757.127 522.327 757.494 522.083 757.86 521.757C758.226 521.391 758.531 521.147 758.775 521.025C759.223 520.74 759.772 520.598 760.423 520.598C761.319 520.598 762.153 520.842 762.926 521.33C763.699 521.778 764.085 522.307 764.085 522.917C764.126 525.765 764.452 529.794 765.062 535.002C765.469 538.664 765.672 540.922 765.672 541.777C765.672 542.998 765.347 543.893 764.696 544.462C764.045 544.991 763.231 545.256 762.254 545.256C761.603 545.256 761.013 545.134 760.484 544.89C759.955 544.605 759.61 544.259 759.447 543.852C758.877 540.678 757.778 537.626 756.151 534.697C754.523 531.726 752.285 529.305 749.437 527.434C746.629 525.521 743.293 524.565 739.427 524.565C734.992 524.565 731.432 525.623 728.746 527.739C726.101 529.855 724.779 533.252 724.779 537.932C724.779 540.576 725.715 543.059 727.586 545.378C729.458 547.657 731.737 549.691 734.422 551.481C737.149 553.272 740.668 555.347 744.981 557.707C750.393 560.718 754.706 563.322 757.921 565.52C761.135 567.676 763.943 570.423 766.344 573.759C768.785 577.055 770.006 580.839 770.006 585.112C770.006 590.239 768.724 594.674 766.161 598.417C763.638 602.12 760.2 604.948 755.846 606.901C751.533 608.854 746.731 609.831 741.441 609.831ZM815.294 609.831C811.55 609.831 808.397 609.444 805.833 608.671C803.27 607.898 801.317 607.186 799.974 606.535C798.631 605.884 797.797 605.477 797.472 605.314C796.902 605.03 796.231 604.684 795.458 604.277C794.969 603.992 794.481 603.748 793.993 603.544C793.545 603.341 793.138 603.239 792.772 603.239C792.121 603.239 791.45 603.626 790.758 604.399C789.374 606.067 787.91 606.901 786.363 606.901C785.509 606.901 784.817 606.637 784.288 606.108C783.8 605.538 783.576 604.826 783.617 603.972C783.698 602.751 783.739 601.062 783.739 598.906C783.739 595.488 783.474 591.175 782.945 585.966C782.66 583.118 782.518 581.145 782.518 580.046C782.518 578.866 782.823 577.991 783.434 577.421C784.044 576.811 784.797 576.506 785.692 576.506C786.506 576.506 787.218 576.73 787.828 577.177C788.438 577.625 788.845 578.256 789.049 579.069C789.537 580.9 790.066 582.67 790.636 584.379C791.246 586.048 792.202 588.204 793.504 590.849C794.969 593.738 796.861 596.2 799.181 598.234C801.5 600.269 804.002 601.795 806.688 602.812C809.414 603.829 812.1 604.338 814.745 604.338C818.936 604.338 822.435 603.3 825.243 601.225C828.05 599.109 829.434 595.651 829.393 590.849C829.352 587.797 828.376 585.051 826.463 582.609C824.551 580.127 822.191 577.991 819.383 576.201C816.616 574.37 813.076 572.335 808.763 570.097C803.88 567.574 799.852 565.235 796.678 563.078C793.504 560.881 790.799 558.134 788.561 554.838C786.323 551.502 785.163 547.575 785.082 543.059C785 537.972 786.241 533.659 788.805 530.119C791.368 526.579 794.725 523.934 798.875 522.185C803.067 520.435 807.542 519.56 812.303 519.56C815.314 519.56 817.837 519.784 819.872 520.231C821.947 520.638 824.063 521.208 826.219 521.94C827.603 522.469 828.6 522.734 829.21 522.734C829.82 522.734 830.288 522.653 830.614 522.49C830.98 522.327 831.346 522.083 831.712 521.757C832.079 521.391 832.384 521.147 832.628 521.025C833.076 520.74 833.625 520.598 834.276 520.598C835.171 520.598 836.005 520.842 836.778 521.33C837.551 521.778 837.938 522.307 837.938 522.917C837.979 525.765 838.304 529.794 838.915 535.002C839.321 538.664 839.525 540.922 839.525 541.777C839.525 542.998 839.199 543.893 838.548 544.462C837.897 544.991 837.083 545.256 836.107 545.256C835.456 545.256 834.866 545.134 834.337 544.89C833.808 544.605 833.462 544.259 833.299 543.852C832.73 540.678 831.631 537.626 830.003 534.697C828.376 531.726 826.138 529.305 823.29 527.434C820.482 525.521 817.145 524.565 813.28 524.565C808.845 524.565 805.284 525.623 802.599 527.739C799.954 529.855 798.631 533.252 798.631 537.932C798.631 540.576 799.567 543.059 801.439 545.378C803.311 547.657 805.589 549.691 808.275 551.481C811.001 553.272 814.521 555.347 818.834 557.707C824.246 560.718 828.559 563.322 831.773 565.52C834.988 567.676 837.796 570.423 840.196 573.759C842.638 577.055 843.858 580.839 843.858 585.112C843.858 590.239 842.577 594.674 840.013 598.417C837.49 602.12 834.052 604.948 829.698 606.901C825.385 608.854 820.584 609.831 815.294 609.831ZM855.76 604.887C855.76 604.195 855.903 603.667 856.188 603.3C856.472 602.934 857.001 602.71 857.774 602.629C860.216 602.425 862.311 602.039 864.061 601.469C865.811 600.859 866.686 599.943 866.686 598.723V532.683C866.686 531.096 866.218 529.895 865.282 529.082C864.346 528.268 863.308 527.739 862.169 527.495C861.07 527.25 859.483 527.006 857.408 526.762C856.513 526.681 855.923 526.518 855.638 526.274C855.353 525.989 855.211 525.399 855.211 524.504C855.211 523.894 855.394 523.222 855.76 522.49C856.167 521.757 856.676 521.391 857.286 521.391L920.702 521.33L922.838 541.167C922.879 541.818 922.614 542.326 922.044 542.692C921.515 543.059 920.966 543.242 920.396 543.242C919.542 543.242 918.769 543.12 918.077 542.875C917.385 542.591 916.816 542.041 916.368 541.228L914.049 536.772C912.828 534.249 911.831 532.398 911.058 531.218C910.285 529.997 909.349 529.061 908.25 528.41C907.152 527.718 905.728 527.373 903.978 527.373L882.188 527.434V560.515L897.142 560.454C898.119 560.332 899.055 559.619 899.95 558.317C900.845 557.015 901.598 555.55 902.208 553.923C902.818 552.255 903.185 550.952 903.307 550.017C903.469 548.715 904.405 548.063 906.114 548.063C906.684 548.063 907.274 548.267 907.884 548.674C908.535 549.04 908.861 549.528 908.861 550.139V577.177C908.861 577.788 908.535 578.296 907.884 578.703C907.274 579.069 906.684 579.252 906.114 579.252C905.341 579.252 904.67 579.11 904.1 578.825C903.53 578.5 903.205 577.971 903.124 577.238C903.042 576.221 902.696 574.838 902.086 573.088C901.476 571.298 900.702 569.731 899.767 568.388C898.831 567.005 897.834 566.313 896.776 566.313L882.188 566.374V595.976C882.188 599.557 883.999 601.51 887.621 601.835L905.138 601.774C908.922 601.774 912.096 600.513 914.659 597.99C917.223 595.427 919.44 591.154 921.312 585.173C921.515 584.522 922.044 584.034 922.899 583.708C923.794 583.342 924.649 583.159 925.462 583.159C926.276 583.159 926.988 583.342 927.599 583.708C928.25 584.074 928.616 584.583 928.697 585.234L925.89 607.939L857.835 608C857.225 608 856.716 607.634 856.31 606.901C855.943 606.169 855.76 605.498 855.76 604.887ZM953.783 608C953.172 608 952.664 607.634 952.257 606.901C951.891 606.169 951.708 605.498 951.708 604.887C951.708 604.195 951.85 603.667 952.135 603.3C952.42 602.934 952.949 602.71 953.722 602.629C957.384 602.425 960.375 601.937 962.694 601.164C965.054 600.35 966.234 598.926 966.234 596.892L966.295 527.434H950.853C948.737 527.434 947.008 528.675 945.665 531.157C944.363 533.598 943.407 536.304 942.796 539.274C942.186 542.245 941.799 544.829 941.637 547.026C941.474 548.369 940.599 549.04 939.012 549.04C938.402 549.04 937.71 548.857 936.937 548.491C936.205 548.084 935.859 547.575 935.899 546.965C936.144 540.78 936.428 534.982 936.754 529.57C937.12 524.117 937.507 521.391 937.914 521.391H1009.57C1009.98 521.391 1010.36 524.3 1010.73 530.119C1011.14 535.897 1011.42 541.512 1011.58 546.965C1011.58 547.575 1011.22 548.084 1010.48 548.491C1009.75 548.857 1009.08 549.04 1008.47 549.04C1006.84 549.04 1005.95 548.369 1005.78 547.026C1005.46 542.875 1004.6 538.583 1003.22 534.147C1001.84 529.672 999.64 527.434 996.629 527.434H981.554L981.493 596.708C981.493 598.336 982.123 599.557 983.385 600.371C984.646 601.184 986.091 601.734 987.718 602.019C989.346 602.263 991.38 602.466 993.822 602.629C994.717 602.71 995.307 602.893 995.592 603.178C995.877 603.422 996.019 603.992 996.019 604.887C996.019 605.498 995.816 606.169 995.409 606.901C995.042 607.634 994.554 608 993.944 608H953.783ZM1053.7 609.831C1049.95 609.831 1046.8 609.444 1044.24 608.671C1041.67 607.898 1039.72 607.186 1038.38 606.535C1037.03 605.884 1036.2 605.477 1035.88 605.314C1035.31 605.03 1034.63 604.684 1033.86 604.277C1033.37 603.992 1032.88 603.748 1032.4 603.544C1031.95 603.341 1031.54 603.239 1031.18 603.239C1030.52 603.239 1029.85 603.626 1029.16 604.399C1027.78 606.067 1026.31 606.901 1024.77 606.901C1023.91 606.901 1023.22 606.637 1022.69 606.108C1022.2 605.538 1021.98 604.826 1022.02 603.972C1022.1 602.751 1022.14 601.062 1022.14 598.906C1022.14 595.488 1021.88 591.175 1021.35 585.966C1021.06 583.118 1020.92 581.145 1020.92 580.046C1020.92 578.866 1021.23 577.991 1021.84 577.421C1022.45 576.811 1023.2 576.506 1024.1 576.506C1024.91 576.506 1025.62 576.73 1026.23 577.177C1026.84 577.625 1027.25 578.256 1027.45 579.069C1027.94 580.9 1028.47 582.67 1029.04 584.379C1029.65 586.048 1030.61 588.204 1031.91 590.849C1033.37 593.738 1035.26 596.2 1037.58 598.234C1039.9 600.269 1042.41 601.795 1045.09 602.812C1047.82 603.829 1050.5 604.338 1053.15 604.338C1057.34 604.338 1060.84 603.3 1063.65 601.225C1066.45 599.109 1067.84 595.651 1067.8 590.849C1067.76 587.797 1066.78 585.051 1064.87 582.609C1062.95 580.127 1060.59 577.991 1057.79 576.201C1055.02 574.37 1051.48 572.335 1047.17 570.097C1042.28 567.574 1038.26 565.235 1035.08 563.078C1031.91 560.881 1029.2 558.134 1026.96 554.838C1024.73 551.502 1023.57 547.575 1023.48 543.059C1023.4 537.972 1024.64 533.659 1027.21 530.119C1029.77 526.579 1033.13 523.934 1037.28 522.185C1041.47 520.435 1045.95 519.56 1050.71 519.56C1053.72 519.56 1056.24 519.784 1058.27 520.231C1060.35 520.638 1062.47 521.208 1064.62 521.94C1066.01 522.469 1067 522.734 1067.61 522.734C1068.22 522.734 1068.69 522.653 1069.02 522.49C1069.38 522.327 1069.75 522.083 1070.12 521.757C1070.48 521.391 1070.79 521.147 1071.03 521.025C1071.48 520.74 1072.03 520.598 1072.68 520.598C1073.57 520.598 1074.41 520.842 1075.18 521.33C1075.95 521.778 1076.34 522.307 1076.34 522.917C1076.38 525.765 1076.71 529.794 1077.32 535.002C1077.72 538.664 1077.93 540.922 1077.93 541.777C1077.93 542.998 1077.6 543.893 1076.95 544.462C1076.3 544.991 1075.49 545.256 1074.51 545.256C1073.86 545.256 1073.27 545.134 1072.74 544.89C1072.21 544.605 1071.87 544.259 1071.7 543.852C1071.13 540.678 1070.03 537.626 1068.41 534.697C1066.78 531.726 1064.54 529.305 1061.69 527.434C1058.89 525.521 1055.55 524.565 1051.68 524.565C1047.25 524.565 1043.69 525.623 1041 527.739C1038.36 529.855 1037.03 533.252 1037.03 537.932C1037.03 540.576 1037.97 543.059 1039.84 545.378C1041.71 547.657 1043.99 549.691 1046.68 551.481C1049.4 553.272 1052.92 555.347 1057.24 557.707C1062.65 560.718 1066.96 563.322 1070.18 565.52C1073.39 567.676 1076.2 570.423 1078.6 573.759C1081.04 577.055 1082.26 580.839 1082.26 585.112C1082.26 590.239 1080.98 594.674 1078.42 598.417C1075.89 602.12 1072.46 604.948 1068.1 606.901C1063.79 608.854 1058.99 609.831 1053.7 609.831ZM1125.66 608C1125.05 608 1124.54 607.634 1124.13 606.901C1123.77 606.169 1123.58 605.498 1123.58 604.887C1123.58 604.195 1123.72 603.667 1124.01 603.3C1124.29 602.934 1124.82 602.71 1125.6 602.629C1127.79 602.507 1129.6 602.303 1131.03 602.019C1132.45 601.734 1133.67 601.184 1134.69 600.371C1135.75 599.557 1136.28 598.356 1136.28 596.77V532.683C1136.28 531.055 1135.71 529.834 1134.57 529.021C1133.47 528.207 1132.19 527.678 1130.72 527.434C1129.26 527.149 1127.43 526.925 1125.23 526.762C1124.34 526.681 1123.75 526.518 1123.46 526.274C1123.18 525.989 1123.03 525.399 1123.03 524.504C1123.03 523.894 1123.22 523.243 1123.58 522.551C1123.99 521.818 1124.5 521.432 1125.11 521.391H1158.31L1172.84 564.36L1180.16 583.281L1198.66 530.241C1200 526.416 1200.83 523.466 1201.16 521.391H1231C1231.61 521.391 1232.1 521.757 1232.47 522.49C1232.88 523.222 1233.08 523.894 1233.08 524.504C1233.08 525.196 1232.94 525.725 1232.65 526.091C1232.37 526.457 1231.84 526.681 1231.07 526.762C1228.58 526.966 1226.49 527.373 1224.78 527.983C1223.07 528.553 1222.22 529.448 1222.22 530.668L1222.15 596.708C1222.15 598.295 1222.62 599.496 1223.56 600.31C1224.53 601.123 1225.57 601.652 1226.67 601.896C1227.81 602.141 1229.44 602.385 1231.55 602.629C1232.45 602.71 1233.04 602.893 1233.32 603.178C1233.61 603.422 1233.75 603.992 1233.75 604.887C1233.75 605.498 1233.55 606.169 1233.14 606.901C1232.77 607.634 1232.29 608 1231.68 608H1197.68C1197.07 608 1196.56 607.634 1196.15 606.901C1195.79 606.169 1195.6 605.498 1195.6 604.887C1195.6 604.195 1195.75 603.667 1196.03 603.3C1196.32 602.934 1196.85 602.71 1197.62 602.629C1200.14 602.425 1202.32 602.019 1204.15 601.408C1206.02 600.798 1206.96 599.903 1206.96 598.723L1207.02 529.814H1204.94L1177.72 608H1174.49L1144.46 529.814H1142.2V596.708C1142.2 598.295 1142.81 599.516 1144.03 600.371C1145.25 601.184 1146.63 601.734 1148.18 602.019C1149.73 602.263 1151.64 602.466 1153.92 602.629C1154.81 602.71 1155.4 602.893 1155.69 603.178C1155.97 603.422 1156.11 603.992 1156.11 604.887C1156.11 605.498 1155.91 606.169 1155.5 606.901C1155.14 607.634 1154.65 608 1154.04 608H1125.66ZM1287.1 609.831C1280.5 609.831 1273.85 608.326 1267.14 605.314C1260.46 602.303 1254.83 597.441 1250.23 590.727C1245.67 583.972 1243.39 575.367 1243.39 564.909C1243.39 554.452 1245.69 545.826 1250.29 539.03C1254.93 532.235 1260.69 527.291 1267.56 524.199C1274.48 521.106 1281.46 519.56 1288.5 519.56C1299.69 519.56 1309.33 521.35 1317.43 524.931L1318.77 543.852C1318.85 544.503 1318.59 545.073 1317.98 545.561C1317.37 546.049 1316.78 546.293 1316.21 546.293L1315.48 546.354C1314.74 546.354 1314.07 546.212 1313.46 545.927C1312.89 545.642 1312.57 545.195 1312.49 544.584C1310.9 538.888 1308.15 534.29 1304.25 530.791C1300.34 527.25 1295.05 525.46 1288.38 525.419C1284.47 525.379 1280.46 526.437 1276.35 528.593C1272.28 530.709 1268.74 534.717 1265.73 540.617C1262.72 546.477 1261.22 554.574 1261.22 564.909C1261.22 574.105 1262.74 581.633 1265.79 587.492C1268.85 593.352 1272.53 597.583 1276.84 600.188C1281.15 602.751 1285.31 604.033 1289.29 604.033C1294.91 604.033 1298.9 603.26 1301.26 601.713C1303.66 600.167 1304.86 598.255 1304.86 595.976V580.168C1304.86 578.54 1304.31 577.32 1303.21 576.506C1302.11 575.692 1300.81 575.163 1299.3 574.919C1297.84 574.634 1295.99 574.41 1293.75 574.248C1292.85 574.166 1292.26 574.003 1291.98 573.759C1291.69 573.474 1291.55 572.884 1291.55 571.989C1291.55 571.379 1291.73 570.708 1292.1 569.975C1292.51 569.243 1293.02 568.876 1293.63 568.876H1327.32C1327.93 568.876 1328.42 569.243 1328.78 569.975C1329.19 570.708 1329.39 571.379 1329.39 571.989C1329.39 572.681 1329.23 573.23 1328.9 573.637C1328.62 574.003 1328.11 574.207 1327.38 574.248C1325.14 574.492 1323.31 574.899 1321.89 575.468C1320.5 576.038 1319.81 576.933 1319.81 578.154L1320.12 600.493C1319.34 601.591 1317.51 602.873 1314.62 604.338C1311.73 605.803 1307.91 607.084 1303.15 608.183C1298.43 609.282 1293.08 609.831 1287.1 609.831ZM1339.77 608C1339.16 608 1338.65 607.634 1338.24 606.901C1337.88 606.169 1337.69 605.498 1337.69 604.887C1337.69 604.195 1337.84 603.667 1338.12 603.3C1338.41 602.934 1338.93 602.71 1339.71 602.629C1341.91 602.507 1343.72 602.303 1345.14 602.019C1346.56 601.734 1347.78 601.184 1348.8 600.371C1349.86 599.557 1350.39 598.356 1350.39 596.77V532.683C1350.39 531.055 1349.82 529.834 1348.68 529.021C1347.58 528.207 1346.3 527.678 1344.83 527.434C1343.37 527.149 1341.54 526.925 1339.34 526.762C1338.45 526.681 1337.86 526.518 1337.57 526.274C1337.29 525.989 1337.14 525.399 1337.14 524.504C1337.14 523.894 1337.33 523.243 1337.69 522.551C1338.1 521.818 1338.61 521.432 1339.22 521.391H1372.42L1386.95 564.36L1394.27 583.281L1412.77 530.241C1414.11 526.416 1414.94 523.466 1415.27 521.391H1445.12C1445.73 521.391 1446.21 521.757 1446.58 522.49C1446.99 523.222 1447.19 523.894 1447.19 524.504C1447.19 525.196 1447.05 525.725 1446.76 526.091C1446.48 526.457 1445.95 526.681 1445.18 526.762C1442.69 526.966 1440.6 527.373 1438.89 527.983C1437.18 528.553 1436.33 529.448 1436.33 530.668L1436.27 596.708C1436.27 598.295 1436.73 599.496 1437.67 600.31C1438.65 601.123 1439.68 601.652 1440.78 601.896C1441.92 602.141 1443.55 602.385 1445.67 602.629C1446.56 602.71 1447.15 602.893 1447.44 603.178C1447.72 603.422 1447.86 603.992 1447.86 604.887C1447.86 605.498 1447.66 606.169 1447.25 606.901C1446.89 607.634 1446.4 608 1445.79 608H1411.79C1411.18 608 1410.67 607.634 1410.26 606.901C1409.9 606.169 1409.72 605.498 1409.72 604.887C1409.72 604.195 1409.86 603.667 1410.14 603.3C1410.43 602.934 1410.96 602.71 1411.73 602.629C1414.25 602.425 1416.43 602.019 1418.26 601.408C1420.13 600.798 1421.07 599.903 1421.07 598.723L1421.13 529.814H1419.05L1391.83 608H1388.6L1358.57 529.814H1356.31V596.708C1356.31 598.295 1356.92 599.516 1358.14 600.371C1359.36 601.184 1360.74 601.734 1362.29 602.019C1363.84 602.263 1365.75 602.466 1368.03 602.629C1368.92 602.71 1369.51 602.893 1369.8 603.178C1370.08 603.422 1370.23 603.992 1370.23 604.887C1370.23 605.498 1370.02 606.169 1369.62 606.901C1369.25 607.634 1368.76 608 1368.15 608H1339.77ZM1472.58 608C1471.97 608 1471.46 607.634 1471.06 606.901C1470.69 606.169 1470.51 605.498 1470.51 604.887C1470.51 604.195 1470.65 603.667 1470.93 603.3C1471.22 602.934 1471.75 602.71 1472.52 602.629C1476.18 602.425 1479.17 601.937 1481.49 601.164C1483.85 600.35 1485.03 598.926 1485.03 596.892L1485.09 527.434H1469.65C1467.54 527.434 1465.81 528.675 1464.46 531.157C1463.16 533.598 1462.21 536.304 1461.6 539.274C1460.98 542.245 1460.6 544.829 1460.44 547.026C1460.27 548.369 1459.4 549.04 1457.81 549.04C1457.2 549.04 1456.51 548.857 1455.74 548.491C1455 548.084 1454.66 547.575 1454.7 546.965C1454.94 540.78 1455.23 534.982 1455.55 529.57C1455.92 524.117 1456.31 521.391 1456.71 521.391H1528.37C1528.77 521.391 1529.16 524.3 1529.53 530.119C1529.93 535.897 1530.22 541.512 1530.38 546.965C1530.38 547.575 1530.02 548.084 1529.28 548.491C1528.55 548.857 1527.88 549.04 1527.27 549.04C1525.64 549.04 1524.75 548.369 1524.58 547.026C1524.26 542.875 1523.4 538.583 1522.02 534.147C1520.64 529.672 1518.44 527.434 1515.43 527.434H1500.35L1500.29 596.708C1500.29 598.336 1500.92 599.557 1502.18 600.371C1503.44 601.184 1504.89 601.734 1506.52 602.019C1508.14 602.263 1510.18 602.466 1512.62 602.629C1513.52 602.71 1514.11 602.893 1514.39 603.178C1514.68 603.422 1514.82 603.992 1514.82 604.887C1514.82 605.498 1514.61 606.169 1514.21 606.901C1513.84 607.634 1513.35 608 1512.74 608H1472.58Z" fill="white"/>
<g clip-path="url(#clip0_1375_2)">
<path d="M189.32 235.33C189.278 235.27 189.225 235.218 189.163 235.178C189.101 235.139 189.031 235.111 188.959 235.098C188.887 235.085 188.812 235.087 188.74 235.103C188.669 235.118 188.6 235.148 188.54 235.19L184.19 238.19C184.12 238.227 184.059 238.278 184.011 238.34C183.962 238.403 183.928 238.475 183.91 238.552C183.892 238.628 183.891 238.708 183.906 238.786C183.922 238.863 183.954 238.936 184 239V239.05C184.088 239.171 184.22 239.253 184.367 239.279C184.514 239.305 184.666 239.273 184.79 239.19L189.14 236.19C189.261 236.104 189.342 235.973 189.366 235.827C189.391 235.681 189.356 235.531 189.27 235.41L189.32 235.33ZM175.66 197.76C176.092 197.769 176.518 197.863 176.914 198.037C177.31 198.211 177.667 198.461 177.966 198.773C178.265 199.085 178.5 199.453 178.657 199.856C178.813 200.258 178.889 200.688 178.88 201.12C178.889 201.552 178.813 201.982 178.657 202.385C178.5 202.787 178.265 203.155 177.966 203.467C177.667 203.779 177.31 204.029 176.914 204.203C176.518 204.377 176.092 204.471 175.66 204.48C175.128 204.475 174.606 204.338 174.141 204.079C173.677 203.82 173.284 203.449 173 203H162.74C162.656 203.439 162.535 203.871 162.38 204.29C165.275 204.548 168.104 205.306 170.74 206.53C170.987 206.639 171.196 206.816 171.344 207.042C171.491 207.267 171.57 207.531 171.57 207.8V244.8H200.81V230.63C199.97 226.52 197.61 225.41 194.44 225.86C195.87 228.35 195.68 230.86 193.66 233.44C193.793 233.644 193.864 233.882 193.864 234.125C193.864 234.368 193.793 234.606 193.66 234.81L193.03 235.54C192.78 235.79 192.47 235.81 192.03 235.54L182.36 225.77C182.299 225.715 182.252 225.647 182.223 225.57C182.194 225.493 182.184 225.41 182.194 225.329C182.204 225.248 182.233 225.17 182.279 225.102C182.326 225.034 182.388 224.979 182.46 224.94C183.14 224.1 183.23 223.94 184.46 224.16C187.17 222.4 189.75 222.08 192.19 223.48C198.29 220.97 203.49 224.13 204.19 230.48V245C204.546 245.129 204.868 245.337 205.13 245.61V245.61C205.62 246.106 205.896 246.773 205.9 247.47V249.87C205.899 250.564 205.622 251.23 205.13 251.72V251.72C204.886 251.965 204.597 252.159 204.277 252.292C203.958 252.424 203.616 252.491 203.27 252.49H200.82L198.46 263.49C198.008 265.966 196.663 268.19 194.68 269.74C193.327 270.756 191.755 271.441 190.09 271.74L191.6 275C191.763 275.345 191.783 275.74 191.654 276.099C191.526 276.459 191.26 276.752 190.915 276.915C190.57 277.078 190.175 277.098 189.816 276.969C189.457 276.841 189.163 276.575 189 276.23L187 272H171.58V282.41C171.581 282.649 171.52 282.885 171.403 283.094C171.285 283.302 171.115 283.477 170.91 283.6C169.834 284.378 168.669 285.026 167.44 285.53C166.35 285.972 165.186 286.207 164.01 286.22C161.938 286.155 159.873 285.948 157.83 285.6C156.297 285.391 154.8 284.974 153.38 284.36C149.29 282.26 148.13 282.85 146.31 283.78C144.812 284.6 143.201 285.197 141.53 285.55C140.983 285.664 140.428 285.741 139.87 285.78C139.271 285.825 138.669 285.825 138.07 285.78C137.482 285.709 136.912 285.529 136.39 285.25C135.977 285.04 135.576 284.807 135.19 284.55C133.3 283.36 131.91 282.55 130.61 282.31C129.31 282.07 127.89 282.57 125.71 283.94C125.011 284.38 124.262 284.735 123.48 285C122.556 285.315 121.586 285.473 120.61 285.47C119.169 285.305 117.776 284.845 116.52 284.12C115.98 283.86 115.42 283.6 114.96 283.4C110.17 281.4 109.02 282.33 107.77 283.4C107.037 284.116 106.158 284.665 105.193 285.011C104.229 285.356 103.201 285.489 102.18 285.4C100.199 285.218 98.2695 284.669 96.49 283.78L95.68 283.43C94.959 283.142 94.2074 282.938 93.44 282.82C92.7205 282.695 91.988 282.661 91.26 282.72C91.0788 282.744 90.8946 282.732 90.718 282.684C90.5415 282.637 90.376 282.555 90.2311 282.444C90.0862 282.332 89.9647 282.193 89.8735 282.035C89.7824 281.876 89.7235 281.701 89.7 281.52V281.35V209.18C89.7002 208.851 89.8169 208.533 90.0292 208.283C90.2416 208.032 90.5359 207.864 90.86 207.81C90.9708 207.728 91.0918 207.661 91.22 207.61C91.74 207.42 92.32 207.18 92.95 206.91C94.8772 206.042 96.8875 205.372 98.95 204.91C98.6501 204.307 98.4379 203.663 98.32 203H88.89C88.6039 203.452 88.2083 203.825 87.7399 204.084C87.2714 204.343 86.7452 204.479 86.21 204.48C85.3392 204.459 84.5122 204.094 83.9104 203.464C83.3086 202.834 82.9812 201.991 83 201.12C82.9812 200.249 83.3086 199.406 83.9104 198.776C84.5122 198.147 85.3392 197.781 86.21 197.76C86.8055 197.765 87.3878 197.936 87.8913 198.254C88.3947 198.572 88.7995 199.025 89.06 199.56H98.4C98.5321 198.958 98.7511 198.379 99.05 197.84C99.2872 197.319 99.6621 196.872 100.134 196.548C100.607 196.223 101.158 196.034 101.73 196C102.302 196.033 102.854 196.222 103.327 196.546C103.799 196.871 104.174 197.318 104.41 197.84C104.709 198.379 104.928 198.958 105.06 199.56H117.56C117.692 198.958 117.911 198.379 118.21 197.84C118.42 197.299 118.789 196.833 119.268 196.505C119.747 196.177 120.314 196.002 120.895 196.002C121.476 196.002 122.043 196.177 122.522 196.505C123.001 196.833 123.37 197.299 123.58 197.84C123.876 198.379 124.091 198.959 124.22 199.56H136.48C136.612 198.958 136.831 198.379 137.13 197.84C137.338 197.298 137.705 196.831 138.184 196.502C138.662 196.173 139.229 195.997 139.81 195.997C140.391 195.997 140.958 196.173 141.436 196.502C141.915 196.831 142.282 197.298 142.49 197.84C142.789 198.379 143.008 198.958 143.14 199.56H156C156.136 198.96 156.355 198.381 156.65 197.84C156.86 197.299 157.229 196.833 157.708 196.505C158.187 196.177 158.754 196.002 159.335 196.002C159.916 196.002 160.483 196.177 160.962 196.505C161.441 196.833 161.81 197.299 162.02 197.84C162.315 198.381 162.534 198.96 162.67 199.56H172.81C173.071 199.025 173.475 198.572 173.979 198.254C174.482 197.936 175.065 197.765 175.66 197.76V197.76ZM100.66 199.56H102.88C102.805 199.325 102.708 199.097 102.59 198.88C102.33 198.43 102.04 198.14 101.77 198.14C101.5 198.14 101.22 198.43 100.96 198.88C100.843 199.099 100.742 199.326 100.66 199.56V199.56ZM119.82 199.56H122C121.925 199.325 121.828 199.097 121.71 198.88C121.45 198.43 121.16 198.14 120.89 198.14C120.62 198.14 120.34 198.43 120.08 198.88C119.963 199.099 119.862 199.326 119.78 199.56H119.82ZM138.74 199.56H140.96C140.886 199.323 140.786 199.095 140.66 198.88C140.41 198.43 140.12 198.14 139.85 198.14C139.58 198.14 139.29 198.43 139.04 198.88C138.914 199.095 138.814 199.323 138.74 199.56V199.56ZM158.25 199.56H160.48C160.398 199.326 160.297 199.099 160.18 198.88C159.92 198.43 159.63 198.14 159.37 198.14C159.11 198.14 158.81 198.43 158.55 198.88C158.433 199.099 158.332 199.326 158.25 199.56V199.56ZM160.55 203H158.1C158.189 203.37 158.327 203.727 158.51 204.06C158.581 204.186 158.661 204.306 158.75 204.42C159.15 204.36 159.57 204.32 160 204.29C160 204.22 160.09 204.14 160.14 204.06C160.323 203.727 160.461 203.37 160.55 203V203ZM155.92 203H143.22C143.103 203.667 142.891 204.313 142.59 204.92C143.902 205.281 145.173 205.781 146.38 206.41C147.236 206.916 148.191 207.23 149.18 207.33C150.476 207.22 151.737 206.852 152.89 206.25C154.074 205.726 155.29 205.275 156.53 204.9C156.237 204.299 156.032 203.659 155.92 203V203ZM141 203H138.59C138.68 203.367 138.817 203.72 139 204.05C139.064 204.175 139.141 204.292 139.23 204.4C139.45 204.4 139.66 204.4 139.87 204.4H140.34C140.446 204.269 140.54 204.128 140.62 203.98C140.787 203.67 140.914 203.341 141 203ZM136.4 203H124.3C124.179 203.739 123.936 204.452 123.58 205.11L123.51 205.21C124.283 205.488 125.021 205.854 125.71 206.3C127.89 207.67 129.33 208.1 130.61 207.92C131.89 207.74 133.3 206.87 135.19 205.69C135.53 205.47 135.96 205.2 136.39 204.98C136.57 204.9 136.75 204.81 136.94 204.74C136.683 204.187 136.501 203.602 136.4 203V203ZM122.12 203H119.67C119.759 203.37 119.897 203.727 120.08 204.06C120.211 204.328 120.407 204.558 120.65 204.73H121.11C121.368 204.562 121.575 204.327 121.71 204.05C121.893 203.72 122.03 203.367 122.12 203V203ZM117.48 203H105.14C105.015 203.73 104.776 204.435 104.43 205.09C105.417 205.449 106.359 205.919 107.24 206.49C109.03 207.56 110.73 208.58 114.96 206.8C115.42 206.6 115.96 206.34 116.52 206.08C117.08 205.82 117.73 205.51 118.31 205.28L118.21 205.11C117.855 204.45 117.609 203.738 117.48 203V203ZM103 203H100.51C100.599 203.37 100.737 203.727 100.92 204.06C101.031 204.275 101.18 204.468 101.36 204.63H102.09C102.277 204.462 102.433 204.262 102.55 204.04C102.746 203.715 102.897 203.365 103 203ZM171.58 265.61V269.08H187.41C189.37 269.157 191.301 268.592 192.91 267.47C194.343 266.325 195.31 264.696 195.63 262.89L197.86 252.49H171.58V265.61ZM92.47 210.11V279.92C92.91 279.92 93.38 279.99 93.86 280.07C94.8512 280.218 95.8213 280.483 96.75 280.86L97.58 281.21C99.0519 281.952 100.643 282.429 102.28 282.62C102.963 282.664 103.648 282.563 104.289 282.323C104.93 282.084 105.513 281.711 106 281.23C107.92 279.65 109.69 278.23 116 280.86C116.62 281.12 117.16 281.38 117.68 281.62C118.581 282.139 119.56 282.507 120.58 282.71C121.261 282.714 121.937 282.603 122.58 282.38C123.166 282.175 123.726 281.903 124.25 281.57C127.05 279.81 129.05 279.27 130.99 279.57C132.93 279.87 134.48 280.84 136.67 282.21C136.99 282.419 137.324 282.606 137.67 282.77C137.881 282.89 138.111 282.975 138.35 283.02C138.813 283.055 139.277 283.055 139.74 283.02C140.164 282.989 140.586 282.926 141 282.83C142.43 282.521 143.808 282.006 145.09 281.3C147.67 279.98 149.32 279.14 154.68 281.89C155.846 282.377 157.069 282.713 158.32 282.89C160.21 283.22 162.122 283.414 164.04 283.47C164.874 283.457 165.698 283.287 166.47 282.97C167.297 282.63 168.087 282.208 168.83 281.71V208.71C161.37 205.71 157.21 207.44 154 208.79C152.492 209.575 150.829 210.015 149.13 210.08C147.744 209.996 146.397 209.585 145.2 208.88C143.874 208.192 142.462 207.687 141 207.38C140.585 207.288 140.164 207.228 139.74 207.2C139.277 207.165 138.813 207.165 138.35 207.2C138.11 207.241 137.88 207.326 137.67 207.45C137.324 207.614 136.99 207.801 136.67 208.01C134.48 209.4 132.88 210.4 131 210.67C129.12 210.94 127.06 210.4 124.26 208.67C123.736 208.337 123.176 208.065 122.59 207.86C121.947 207.637 121.271 207.526 120.59 207.53C119.572 207.733 118.593 208.098 117.69 208.61C117.17 208.86 116.63 209.11 116.01 209.38C110.49 211.71 108.2 210.38 105.79 208.89C104.439 207.921 102.812 207.413 101.15 207.44C98.6676 207.706 96.2492 208.396 94 209.48V209.48C93.45 209.71 92.93 209.93 92.46 210.11H92.47ZM159.79 257.44C159.79 257.156 159.903 256.884 160.103 256.683C160.304 256.483 160.576 256.37 160.86 256.37C161.144 256.37 161.416 256.483 161.617 256.683C161.817 256.884 161.93 257.156 161.93 257.44V272.14C161.93 272.424 161.817 272.696 161.617 272.897C161.416 273.097 161.144 273.21 160.86 273.21C160.576 273.21 160.304 273.097 160.103 272.897C159.903 272.696 159.79 272.424 159.79 272.14V257.44ZM159.79 212.26C159.79 211.976 159.903 211.704 160.103 211.503C160.304 211.303 160.576 211.19 160.86 211.19C161.144 211.19 161.416 211.303 161.617 211.503C161.817 211.704 161.93 211.976 161.93 212.26V252.06C161.93 252.344 161.817 252.616 161.617 252.817C161.416 253.017 161.144 253.13 160.86 253.13C160.576 253.13 160.304 253.017 160.103 252.817C159.903 252.616 159.79 252.344 159.79 252.06V212.26V212.26ZM139 264.73C139.026 264.463 139.15 264.215 139.349 264.034C139.548 263.854 139.807 263.754 140.075 263.754C140.343 263.754 140.602 263.854 140.801 264.034C141 264.215 141.124 264.463 141.15 264.73V275.36C141.124 275.627 141 275.875 140.801 276.056C140.602 276.236 140.343 276.336 140.075 276.336C139.807 276.336 139.548 276.236 139.349 276.056C139.15 275.875 139.026 275.627 139 275.36V264.73ZM139 216.58C138.986 216.43 139.003 216.279 139.05 216.136C139.097 215.993 139.174 215.862 139.276 215.75C139.377 215.639 139.5 215.55 139.638 215.489C139.776 215.428 139.924 215.396 140.075 215.396C140.226 215.396 140.375 215.428 140.512 215.489C140.65 215.55 140.773 215.639 140.875 215.75C140.976 215.862 141.053 215.993 141.1 216.136C141.147 216.279 141.165 216.43 141.15 216.58V257.58C141.124 257.847 141 258.095 140.801 258.276C140.602 258.456 140.343 258.556 140.075 258.556C139.807 258.556 139.548 258.456 139.349 258.276C139.15 258.095 139.026 257.847 139 257.58V216.58ZM119.68 249.58C119.706 249.313 119.83 249.065 120.029 248.884C120.228 248.704 120.487 248.604 120.755 248.604C121.023 248.604 121.282 248.704 121.481 248.884C121.68 249.065 121.804 249.313 121.83 249.58V264.28C121.804 264.547 121.68 264.795 121.481 264.976C121.282 265.156 121.023 265.256 120.755 265.256C120.487 265.256 120.228 265.156 120.029 264.976C119.83 264.795 119.706 264.547 119.68 264.28V249.53V249.58ZM119.68 213.12C119.706 212.853 119.83 212.605 120.029 212.424C120.228 212.244 120.487 212.144 120.755 212.144C121.023 212.144 121.282 212.244 121.481 212.424C121.68 212.605 121.804 212.853 121.83 213.12V244.16C121.804 244.427 121.68 244.675 121.481 244.856C121.282 245.036 121.023 245.136 120.755 245.136C120.487 245.136 120.228 245.036 120.029 244.856C119.83 244.675 119.706 244.427 119.68 244.16V213.07V213.12ZM100.61 248.82C100.61 248.536 100.723 248.264 100.923 248.063C101.124 247.863 101.396 247.75 101.68 247.75C101.964 247.75 102.236 247.863 102.437 248.063C102.637 248.264 102.75 248.536 102.75 248.82V271.71C102.75 271.994 102.637 272.266 102.437 272.467C102.236 272.667 101.964 272.78 101.68 272.78C101.396 272.78 101.124 272.667 100.923 272.467C100.723 272.266 100.61 271.994 100.61 271.71V248.82ZM100.61 220.33C100.61 220.046 100.723 219.774 100.923 219.573C101.124 219.373 101.396 219.26 101.68 219.26C101.964 219.26 102.236 219.373 102.437 219.573C102.637 219.774 102.75 220.046 102.75 220.33V243.45C102.75 243.734 102.637 244.006 102.437 244.207C102.236 244.407 101.964 244.52 101.68 244.52C101.396 244.52 101.124 244.407 100.923 244.207C100.723 244.006 100.61 243.734 100.61 243.45V220.33V220.33ZM171.61 247.7V249.62H203V247.7H171.61ZM183.89 230.62C183.849 230.559 183.796 230.506 183.734 230.465C183.672 230.425 183.603 230.397 183.53 230.384C183.457 230.371 183.382 230.373 183.31 230.389C183.238 230.406 183.17 230.437 183.11 230.48L178.75 233.53C178.63 233.616 178.548 233.747 178.524 233.893C178.499 234.039 178.534 234.189 178.62 234.31C178.708 234.431 178.84 234.513 178.987 234.539C179.134 234.565 179.286 234.533 179.41 234.45L183.75 231.4C183.812 231.358 183.865 231.304 183.905 231.241C183.946 231.179 183.974 231.108 183.987 231.035C184 230.961 183.998 230.885 183.981 230.813C183.965 230.74 183.934 230.671 183.89 230.61V230.62ZM181.39 228.11C181.348 228.05 181.295 227.998 181.233 227.958C181.171 227.919 181.101 227.891 181.029 227.878C180.957 227.865 180.882 227.867 180.81 227.883C180.739 227.898 180.67 227.928 180.61 227.97L176.26 230.97C176.199 231.011 176.146 231.064 176.105 231.126C176.065 231.188 176.037 231.257 176.024 231.33C176.011 231.403 176.013 231.478 176.029 231.55C176.046 231.622 176.077 231.69 176.12 231.75C176.207 231.873 176.338 231.956 176.486 231.983C176.634 232.009 176.786 231.976 176.91 231.89L181.26 228.89C181.32 228.848 181.372 228.795 181.412 228.733C181.452 228.671 181.479 228.602 181.492 228.529C181.505 228.457 181.503 228.382 181.488 228.31C181.472 228.239 181.442 228.17 181.4 228.11H181.39ZM186.39 233.11V233.06C186.304 232.94 186.173 232.858 186.027 232.834C185.881 232.809 185.731 232.844 185.61 232.93L181.25 235.93C181.129 236.018 181.047 236.15 181.021 236.297C180.995 236.444 181.027 236.596 181.11 236.72C181.151 236.782 181.204 236.834 181.266 236.875C181.328 236.915 181.397 236.943 181.47 236.956C181.543 236.969 181.618 236.967 181.69 236.951C181.762 236.934 181.83 236.903 181.89 236.86L186.25 233.86C186.371 233.774 186.452 233.643 186.476 233.497C186.501 233.351 186.466 233.201 186.38 233.08L186.39 233.11Z" fill="#C69958"/>
</g>
<defs>
<clipPath id="clip0_1375_2">
<rect width="122.88" height="90.22" fill="white" transform="translate(83 196)"/>
</clipPath>
</defs>
</svg>
