<svg width="15" height="16" viewBox="0 0 15 16" fill="none" xmlns="http://www.w3.org/2000/svg">
<g clip-path="url(#clip0_1131_393)">
<path d="M7.0471 0.319922C7.0471 0.143229 7.24997 0 7.49993 0C7.7499 0 7.95277 0.143229 7.95277 0.319922V6.09818C7.95277 6.27487 7.75003 6.4181 7.49993 6.4181C7.24983 6.4181 7.0471 6.27487 7.0471 6.09818V0.319922ZM9.76715 2.56003C9.53257 2.47565 9.41223 2.22083 9.49834 1.99062C9.58418 1.76055 9.84384 1.64245 10.0784 1.72682C11.5328 2.24961 12.777 3.20326 13.6507 4.43073C14.501 5.62526 15 7.07656 15 8.63971C15 10.6717 14.1603 12.5118 12.803 13.844C11.4457 15.1759 9.57065 16.0001 7.49993 16.0001C5.42922 16.0001 3.5542 15.176 2.1969 13.844C0.839724 12.5118 0 10.6717 0 8.63971C0 7.07656 0.498872 5.62526 1.34921 4.43073C2.2229 3.20326 3.46703 2.24961 4.92145 1.72682C5.1559 1.64258 5.41568 1.76068 5.50153 1.99062C5.5875 2.2207 5.46716 2.47565 5.23272 2.56003C3.95117 3.0207 2.85604 3.85924 2.0885 4.9375C1.34297 5.9849 0.905533 7.2612 0.905533 8.63971C0.905533 10.4266 1.64376 12.0444 2.8372 13.2156C4.03065 14.3868 5.67918 15.1115 7.49993 15.1115C9.32068 15.1115 10.9692 14.387 12.1627 13.2156C13.3561 12.0445 14.0943 10.4266 14.0943 8.63971C14.0943 7.2612 13.6569 5.9849 12.9114 4.9375C12.1437 3.85911 11.0487 3.02057 9.76715 2.56003Z" fill="#AB854F"/>
</g>
<defs>
<clipPath id="clip0_1131_393">
<rect width="15" height="16" fill="white"/>
</clipPath>
</defs>
</svg>
