<svg width="1549" height="621" viewBox="0 0 1549 621" fill="none" xmlns="http://www.w3.org/2000/svg">
<rect x="412" width="454" height="60" fill="#EF1552"/>
<rect x="611" y="468" width="454" height="60" fill="#EF1552"/>
<rect x="972" width="260" height="60" transform="rotate(90 972 0)" fill="#EF1552"/>
<rect x="472" y="361" width="260" height="60" transform="rotate(90 472 361)" fill="#EF1552"/>
<rect x="1078" width="260" height="60" transform="rotate(90 1078 0)" fill="#EF1552"/>
<rect x="578" y="361" width="260" height="60" transform="rotate(90 578 361)" fill="#EF1552"/>
<rect x="412" y="93" width="454" height="60" fill="#EF1552"/>
<rect x="611" y="561" width="454" height="60" fill="#EF1552"/>
<path d="M7.26318 292C6.65283 292 6.14421 291.634 5.7373 290.901C5.37109 290.169 5.18799 289.498 5.18799 288.887C5.18799 288.195 5.3304 287.667 5.61523 287.3C5.90007 286.934 6.42904 286.71 7.20215 286.629C9.39941 286.507 11.2101 286.303 12.6343 286.019C14.0584 285.734 15.2791 285.184 16.2964 284.371C17.3543 283.557 17.8833 282.356 17.8833 280.77V216.683C17.8833 215.055 17.3136 213.834 16.1743 213.021C15.0757 212.207 13.7939 211.678 12.3291 211.434C10.8643 211.149 9.0332 210.925 6.83594 210.762C5.94076 210.681 5.35075 210.518 5.06592 210.274C4.78109 209.989 4.63867 209.399 4.63867 208.504C4.63867 207.894 4.82178 207.243 5.18799 206.551C5.59489 205.818 6.10352 205.432 6.71387 205.391H39.917L54.4434 248.36L61.7676 267.281L80.2612 214.241C81.604 210.416 82.4382 207.466 82.7637 205.391H112.61C113.22 205.391 113.708 205.757 114.075 206.49C114.482 207.222 114.685 207.894 114.685 208.504C114.685 209.196 114.543 209.725 114.258 210.091C113.973 210.457 113.444 210.681 112.671 210.762C110.189 210.966 108.093 211.373 106.384 211.983C104.675 212.553 103.821 213.448 103.821 214.668L103.76 280.708C103.76 282.295 104.228 283.496 105.164 284.31C106.14 285.123 107.178 285.652 108.276 285.896C109.416 286.141 111.043 286.385 113.159 286.629C114.054 286.71 114.644 286.893 114.929 287.178C115.214 287.422 115.356 287.992 115.356 288.887C115.356 289.498 115.153 290.169 114.746 290.901C114.38 291.634 113.892 292 113.281 292H79.2847C78.6743 292 78.1657 291.634 77.7588 290.901C77.3926 290.169 77.2095 289.498 77.2095 288.887C77.2095 288.195 77.3519 287.667 77.6367 287.3C77.9215 286.934 78.4505 286.71 79.2236 286.629C81.7464 286.425 83.9233 286.019 85.7544 285.408C87.6261 284.798 88.562 283.903 88.562 282.723L88.623 213.814H86.5479L59.3262 292H56.0913L26.062 213.814H23.8037V280.708C23.8037 282.295 24.4141 283.516 25.6348 284.371C26.8555 285.184 28.2389 285.734 29.7852 286.019C31.3314 286.263 33.2438 286.466 35.5225 286.629C36.4176 286.71 37.0076 286.893 37.2925 287.178C37.5773 287.422 37.7197 287.992 37.7197 288.887C37.7197 289.498 37.5163 290.169 37.1094 290.901C36.7432 291.634 36.2549 292 35.6445 292H7.26318ZM219.592 286.629C220.487 286.71 221.077 286.893 221.362 287.178C221.647 287.422 221.79 287.992 221.79 288.887C221.79 289.498 221.586 290.169 221.179 290.901C220.813 291.634 220.325 292 219.714 292H186.633C186.023 292 185.514 291.634 185.107 290.901C184.741 290.169 184.558 289.498 184.558 288.887C184.558 288.195 184.701 287.667 184.985 287.3C185.27 286.934 185.799 286.71 186.572 286.629L189.075 286.507C191.15 286.466 192.615 286.364 193.469 286.202C194.324 285.998 194.751 285.551 194.751 284.859C194.751 284.533 194.69 284.228 194.568 283.943L187.122 262.215L157.825 262.154L150.317 283.943C150.236 284.147 150.195 284.391 150.195 284.676C150.195 285.408 150.643 285.876 151.538 286.08C152.433 286.283 153.959 286.425 156.116 286.507C156.726 286.507 157.723 286.548 159.106 286.629C159.88 286.71 160.409 286.934 160.693 287.3C160.978 287.667 161.121 288.195 161.121 288.887C161.121 289.498 160.917 290.169 160.51 290.901C160.144 291.634 159.656 292 159.045 292H133.228C132.576 292 132.068 291.695 131.702 291.084C131.335 290.474 131.152 289.742 131.152 288.887C131.152 287.992 131.295 287.422 131.58 287.178C131.864 286.893 132.454 286.71 133.35 286.629C133.675 286.588 134.224 286.568 134.998 286.568C136.3 286.527 137.358 286.425 138.171 286.263C139.026 286.059 139.86 285.632 140.674 284.981C141.488 284.33 142.159 283.313 142.688 281.929L171.13 204.048H182.361L210.132 281.929C210.62 283.313 211.271 284.35 212.085 285.042C212.899 285.693 213.733 286.1 214.587 286.263C215.483 286.425 216.581 286.527 217.883 286.568C218.656 286.568 219.226 286.588 219.592 286.629ZM173.328 219.49L159.595 256.966H185.352L173.328 219.49ZM281.226 293.831C273.454 293.831 266.211 292.387 259.497 289.498C252.824 286.609 247.351 281.827 243.079 275.154C238.847 268.44 236.731 259.692 236.731 248.909C236.731 238.777 238.908 230.314 243.262 223.519C247.616 216.683 253.109 211.657 259.741 208.443C266.374 205.188 273.108 203.56 279.944 203.56C286.169 203.56 291.174 203.987 294.958 204.842C298.783 205.656 302.344 206.714 305.64 208.016L308.203 208.931L309.424 228.157C309.505 228.808 309.139 229.378 308.325 229.866C307.552 230.354 306.84 230.599 306.189 230.599L305.457 230.66C304.724 230.66 304.073 230.517 303.503 230.232C302.934 229.948 302.588 229.5 302.466 228.89C301.042 223.071 298.539 218.371 294.958 214.791C291.378 211.21 286.332 209.419 279.822 209.419C275.509 209.419 271.562 210.355 267.981 212.227C264.4 214.058 261.348 217.883 258.826 223.702C256.344 229.52 255.103 237.923 255.103 248.909C255.103 259.326 256.486 267.444 259.253 273.262C262.061 279.04 265.397 282.946 269.263 284.981C273.128 287.015 277.096 288.033 281.165 288.033C287.431 288.033 292.354 286.181 295.935 282.479C299.516 278.735 301.876 273.913 303.015 268.013C303.178 267.24 303.442 266.711 303.809 266.426C304.215 266.141 304.765 265.999 305.457 265.999C306.148 265.999 306.982 266.202 307.959 266.609C308.936 266.976 309.424 267.464 309.424 268.074L307.532 285.408C307.45 286.059 306.169 287.097 303.687 288.521C301.204 289.904 297.97 291.125 293.982 292.183C289.994 293.282 285.742 293.831 281.226 293.831ZM386.926 292.61C387.781 297.9 390.141 302.356 394.006 305.977C397.872 309.598 404.118 311.389 412.744 311.348V315.987C411.686 316.475 410.12 316.902 408.044 317.269C405.969 317.675 403.63 317.879 401.025 317.879C393.132 317.879 386.214 316.17 380.273 312.752C374.373 309.375 370.569 302.864 368.86 293.221C361.698 292.081 355.493 289.416 350.244 285.225C345.036 280.993 341.048 275.683 338.281 269.295C335.514 262.866 334.131 255.867 334.131 248.299C334.131 239.917 335.84 232.328 339.258 225.533C342.716 218.737 347.66 213.387 354.089 209.48C360.559 205.534 368.107 203.56 376.733 203.56C385.36 203.56 392.847 205.534 399.194 209.48C405.542 213.387 410.384 218.737 413.721 225.533C417.098 232.287 418.787 239.876 418.787 248.299C418.787 255.501 417.525 262.174 415.002 268.318C412.48 274.463 408.818 279.671 404.016 283.943C399.215 288.175 393.518 291.064 386.926 292.61ZM352.014 248.421C352.014 261.401 353.886 271.248 357.629 277.962C361.373 284.676 367.7 288.033 376.611 288.033C382.633 288.033 387.415 286.486 390.955 283.394C394.535 280.261 397.078 275.805 398.584 270.027C400.09 264.209 400.842 257.007 400.842 248.421C400.842 239.876 400.049 232.735 398.462 226.998C396.916 221.26 394.332 216.866 390.71 213.814C387.13 210.762 382.308 209.236 376.245 209.236C370.182 209.236 365.361 210.762 361.78 213.814C358.24 216.866 355.717 221.26 354.211 226.998C352.747 232.694 352.014 239.835 352.014 248.421ZM519.116 260.506C519.116 267.586 517.834 273.608 515.271 278.572C512.748 283.536 509.086 287.321 504.285 289.925C499.524 292.488 493.827 293.77 487.195 293.77C475.924 293.77 467.257 290.861 461.194 285.042C455.172 279.223 452.181 270.821 452.222 259.834L452.283 216.683C452.283 215.055 451.855 213.834 451.001 213.021C450.146 212.166 449.129 211.617 447.949 211.373C446.81 211.128 445.365 210.925 443.616 210.762C442.721 210.681 442.131 210.518 441.846 210.274C441.561 209.989 441.418 209.399 441.418 208.504C441.418 207.894 441.602 207.222 441.968 206.49C442.375 205.757 442.883 205.391 443.494 205.391H477.063C477.673 205.391 478.162 205.757 478.528 206.49C478.935 207.222 479.138 207.894 479.138 208.504C479.138 209.196 478.975 209.745 478.65 210.152C478.365 210.518 477.856 210.722 477.124 210.762C474.52 210.966 472.302 211.373 470.471 211.983C468.64 212.553 467.725 213.448 467.725 214.668L467.664 260.018C467.664 269.743 469.271 276.843 472.485 281.319C475.7 285.795 480.684 288.033 487.439 288.033C503.878 288.033 512.097 278.898 512.097 260.628V216.072C512.097 214.323 511.019 213.082 508.862 212.349C506.746 211.617 504.244 211.088 501.355 210.762C500.46 210.681 499.87 210.518 499.585 210.274C499.3 209.989 499.158 209.399 499.158 208.504C499.158 207.894 499.341 207.222 499.707 206.49C500.114 205.757 500.623 205.391 501.233 205.391H529.675C530.286 205.391 530.774 205.757 531.14 206.49C531.547 207.222 531.75 207.894 531.75 208.504C531.75 209.196 531.588 209.745 531.262 210.152C530.977 210.518 530.469 210.722 529.736 210.762C526.481 210.925 523.918 211.535 522.046 212.593C520.174 213.611 519.238 215.055 519.238 216.927L519.116 260.506ZM634.46 286.629C635.356 286.71 635.946 286.893 636.23 287.178C636.515 287.422 636.658 287.992 636.658 288.887C636.658 289.498 636.454 290.169 636.047 290.901C635.681 291.634 635.193 292 634.583 292H601.501C600.891 292 600.382 291.634 599.976 290.901C599.609 290.169 599.426 289.498 599.426 288.887C599.426 288.195 599.569 287.667 599.854 287.3C600.138 286.934 600.667 286.71 601.44 286.629L603.943 286.507C606.018 286.466 607.483 286.364 608.337 286.202C609.192 285.998 609.619 285.551 609.619 284.859C609.619 284.533 609.558 284.228 609.436 283.943L601.99 262.215L572.693 262.154L565.186 283.943C565.104 284.147 565.063 284.391 565.063 284.676C565.063 285.408 565.511 285.876 566.406 286.08C567.301 286.283 568.827 286.425 570.984 286.507C571.594 286.507 572.591 286.548 573.975 286.629C574.748 286.71 575.277 286.934 575.562 287.3C575.846 287.667 575.989 288.195 575.989 288.887C575.989 289.498 575.785 290.169 575.378 290.901C575.012 291.634 574.524 292 573.914 292H548.096C547.445 292 546.936 291.695 546.57 291.084C546.204 290.474 546.021 289.742 546.021 288.887C546.021 287.992 546.163 287.422 546.448 287.178C546.733 286.893 547.323 286.71 548.218 286.629C548.543 286.588 549.093 286.568 549.866 286.568C551.168 286.527 552.226 286.425 553.04 286.263C553.894 286.059 554.728 285.632 555.542 284.981C556.356 284.33 557.027 283.313 557.556 281.929L585.999 204.048H597.229L625 281.929C625.488 283.313 626.139 284.35 626.953 285.042C627.767 285.693 628.601 286.1 629.456 286.263C630.351 286.425 631.449 286.527 632.751 286.568C633.525 286.568 634.094 286.588 634.46 286.629ZM588.196 219.49L574.463 256.966H600.22L588.196 219.49ZM655.627 292C655.017 292 654.508 291.634 654.102 290.901C653.735 290.169 653.552 289.498 653.552 288.887C653.552 288.195 653.695 287.667 653.979 287.3C654.264 286.934 654.793 286.71 655.566 286.629C658.008 286.425 660.063 286.039 661.731 285.469C663.399 284.859 664.233 283.943 664.233 282.723L664.294 216.683C664.294 215.055 663.867 213.834 663.013 213.021C662.158 212.207 661.182 211.698 660.083 211.495C659.025 211.25 657.52 211.006 655.566 210.762C654.671 210.681 654.081 210.518 653.796 210.274C653.512 209.989 653.369 209.399 653.369 208.504C653.369 207.894 653.552 207.222 653.918 206.49C654.325 205.757 654.834 205.391 655.444 205.391L666.919 205.33C669.889 205.33 673.653 205.249 678.21 205.086C678.861 205.045 680.428 204.984 682.91 204.903C685.392 204.821 688.057 204.801 690.906 204.842C700.916 204.882 708.769 206.754 714.465 210.457C720.203 214.119 723.071 219.938 723.071 227.913C723.071 234.505 721.301 239.713 717.761 243.538C714.221 247.363 709.155 250.15 702.563 251.9C706.185 252.266 709.115 253.263 711.353 254.891C713.631 256.478 715.401 258.37 716.663 260.567C717.924 262.764 719.307 265.714 720.813 269.417C721.83 271.858 722.664 273.791 723.315 275.215C723.966 276.639 724.74 278.043 725.635 279.427C726.896 281.868 728.28 283.638 729.785 284.737C731.331 285.795 732.959 286.405 734.668 286.568C735.522 286.649 736.092 286.873 736.377 287.239C736.702 287.605 736.865 288.257 736.865 289.192C736.865 289.762 736.662 290.372 736.255 291.023C735.889 291.674 735.4 292 734.79 292H716.968C715.259 292 713.774 291.288 712.512 289.864C711.251 288.44 710.173 286.649 709.277 284.493C708.382 282.336 707.304 279.406 706.042 275.704C704.415 270.984 702.95 267.179 701.648 264.29C700.387 261.401 698.698 258.939 696.582 256.905C694.466 254.87 691.882 253.853 688.831 253.853H679.187V280.708C679.187 282.336 679.696 283.557 680.713 284.371C681.771 285.184 682.992 285.734 684.375 286.019C685.758 286.263 687.508 286.466 689.624 286.629C690.519 286.71 691.109 286.893 691.394 287.178C691.679 287.422 691.821 287.992 691.821 288.887C691.821 289.498 691.618 290.169 691.211 290.901C690.845 291.634 690.356 292 689.746 292H655.627ZM689.014 248.604C694.629 248.604 699.084 247.18 702.38 244.332C705.676 241.483 707.324 236.641 707.324 229.805C707.324 223.051 705.636 218.188 702.258 215.218C698.922 212.207 694.161 210.701 687.976 210.701H679.248V248.604H689.014ZM760.657 292C760.046 292 759.538 291.634 759.131 290.901C758.765 290.169 758.582 289.498 758.582 288.887C758.582 288.195 758.724 287.667 759.009 287.3C759.334 286.893 759.863 286.67 760.596 286.629C763.037 286.425 765.112 286.039 766.821 285.469C768.571 284.859 769.446 283.943 769.446 282.723L769.507 216.683C769.507 215.055 769.039 213.834 768.103 213.021C767.167 212.207 766.109 211.678 764.929 211.434C763.749 211.189 762.183 210.966 760.229 210.762C759.334 210.681 758.744 210.518 758.459 210.274C758.175 209.989 758.032 209.399 758.032 208.504C758.032 207.894 758.215 207.222 758.582 206.49C758.988 205.757 759.497 205.391 760.107 205.391H793.555C794.165 205.391 794.653 205.757 795.02 206.49C795.426 207.222 795.63 207.894 795.63 208.504C795.63 209.196 795.467 209.745 795.142 210.152C794.857 210.518 794.348 210.722 793.616 210.762C791.134 210.966 789.038 211.373 787.329 211.983C785.62 212.553 784.766 213.448 784.766 214.668L784.705 280.708C784.705 282.336 785.173 283.557 786.108 284.371C787.044 285.184 788.102 285.713 789.282 285.958C790.462 286.202 792.029 286.425 793.982 286.629C794.877 286.71 795.467 286.893 795.752 287.178C796.037 287.422 796.179 287.992 796.179 288.887C796.179 289.498 795.976 290.169 795.569 290.901C795.203 291.634 794.714 292 794.104 292H760.657ZM821.619 288.887C821.619 288.195 821.761 287.667 822.046 287.3C822.331 286.934 822.86 286.71 823.633 286.629C826.074 286.425 828.17 286.039 829.919 285.469C831.669 284.859 832.544 283.943 832.544 282.723V216.683C832.544 215.096 832.076 213.895 831.14 213.082C830.204 212.268 829.167 211.739 828.027 211.495C826.929 211.25 825.342 211.006 823.267 210.762C822.371 210.681 821.781 210.518 821.497 210.274C821.212 209.989 821.069 209.399 821.069 208.504C821.069 207.894 821.252 207.222 821.619 206.49C822.026 205.757 822.534 205.391 823.145 205.391L886.56 205.33L888.696 225.167C888.737 225.818 888.472 226.326 887.903 226.692C887.374 227.059 886.825 227.242 886.255 227.242C885.4 227.242 884.627 227.12 883.936 226.875C883.244 226.591 882.674 226.041 882.227 225.228L879.907 220.772C878.687 218.249 877.69 216.398 876.917 215.218C876.143 213.997 875.208 213.061 874.109 212.41C873.01 211.718 871.586 211.373 869.836 211.373L848.047 211.434V244.515L863 244.454C863.977 244.332 864.913 243.619 865.808 242.317C866.703 241.015 867.456 239.55 868.066 237.923C868.677 236.255 869.043 234.952 869.165 234.017C869.328 232.715 870.264 232.063 871.973 232.063C872.542 232.063 873.132 232.267 873.743 232.674C874.394 233.04 874.719 233.528 874.719 234.139V261.177C874.719 261.788 874.394 262.296 873.743 262.703C873.132 263.069 872.542 263.252 871.973 263.252C871.2 263.252 870.528 263.11 869.958 262.825C869.389 262.5 869.063 261.971 868.982 261.238C868.901 260.221 868.555 258.838 867.944 257.088C867.334 255.298 866.561 253.731 865.625 252.388C864.689 251.005 863.692 250.313 862.634 250.313L848.047 250.374V279.976C848.047 283.557 849.858 285.51 853.479 285.835L870.996 285.774C874.78 285.774 877.954 284.513 880.518 281.99C883.081 279.427 885.299 275.154 887.17 269.173C887.374 268.522 887.903 268.034 888.757 267.708C889.653 267.342 890.507 267.159 891.321 267.159C892.135 267.159 892.847 267.342 893.457 267.708C894.108 268.074 894.474 268.583 894.556 269.234L891.748 291.939L823.694 292C823.083 292 822.575 291.634 822.168 290.901C821.802 290.169 821.619 289.498 821.619 288.887Z" fill="white"/>
<path d="M717.097 414.629C717.992 414.71 718.582 414.893 718.867 415.178C719.152 415.422 719.294 415.992 719.294 416.887C719.294 417.498 719.091 418.169 718.684 418.901C718.318 419.634 717.83 420 717.219 420H684.138C683.528 420 683.019 419.634 682.612 418.901C682.246 418.169 682.063 417.498 682.063 416.887C682.063 416.195 682.205 415.667 682.49 415.3C682.775 414.934 683.304 414.71 684.077 414.629L686.58 414.507C688.655 414.466 690.12 414.364 690.974 414.202C691.829 413.998 692.256 413.551 692.256 412.859C692.256 412.533 692.195 412.228 692.073 411.943L684.626 390.215L655.33 390.154L647.822 411.943C647.741 412.147 647.7 412.391 647.7 412.676C647.7 413.408 648.148 413.876 649.043 414.08C649.938 414.283 651.464 414.425 653.621 414.507C654.231 414.507 655.228 414.548 656.611 414.629C657.384 414.71 657.913 414.934 658.198 415.3C658.483 415.667 658.625 416.195 658.625 416.887C658.625 417.498 658.422 418.169 658.015 418.901C657.649 419.634 657.161 420 656.55 420H630.732C630.081 420 629.573 419.695 629.207 419.084C628.84 418.474 628.657 417.742 628.657 416.887C628.657 415.992 628.8 415.422 629.084 415.178C629.369 414.893 629.959 414.71 630.854 414.629C631.18 414.588 631.729 414.568 632.502 414.568C633.805 414.527 634.862 414.425 635.676 414.263C636.531 414.059 637.365 413.632 638.179 412.981C638.993 412.33 639.664 411.313 640.193 409.929L668.635 332.048H679.866L707.637 409.929C708.125 411.313 708.776 412.35 709.59 413.042C710.404 413.693 711.238 414.1 712.092 414.263C712.987 414.425 714.086 414.527 715.388 414.568C716.161 414.568 716.731 414.588 717.097 414.629ZM670.833 347.49L657.1 384.966H682.856L670.833 347.49ZM757.441 421.831C753.698 421.831 750.544 421.444 747.981 420.671C745.417 419.898 743.464 419.186 742.122 418.535C740.779 417.884 739.945 417.477 739.619 417.314C739.049 417.03 738.378 416.684 737.605 416.277C737.117 415.992 736.628 415.748 736.14 415.544C735.693 415.341 735.286 415.239 734.919 415.239C734.268 415.239 733.597 415.626 732.905 416.399C731.522 418.067 730.057 418.901 728.511 418.901C727.656 418.901 726.965 418.637 726.436 418.108C725.947 417.538 725.723 416.826 725.764 415.972C725.846 414.751 725.886 413.062 725.886 410.906C725.886 407.488 725.622 403.175 725.093 397.966C724.808 395.118 724.666 393.145 724.666 392.046C724.666 390.866 724.971 389.991 725.581 389.421C726.191 388.811 726.944 388.506 727.839 388.506C728.653 388.506 729.365 388.73 729.976 389.177C730.586 389.625 730.993 390.256 731.196 391.069C731.685 392.9 732.214 394.67 732.783 396.379C733.394 398.048 734.35 400.204 735.652 402.849C737.117 405.738 739.009 408.2 741.328 410.234C743.647 412.269 746.15 413.795 748.835 414.812C751.562 415.829 754.247 416.338 756.892 416.338C761.083 416.338 764.583 415.3 767.39 413.225C770.198 411.109 771.581 407.651 771.541 402.849C771.5 399.797 770.523 397.051 768.611 394.609C766.698 392.127 764.338 389.991 761.531 388.201C758.764 386.37 755.224 384.335 750.911 382.097C746.028 379.574 742 377.235 738.826 375.078C735.652 372.881 732.946 370.134 730.708 366.838C728.47 363.502 727.31 359.575 727.229 355.059C727.148 349.972 728.389 345.659 730.952 342.119C733.516 338.579 736.873 335.934 741.023 334.185C745.214 332.435 749.69 331.56 754.451 331.56C757.462 331.56 759.985 331.784 762.019 332.231C764.094 332.638 766.21 333.208 768.367 333.94C769.75 334.469 770.747 334.734 771.357 334.734C771.968 334.734 772.436 334.653 772.761 334.49C773.127 334.327 773.494 334.083 773.86 333.757C774.226 333.391 774.531 333.147 774.775 333.025C775.223 332.74 775.772 332.598 776.423 332.598C777.319 332.598 778.153 332.842 778.926 333.33C779.699 333.778 780.085 334.307 780.085 334.917C780.126 337.765 780.452 341.794 781.062 347.002C781.469 350.664 781.672 352.922 781.672 353.777C781.672 354.998 781.347 355.893 780.696 356.462C780.045 356.991 779.231 357.256 778.254 357.256C777.603 357.256 777.013 357.134 776.484 356.89C775.955 356.605 775.61 356.259 775.447 355.852C774.877 352.678 773.778 349.626 772.151 346.697C770.523 343.726 768.285 341.305 765.437 339.434C762.629 337.521 759.293 336.565 755.427 336.565C750.992 336.565 747.432 337.623 744.746 339.739C742.101 341.855 740.779 345.252 740.779 349.932C740.779 352.576 741.715 355.059 743.586 357.378C745.458 359.657 747.737 361.691 750.422 363.481C753.149 365.272 756.668 367.347 760.981 369.707C766.393 372.718 770.706 375.322 773.921 377.52C777.135 379.676 779.943 382.423 782.344 385.759C784.785 389.055 786.006 392.839 786.006 397.112C786.006 402.239 784.724 406.674 782.161 410.417C779.638 414.12 776.2 416.948 771.846 418.901C767.533 420.854 762.731 421.831 757.441 421.831ZM831.294 421.831C827.55 421.831 824.397 421.444 821.833 420.671C819.27 419.898 817.317 419.186 815.974 418.535C814.631 417.884 813.797 417.477 813.472 417.314C812.902 417.03 812.231 416.684 811.458 416.277C810.969 415.992 810.481 415.748 809.993 415.544C809.545 415.341 809.138 415.239 808.772 415.239C808.121 415.239 807.45 415.626 806.758 416.399C805.374 418.067 803.91 418.901 802.363 418.901C801.509 418.901 800.817 418.637 800.288 418.108C799.8 417.538 799.576 416.826 799.617 415.972C799.698 414.751 799.739 413.062 799.739 410.906C799.739 407.488 799.474 403.175 798.945 397.966C798.66 395.118 798.518 393.145 798.518 392.046C798.518 390.866 798.823 389.991 799.434 389.421C800.044 388.811 800.797 388.506 801.692 388.506C802.506 388.506 803.218 388.73 803.828 389.177C804.438 389.625 804.845 390.256 805.049 391.069C805.537 392.9 806.066 394.67 806.636 396.379C807.246 398.048 808.202 400.204 809.504 402.849C810.969 405.738 812.861 408.2 815.181 410.234C817.5 412.269 820.002 413.795 822.688 414.812C825.414 415.829 828.1 416.338 830.745 416.338C834.936 416.338 838.435 415.3 841.243 413.225C844.05 411.109 845.434 407.651 845.393 402.849C845.352 399.797 844.376 397.051 842.463 394.609C840.551 392.127 838.191 389.991 835.383 388.201C832.616 386.37 829.076 384.335 824.763 382.097C819.88 379.574 815.852 377.235 812.678 375.078C809.504 372.881 806.799 370.134 804.561 366.838C802.323 363.502 801.163 359.575 801.082 355.059C801 349.972 802.241 345.659 804.805 342.119C807.368 338.579 810.725 335.934 814.875 334.185C819.067 332.435 823.542 331.56 828.303 331.56C831.314 331.56 833.837 331.784 835.872 332.231C837.947 332.638 840.063 333.208 842.219 333.94C843.603 334.469 844.6 334.734 845.21 334.734C845.82 334.734 846.288 334.653 846.614 334.49C846.98 334.327 847.346 334.083 847.712 333.757C848.079 333.391 848.384 333.147 848.628 333.025C849.076 332.74 849.625 332.598 850.276 332.598C851.171 332.598 852.005 332.842 852.778 333.33C853.551 333.778 853.938 334.307 853.938 334.917C853.979 337.765 854.304 341.794 854.915 347.002C855.321 350.664 855.525 352.922 855.525 353.777C855.525 354.998 855.199 355.893 854.548 356.462C853.897 356.991 853.083 357.256 852.107 357.256C851.456 357.256 850.866 357.134 850.337 356.89C849.808 356.605 849.462 356.259 849.299 355.852C848.73 352.678 847.631 349.626 846.003 346.697C844.376 343.726 842.138 341.305 839.29 339.434C836.482 337.521 833.145 336.565 829.28 336.565C824.845 336.565 821.284 337.623 818.599 339.739C815.954 341.855 814.631 345.252 814.631 349.932C814.631 352.576 815.567 355.059 817.439 357.378C819.311 359.657 821.589 361.691 824.275 363.481C827.001 365.272 830.521 367.347 834.834 369.707C840.246 372.718 844.559 375.322 847.773 377.52C850.988 379.676 853.796 382.423 856.196 385.759C858.638 389.055 859.858 392.839 859.858 397.112C859.858 402.239 858.577 406.674 856.013 410.417C853.49 414.12 850.052 416.948 845.698 418.901C841.385 420.854 836.584 421.831 831.294 421.831ZM871.76 416.887C871.76 416.195 871.903 415.667 872.188 415.3C872.472 414.934 873.001 414.71 873.774 414.629C876.216 414.425 878.311 414.039 880.061 413.469C881.811 412.859 882.686 411.943 882.686 410.723V344.683C882.686 343.096 882.218 341.895 881.282 341.082C880.346 340.268 879.308 339.739 878.169 339.495C877.07 339.25 875.483 339.006 873.408 338.762C872.513 338.681 871.923 338.518 871.638 338.274C871.353 337.989 871.211 337.399 871.211 336.504C871.211 335.894 871.394 335.222 871.76 334.49C872.167 333.757 872.676 333.391 873.286 333.391L936.702 333.33L938.838 353.167C938.879 353.818 938.614 354.326 938.044 354.692C937.515 355.059 936.966 355.242 936.396 355.242C935.542 355.242 934.769 355.12 934.077 354.875C933.385 354.591 932.816 354.041 932.368 353.228L930.049 348.772C928.828 346.249 927.831 344.398 927.058 343.218C926.285 341.997 925.349 341.061 924.25 340.41C923.152 339.718 921.728 339.373 919.978 339.373L898.188 339.434V372.515L913.142 372.454C914.119 372.332 915.055 371.619 915.95 370.317C916.845 369.015 917.598 367.55 918.208 365.923C918.818 364.255 919.185 362.952 919.307 362.017C919.469 360.715 920.405 360.063 922.114 360.063C922.684 360.063 923.274 360.267 923.884 360.674C924.535 361.04 924.861 361.528 924.861 362.139V389.177C924.861 389.788 924.535 390.296 923.884 390.703C923.274 391.069 922.684 391.252 922.114 391.252C921.341 391.252 920.67 391.11 920.1 390.825C919.53 390.5 919.205 389.971 919.124 389.238C919.042 388.221 918.696 386.838 918.086 385.088C917.476 383.298 916.702 381.731 915.767 380.388C914.831 379.005 913.834 378.313 912.776 378.313L898.188 378.374V407.976C898.188 411.557 899.999 413.51 903.621 413.835L921.138 413.774C924.922 413.774 928.096 412.513 930.659 409.99C933.223 407.427 935.44 403.154 937.312 397.173C937.515 396.522 938.044 396.034 938.899 395.708C939.794 395.342 940.649 395.159 941.462 395.159C942.276 395.159 942.988 395.342 943.599 395.708C944.25 396.074 944.616 396.583 944.697 397.234L941.89 419.939L873.835 420C873.225 420 872.716 419.634 872.31 418.901C871.943 418.169 871.76 417.498 871.76 416.887ZM969.783 420C969.172 420 968.664 419.634 968.257 418.901C967.891 418.169 967.708 417.498 967.708 416.887C967.708 416.195 967.85 415.667 968.135 415.3C968.42 414.934 968.949 414.71 969.722 414.629C973.384 414.425 976.375 413.937 978.694 413.164C981.054 412.35 982.234 410.926 982.234 408.892L982.295 339.434H966.853C964.737 339.434 963.008 340.675 961.665 343.157C960.363 345.598 959.407 348.304 958.796 351.274C958.186 354.245 957.799 356.829 957.637 359.026C957.474 360.369 956.599 361.04 955.012 361.04C954.402 361.04 953.71 360.857 952.937 360.491C952.205 360.084 951.859 359.575 951.899 358.965C952.144 352.78 952.428 346.982 952.754 341.57C953.12 336.117 953.507 333.391 953.914 333.391H1025.57C1025.98 333.391 1026.36 336.3 1026.73 342.119C1027.14 347.897 1027.42 353.512 1027.58 358.965C1027.58 359.575 1027.22 360.084 1026.48 360.491C1025.75 360.857 1025.08 361.04 1024.47 361.04C1022.84 361.04 1021.95 360.369 1021.78 359.026C1021.46 354.875 1020.6 350.583 1019.22 346.147C1017.84 341.672 1015.64 339.434 1012.63 339.434H997.554L997.493 408.708C997.493 410.336 998.123 411.557 999.385 412.371C1000.65 413.184 1002.09 413.734 1003.72 414.019C1005.35 414.263 1007.38 414.466 1009.82 414.629C1010.72 414.71 1011.31 414.893 1011.59 415.178C1011.88 415.422 1012.02 415.992 1012.02 416.887C1012.02 417.498 1011.82 418.169 1011.41 418.901C1011.04 419.634 1010.55 420 1009.94 420H969.783ZM1069.7 421.831C1065.95 421.831 1062.8 421.444 1060.24 420.671C1057.67 419.898 1055.72 419.186 1054.38 418.535C1053.03 417.884 1052.2 417.477 1051.88 417.314C1051.31 417.03 1050.63 416.684 1049.86 416.277C1049.37 415.992 1048.88 415.748 1048.4 415.544C1047.95 415.341 1047.54 415.239 1047.18 415.239C1046.52 415.239 1045.85 415.626 1045.16 416.399C1043.78 418.067 1042.31 418.901 1040.77 418.901C1039.91 418.901 1039.22 418.637 1038.69 418.108C1038.2 417.538 1037.98 416.826 1038.02 415.972C1038.1 414.751 1038.14 413.062 1038.14 410.906C1038.14 407.488 1037.88 403.175 1037.35 397.966C1037.06 395.118 1036.92 393.145 1036.92 392.046C1036.92 390.866 1037.23 389.991 1037.84 389.421C1038.45 388.811 1039.2 388.506 1040.1 388.506C1040.91 388.506 1041.62 388.73 1042.23 389.177C1042.84 389.625 1043.25 390.256 1043.45 391.069C1043.94 392.9 1044.47 394.67 1045.04 396.379C1045.65 398.048 1046.61 400.204 1047.91 402.849C1049.37 405.738 1051.26 408.2 1053.58 410.234C1055.9 412.269 1058.41 413.795 1061.09 414.812C1063.82 415.829 1066.5 416.338 1069.15 416.338C1073.34 416.338 1076.84 415.3 1079.65 413.225C1082.45 411.109 1083.84 407.651 1083.8 402.849C1083.76 399.797 1082.78 397.051 1080.87 394.609C1078.95 392.127 1076.59 389.991 1073.79 388.201C1071.02 386.37 1067.48 384.335 1063.17 382.097C1058.28 379.574 1054.26 377.235 1051.08 375.078C1047.91 372.881 1045.2 370.134 1042.96 366.838C1040.73 363.502 1039.57 359.575 1039.48 355.059C1039.4 349.972 1040.64 345.659 1043.21 342.119C1045.77 338.579 1049.13 335.934 1053.28 334.185C1057.47 332.435 1061.95 331.56 1066.71 331.56C1069.72 331.56 1072.24 331.784 1074.27 332.231C1076.35 332.638 1078.47 333.208 1080.62 333.94C1082.01 334.469 1083 334.734 1083.61 334.734C1084.22 334.734 1084.69 334.653 1085.02 334.49C1085.38 334.327 1085.75 334.083 1086.12 333.757C1086.48 333.391 1086.79 333.147 1087.03 333.025C1087.48 332.74 1088.03 332.598 1088.68 332.598C1089.57 332.598 1090.41 332.842 1091.18 333.33C1091.95 333.778 1092.34 334.307 1092.34 334.917C1092.38 337.765 1092.71 341.794 1093.32 347.002C1093.72 350.664 1093.93 352.922 1093.93 353.777C1093.93 354.998 1093.6 355.893 1092.95 356.462C1092.3 356.991 1091.49 357.256 1090.51 357.256C1089.86 357.256 1089.27 357.134 1088.74 356.89C1088.21 356.605 1087.87 356.259 1087.7 355.852C1087.13 352.678 1086.03 349.626 1084.41 346.697C1082.78 343.726 1080.54 341.305 1077.69 339.434C1074.89 337.521 1071.55 336.565 1067.68 336.565C1063.25 336.565 1059.69 337.623 1057 339.739C1054.36 341.855 1053.03 345.252 1053.03 349.932C1053.03 352.576 1053.97 355.059 1055.84 357.378C1057.71 359.657 1059.99 361.691 1062.68 363.481C1065.4 365.272 1068.92 367.347 1073.24 369.707C1078.65 372.718 1082.96 375.322 1086.18 377.52C1089.39 379.676 1092.2 382.423 1094.6 385.759C1097.04 389.055 1098.26 392.839 1098.26 397.112C1098.26 402.239 1096.98 406.674 1094.42 410.417C1091.89 414.12 1088.46 416.948 1084.1 418.901C1079.79 420.854 1074.99 421.831 1069.7 421.831ZM1141.66 420C1141.05 420 1140.54 419.634 1140.13 418.901C1139.77 418.169 1139.58 417.498 1139.58 416.887C1139.58 416.195 1139.72 415.667 1140.01 415.3C1140.29 414.934 1140.82 414.71 1141.6 414.629C1143.79 414.507 1145.6 414.303 1147.03 414.019C1148.45 413.734 1149.67 413.184 1150.69 412.371C1151.75 411.557 1152.28 410.356 1152.28 408.77V344.683C1152.28 343.055 1151.71 341.834 1150.57 341.021C1149.47 340.207 1148.19 339.678 1146.72 339.434C1145.26 339.149 1143.43 338.925 1141.23 338.762C1140.34 338.681 1139.75 338.518 1139.46 338.274C1139.18 337.989 1139.03 337.399 1139.03 336.504C1139.03 335.894 1139.22 335.243 1139.58 334.551C1139.99 333.818 1140.5 333.432 1141.11 333.391H1174.31L1188.84 376.36L1196.16 395.281L1214.66 342.241C1216 338.416 1216.83 335.466 1217.16 333.391H1247C1247.61 333.391 1248.1 333.757 1248.47 334.49C1248.88 335.222 1249.08 335.894 1249.08 336.504C1249.08 337.196 1248.94 337.725 1248.65 338.091C1248.37 338.457 1247.84 338.681 1247.07 338.762C1244.58 338.966 1242.49 339.373 1240.78 339.983C1239.07 340.553 1238.22 341.448 1238.22 342.668L1238.15 408.708C1238.15 410.295 1238.62 411.496 1239.56 412.31C1240.53 413.123 1241.57 413.652 1242.67 413.896C1243.81 414.141 1245.44 414.385 1247.55 414.629C1248.45 414.71 1249.04 414.893 1249.32 415.178C1249.61 415.422 1249.75 415.992 1249.75 416.887C1249.75 417.498 1249.55 418.169 1249.14 418.901C1248.77 419.634 1248.29 420 1247.68 420H1213.68C1213.07 420 1212.56 419.634 1212.15 418.901C1211.79 418.169 1211.6 417.498 1211.6 416.887C1211.6 416.195 1211.75 415.667 1212.03 415.3C1212.32 414.934 1212.85 414.71 1213.62 414.629C1216.14 414.425 1218.32 414.019 1220.15 413.408C1222.02 412.798 1222.96 411.903 1222.96 410.723L1223.02 341.814H1220.94L1193.72 420H1190.49L1160.46 341.814H1158.2V408.708C1158.2 410.295 1158.81 411.516 1160.03 412.371C1161.25 413.184 1162.63 413.734 1164.18 414.019C1165.73 414.263 1167.64 414.466 1169.92 414.629C1170.81 414.71 1171.4 414.893 1171.69 415.178C1171.97 415.422 1172.11 415.992 1172.11 416.887C1172.11 417.498 1171.91 418.169 1171.5 418.901C1171.14 419.634 1170.65 420 1170.04 420H1141.66ZM1303.1 421.831C1296.5 421.831 1289.85 420.326 1283.14 417.314C1276.46 414.303 1270.83 409.441 1266.23 402.727C1261.67 395.972 1259.39 387.367 1259.39 376.909C1259.39 366.452 1261.69 357.826 1266.29 351.03C1270.93 344.235 1276.69 339.291 1283.56 336.199C1290.48 333.106 1297.46 331.56 1304.5 331.56C1315.69 331.56 1325.33 333.35 1333.43 336.931L1334.77 355.852C1334.85 356.503 1334.59 357.073 1333.98 357.561C1333.37 358.049 1332.78 358.293 1332.21 358.293L1331.48 358.354C1330.74 358.354 1330.07 358.212 1329.46 357.927C1328.89 357.642 1328.57 357.195 1328.49 356.584C1326.9 350.888 1324.15 346.29 1320.25 342.791C1316.34 339.25 1311.05 337.46 1304.38 337.419C1300.47 337.379 1296.46 338.437 1292.35 340.593C1288.28 342.709 1284.74 346.717 1281.73 352.617C1278.72 358.477 1277.22 366.574 1277.22 376.909C1277.22 386.105 1278.74 393.633 1281.79 399.492C1284.85 405.352 1288.53 409.583 1292.84 412.188C1297.15 414.751 1301.31 416.033 1305.29 416.033C1310.91 416.033 1314.9 415.26 1317.26 413.713C1319.66 412.167 1320.86 410.255 1320.86 407.976V392.168C1320.86 390.54 1320.31 389.32 1319.21 388.506C1318.11 387.692 1316.81 387.163 1315.3 386.919C1313.84 386.634 1311.99 386.41 1309.75 386.248C1308.85 386.166 1308.26 386.003 1307.98 385.759C1307.69 385.474 1307.55 384.884 1307.55 383.989C1307.55 383.379 1307.73 382.708 1308.1 381.975C1308.51 381.243 1309.02 380.876 1309.63 380.876H1343.32C1343.93 380.876 1344.42 381.243 1344.78 381.975C1345.19 382.708 1345.39 383.379 1345.39 383.989C1345.39 384.681 1345.23 385.23 1344.9 385.637C1344.62 386.003 1344.11 386.207 1343.38 386.248C1341.14 386.492 1339.31 386.899 1337.89 387.468C1336.5 388.038 1335.81 388.933 1335.81 390.154L1336.12 412.493C1335.34 413.591 1333.51 414.873 1330.62 416.338C1327.73 417.803 1323.91 419.084 1319.15 420.183C1314.43 421.282 1309.08 421.831 1303.1 421.831ZM1355.77 420C1355.16 420 1354.65 419.634 1354.24 418.901C1353.88 418.169 1353.69 417.498 1353.69 416.887C1353.69 416.195 1353.84 415.667 1354.12 415.3C1354.41 414.934 1354.93 414.71 1355.71 414.629C1357.91 414.507 1359.72 414.303 1361.14 414.019C1362.56 413.734 1363.78 413.184 1364.8 412.371C1365.86 411.557 1366.39 410.356 1366.39 408.77V344.683C1366.39 343.055 1365.82 341.834 1364.68 341.021C1363.58 340.207 1362.3 339.678 1360.83 339.434C1359.37 339.149 1357.54 338.925 1355.34 338.762C1354.45 338.681 1353.86 338.518 1353.57 338.274C1353.29 337.989 1353.14 337.399 1353.14 336.504C1353.14 335.894 1353.33 335.243 1353.69 334.551C1354.1 333.818 1354.61 333.432 1355.22 333.391H1388.42L1402.95 376.36L1410.27 395.281L1428.77 342.241C1430.11 338.416 1430.94 335.466 1431.27 333.391H1461.12C1461.73 333.391 1462.21 333.757 1462.58 334.49C1462.99 335.222 1463.19 335.894 1463.19 336.504C1463.19 337.196 1463.05 337.725 1462.76 338.091C1462.48 338.457 1461.95 338.681 1461.18 338.762C1458.69 338.966 1456.6 339.373 1454.89 339.983C1453.18 340.553 1452.33 341.448 1452.33 342.668L1452.27 408.708C1452.27 410.295 1452.73 411.496 1453.67 412.31C1454.65 413.123 1455.68 413.652 1456.78 413.896C1457.92 414.141 1459.55 414.385 1461.67 414.629C1462.56 414.71 1463.15 414.893 1463.44 415.178C1463.72 415.422 1463.86 415.992 1463.86 416.887C1463.86 417.498 1463.66 418.169 1463.25 418.901C1462.89 419.634 1462.4 420 1461.79 420H1427.79C1427.18 420 1426.67 419.634 1426.26 418.901C1425.9 418.169 1425.72 417.498 1425.72 416.887C1425.72 416.195 1425.86 415.667 1426.14 415.3C1426.43 414.934 1426.96 414.71 1427.73 414.629C1430.25 414.425 1432.43 414.019 1434.26 413.408C1436.13 412.798 1437.07 411.903 1437.07 410.723L1437.13 341.814H1435.05L1407.83 420H1404.6L1374.57 341.814H1372.31V408.708C1372.31 410.295 1372.92 411.516 1374.14 412.371C1375.36 413.184 1376.74 413.734 1378.29 414.019C1379.84 414.263 1381.75 414.466 1384.03 414.629C1384.92 414.71 1385.51 414.893 1385.8 415.178C1386.08 415.422 1386.23 415.992 1386.23 416.887C1386.23 417.498 1386.02 418.169 1385.62 418.901C1385.25 419.634 1384.76 420 1384.15 420H1355.77ZM1488.58 420C1487.97 420 1487.46 419.634 1487.06 418.901C1486.69 418.169 1486.51 417.498 1486.51 416.887C1486.51 416.195 1486.65 415.667 1486.93 415.3C1487.22 414.934 1487.75 414.71 1488.52 414.629C1492.18 414.425 1495.17 413.937 1497.49 413.164C1499.85 412.35 1501.03 410.926 1501.03 408.892L1501.09 339.434H1485.65C1483.54 339.434 1481.81 340.675 1480.46 343.157C1479.16 345.598 1478.21 348.304 1477.6 351.274C1476.98 354.245 1476.6 356.829 1476.44 359.026C1476.27 360.369 1475.4 361.04 1473.81 361.04C1473.2 361.04 1472.51 360.857 1471.74 360.491C1471 360.084 1470.66 359.575 1470.7 358.965C1470.94 352.78 1471.23 346.982 1471.55 341.57C1471.92 336.117 1472.31 333.391 1472.71 333.391H1544.37C1544.77 333.391 1545.16 336.3 1545.53 342.119C1545.93 347.897 1546.22 353.512 1546.38 358.965C1546.38 359.575 1546.02 360.084 1545.28 360.491C1544.55 360.857 1543.88 361.04 1543.27 361.04C1541.64 361.04 1540.75 360.369 1540.58 359.026C1540.26 354.875 1539.4 350.583 1538.02 346.147C1536.64 341.672 1534.44 339.434 1531.43 339.434H1516.35L1516.29 408.708C1516.29 410.336 1516.92 411.557 1518.18 412.371C1519.44 413.184 1520.89 413.734 1522.52 414.019C1524.14 414.263 1526.18 414.466 1528.62 414.629C1529.52 414.71 1530.11 414.893 1530.39 415.178C1530.68 415.422 1530.82 415.992 1530.82 416.887C1530.82 417.498 1530.61 418.169 1530.21 418.901C1529.84 419.634 1529.35 420 1528.74 420H1488.58Z" fill="white"/>
</svg>
