<svg width="15" height="16" viewBox="0 0 15 16" fill="none" xmlns="http://www.w3.org/2000/svg">
<g clip-path="url(#clip0_1131_356)">
<path d="M3.28609 11.3177C3.05072 11.3177 2.86216 11.1276 2.86216 10.8932C2.86216 10.6589 3.05332 10.4688 3.28609 10.4688H6.08062C6.31599 10.4688 6.50455 10.6589 6.50455 10.8932C6.50455 11.1276 6.31469 11.3177 6.08062 11.3177H3.28609ZM7.94538 10.0872C7.82055 10.0872 7.71391 9.98047 7.71391 9.85026C7.71391 9.72526 7.82055 9.61849 7.94538 9.61849H8.55007C8.55527 9.61849 8.56827 9.61849 8.57347 9.61849C8.78674 9.6237 8.97659 9.66537 9.13654 9.76693C9.31469 9.88021 9.44473 10.0521 9.51625 10.3073C9.51625 10.3125 9.51626 10.319 9.52276 10.3255L9.58257 10.5625H14.7698C14.8999 10.5625 15.0013 10.6693 15.0013 10.7943C15.0013 10.8177 14.9948 10.8411 14.9896 10.8659L14.3849 13.306C14.3615 13.4128 14.2666 13.4844 14.1599 13.4844H10.3654C10.4486 13.793 10.5319 13.9596 10.6437 14.0365C10.7802 14.125 11.0169 14.1315 11.4148 14.125H11.42H14.1001C14.2302 14.125 14.3316 14.2318 14.3316 14.3568C14.3316 14.487 14.225 14.5885 14.1001 14.5885H11.4187C10.9259 14.5938 10.6242 14.582 10.381 14.4219C10.1313 14.2552 10.0013 13.9714 9.87126 13.4544L9.07672 10.4427C9.07672 10.4362 9.07672 10.4362 9.07152 10.431C9.03641 10.3008 8.97659 10.2109 8.89337 10.1641C8.81014 10.1107 8.69831 10.0872 8.56697 10.0872C8.56047 10.0872 8.55527 10.0872 8.54876 10.0872H7.94538ZM13.4057 14.8607C13.7204 14.8607 13.9753 15.1159 13.9753 15.431C13.9753 15.7461 13.7204 16.0013 13.4057 16.0013C13.091 16.0013 12.8362 15.7461 12.8362 15.431C12.8362 15.1159 13.091 14.8607 13.4057 14.8607ZM10.909 14.8607C11.2237 14.8607 11.4785 15.1159 11.4785 15.431C11.4785 15.7461 11.2237 16.0013 10.909 16.0013C10.5943 16.0013 10.3394 15.7461 10.3394 15.431C10.3394 15.1159 10.5956 14.8607 10.909 14.8607ZM3.28609 4.3724C3.05072 4.3724 2.86216 4.18099 2.86216 3.94792C2.86216 3.71354 3.05332 3.52344 3.28609 3.52344H9.85566C10.091 3.52344 10.2796 3.71354 10.2796 3.94792C10.2796 4.18229 10.0897 4.3724 9.85566 4.3724H3.28609ZM0.984395 0H12.1196C12.3914 0 12.6385 0.110677 12.8153 0.28776C12.9922 0.464844 13.1027 0.71224 13.1027 0.984375V8.79427H12.2575V0.988281C12.2575 0.950521 12.2419 0.915365 12.2172 0.889323C12.1912 0.864583 12.156 0.848958 12.1183 0.848958H0.984395C0.946684 0.848958 0.911573 0.864583 0.885566 0.889323C0.859558 0.914063 0.846554 0.950521 0.846554 0.988281V13.8359C0.846554 13.8737 0.862159 13.9089 0.886866 13.9349C0.911573 13.9609 0.946684 13.9753 0.985696 13.9753H8.14434C8.22367 14.2865 8.31339 14.5586 8.43433 14.8177H0.984395C0.712614 14.8177 0.46554 14.707 0.288687 14.5299C0.110533 14.3542 0 14.1068 0 13.8346V0.985677C0 0.713542 0.110533 0.464844 0.287386 0.28776C0.464239 0.110677 0.712614 0 0.984395 0ZM3.28609 7.84505C3.05072 7.84505 2.86216 7.65495 2.86216 7.42057C2.86216 7.1862 3.05332 6.99609 3.28609 6.99609H9.85566C10.091 6.99609 10.2796 7.1862 10.2796 7.42057C10.2796 7.65495 10.0897 7.84505 9.85566 7.84505H3.28609Z" fill="#AB854F"/>
</g>
<defs>
<clipPath id="clip0_1131_356">
<rect width="15" height="16" fill="white"/>
</clipPath>
</defs>
</svg>
