<svg width="1454" height="441" viewBox="0 0 1454 441" fill="none" xmlns="http://www.w3.org/2000/svg">
<path d="M54.72 280.48V392H44.32V280.48H54.72ZM95.84 279.84V284.64H3.2V279.84H95.84ZM95.84 284.16V297.12L94.24 296.96V294.24C94.24 291.573 93.28 289.333 91.36 287.52C89.5467 285.707 87.36 284.747 84.8 284.64V284.16H95.84ZM95.84 276.96V281.6L76.32 279.84C78.6667 279.84 81.12 279.68 83.68 279.36C86.3467 279.04 88.8 278.667 91.04 278.24C93.28 277.813 94.88 277.387 95.84 276.96ZM44.8 380.32V392H32V390.4C32 390.4 32.32 390.4 32.96 390.4C33.7067 390.4 34.08 390.4 34.08 390.4C36.8533 390.4 39.2 389.44 41.12 387.52C43.1467 385.493 44.2133 383.093 44.32 380.32H44.8ZM54.24 380.32H54.72C54.8267 383.093 55.84 385.493 57.76 387.52C59.7867 389.44 62.1867 390.4 64.96 390.4C64.96 390.4 65.28 390.4 65.92 390.4C66.6667 390.4 67.04 390.4 67.04 390.4V392H54.24V380.32ZM14.24 284.16V284.64C11.5733 284.747 9.33333 285.707 7.52 287.52C5.70667 289.333 4.8 291.573 4.8 294.24V296.96L3.2 297.12V284.16H14.24ZM3.2 276.96C4.26667 277.387 5.86667 277.813 8 278.24C10.24 278.667 12.6933 279.04 15.36 279.36C18.0267 279.68 20.48 279.84 22.72 279.84L3.2 281.6V276.96ZM137.946 280H160.506C165.306 280 169.626 280.693 173.466 282.08C177.413 283.467 180.72 285.493 183.386 288.16C186.053 290.72 188.08 293.867 189.466 297.6C190.96 301.227 191.706 305.387 191.706 310.08C191.706 315.2 190.48 320.107 188.026 324.8C185.68 329.493 182.426 333.333 178.266 336.32C174.213 339.2 169.626 340.64 164.506 340.64C166.32 341.387 168.293 342.933 170.426 345.28C172.56 347.52 174.426 349.707 176.026 351.84C176.026 351.84 176.72 352.907 178.106 355.04C179.6 357.067 181.413 359.573 183.546 362.56C185.786 365.547 188.026 368.48 190.266 371.36C192.506 374.24 194.426 376.533 196.026 378.24C198.16 380.587 200.293 382.667 202.426 384.48C204.56 386.293 206.853 387.733 209.306 388.8C211.866 389.867 214.693 390.4 217.786 390.4V392H208.986C204.08 392 199.813 391.253 196.186 389.76C192.666 388.267 189.68 386.453 187.226 384.32C184.773 382.08 182.693 379.947 180.986 377.92C180.666 377.493 179.76 376.267 178.266 374.24C176.88 372.213 175.173 369.813 173.146 367.04C171.226 364.16 169.306 361.333 167.386 358.56C165.466 355.787 163.813 353.44 162.426 351.52C161.04 349.493 160.24 348.32 160.026 348C158 345.333 155.76 342.88 153.306 340.64C150.853 338.4 148.186 337.28 145.306 337.28V335.68C145.306 335.68 146.106 335.733 147.706 335.84C149.413 335.84 151.44 335.787 153.786 335.68C156.56 335.573 159.6 335.147 162.906 334.4C166.213 333.653 169.306 332.107 172.186 329.76C175.066 327.413 177.253 323.84 178.746 319.04C179.066 317.867 179.333 316.427 179.546 314.72C179.76 312.907 179.813 311.147 179.706 309.44C179.6 302.187 177.733 296.427 174.106 292.16C170.586 287.787 165.84 285.44 159.866 285.12C156.88 284.907 153.786 284.853 150.586 284.96C147.493 284.96 144.88 284.96 142.746 284.96C140.613 284.96 139.546 284.96 139.546 284.96C139.546 284.853 139.386 284.427 139.066 283.68C138.853 282.827 138.586 282.027 138.266 281.28C138.053 280.427 137.946 280 137.946 280ZM140.026 280V392H129.626V280H140.026ZM130.106 380.32V392H117.306V390.4C117.306 390.4 117.626 390.4 118.266 390.4C119.013 390.4 119.386 390.4 119.386 390.4C122.16 390.4 124.506 389.44 126.426 387.52C128.453 385.493 129.52 383.093 129.626 380.32H130.106ZM130.106 291.68H129.626C129.52 288.907 128.453 286.56 126.426 284.64C124.506 282.613 122.16 281.6 119.386 281.6C119.386 281.6 119.013 281.6 118.266 281.6C117.626 281.6 117.306 281.6 117.306 281.6V280H130.106V291.68ZM139.546 380.32H140.026C140.026 383.093 141.04 385.493 143.066 387.52C145.093 389.44 147.493 390.4 150.266 390.4C150.266 390.4 150.586 390.4 151.226 390.4C151.866 390.4 152.186 390.4 152.186 390.4V392H139.546V380.32ZM252.264 280V392H241.864V280H252.264ZM295.464 387.04V392H251.784V387.04H295.464ZM288.584 334.4V339.2H251.784V334.4H288.584ZM295.464 280V284.96H251.784V280H295.464ZM305.224 366.08L295.944 392H269.384L275.144 387.04C280.797 387.04 285.384 386.187 288.904 384.48C292.53 382.667 295.464 380.16 297.704 376.96C299.944 373.76 301.917 370.133 303.624 366.08H305.224ZM288.584 338.88V349.44H286.984V347.04C286.984 344.907 286.237 343.093 284.744 341.6C283.25 340 281.437 339.2 279.304 339.2V338.88H288.584ZM288.584 324.16V334.72H279.304V334.4C281.437 334.293 283.25 333.493 284.744 332C286.237 330.4 286.984 328.533 286.984 326.4V324.16H288.584ZM295.464 284.48V297.28H293.864V294.4C293.864 291.84 292.957 289.653 291.144 287.84C289.33 285.92 287.09 284.907 284.424 284.8V284.48H295.464ZM295.464 277.12V281.76L275.944 280C278.29 280 280.744 279.84 283.304 279.52C285.97 279.2 288.424 278.827 290.664 278.4C292.904 277.973 294.504 277.547 295.464 277.12ZM242.344 380.32V392H229.544V390.4C229.544 390.4 229.864 390.4 230.504 390.4C231.25 390.4 231.624 390.4 231.624 390.4C234.397 390.4 236.744 389.44 238.664 387.52C240.69 385.493 241.757 383.093 241.864 380.32H242.344ZM242.344 291.68H241.864C241.864 288.907 240.85 286.56 238.824 284.64C236.797 282.613 234.397 281.6 231.624 281.6C231.624 281.6 231.304 281.6 230.664 281.6C230.024 281.6 229.704 281.6 229.704 281.6L229.544 280H242.344V291.68ZM378.527 277.76L425.887 391.04H412.288L375.327 292.96L378.527 277.76ZM344.127 380.32C343.381 382.453 343.274 384.267 343.807 385.76C344.341 387.253 345.194 388.427 346.367 389.28C347.647 390.027 348.927 390.4 350.207 390.4H351.647V392H319.487V390.4C319.487 390.4 319.754 390.4 320.287 390.4C320.714 390.4 320.927 390.4 320.927 390.4C323.381 390.4 325.887 389.653 328.447 388.16C331.114 386.56 333.301 383.947 335.007 380.32H344.127ZM378.527 277.76L379.967 288.96L339.807 391.52H330.207L371.167 294.24C371.167 294.24 371.434 293.6 371.967 292.32C372.607 290.933 373.301 289.28 374.047 287.36C374.901 285.44 375.594 283.573 376.127 281.76C376.767 279.947 377.087 278.613 377.087 277.76H378.527ZM401.087 348.32V353.12H351.007V348.32H401.087ZM408.287 380.32H421.407C423.007 383.947 425.141 386.56 427.808 388.16C430.474 389.653 433.034 390.4 435.487 390.4C435.487 390.4 435.701 390.4 436.128 390.4C436.554 390.4 436.768 390.4 436.768 390.4V392H400.767V390.4H402.207C404.234 390.4 406.047 389.547 407.647 387.84C409.248 386.027 409.461 383.52 408.287 380.32ZM483.954 277.76C485.66 277.76 487.474 277.867 489.394 278.08C491.42 278.293 493.34 278.613 495.154 279.04C497.074 279.36 498.78 279.733 500.274 280.16C501.874 280.48 503.1 280.853 503.954 281.28V299.04H502.514C502.514 293.92 500.754 289.92 497.234 287.04C493.714 284.053 489.447 282.56 484.434 282.56C478.567 282.56 473.82 284.427 470.194 288.16C466.567 291.787 464.754 296.053 464.754 300.96C464.754 302.987 465.18 305.387 466.034 308.16C466.994 310.827 468.7 313.333 471.154 315.68L502.674 344.8C505.874 347.787 508.007 350.987 509.074 354.4C510.14 357.813 510.674 361.12 510.674 364.32C510.674 373.173 507.954 380.373 502.514 385.92C497.18 391.467 489.927 394.24 480.754 394.24C478.194 394.24 475.154 393.973 471.634 393.44C468.22 392.907 464.86 392 461.554 390.72C458.354 389.333 455.687 387.573 453.554 385.44C453.234 383.733 453.074 381.6 453.074 379.04C453.074 376.48 453.287 373.813 453.714 371.04C454.14 368.16 454.727 365.547 455.474 363.2H456.914C456.38 368.64 457.074 373.387 458.994 377.44C460.914 381.493 463.687 384.587 467.314 386.72C471.047 388.747 475.26 389.653 479.954 389.44C485.82 389.12 490.834 387.093 494.994 383.36C499.26 379.52 501.394 374.4 501.394 368C501.394 364.907 500.86 362.133 499.794 359.68C498.727 357.12 497.18 354.933 495.154 353.12L464.434 324.64C461.234 321.653 458.994 318.4 457.714 314.88C456.434 311.253 455.794 307.893 455.794 304.8C455.794 300.32 456.86 296 458.994 291.84C461.127 287.68 464.274 284.32 468.434 281.76C472.7 279.093 477.874 277.76 483.954 277.76ZM503.954 279.36V282.72H491.794V279.36H503.954ZM557.971 280V350.4C557.971 358.08 559.358 364.853 562.131 370.72C565.011 376.587 569.011 381.173 574.131 384.48C579.251 387.68 585.171 389.28 591.891 389.28C599.038 389.28 605.278 387.733 610.611 384.64C615.945 381.547 620.105 377.28 623.091 371.84C626.078 366.293 627.571 359.84 627.571 352.48V280H635.091V352.48C635.091 360.8 633.278 368.107 629.651 374.4C626.131 380.587 621.118 385.44 614.611 388.96C608.105 392.48 600.531 394.24 591.891 394.24C583.038 394.24 575.251 392.533 568.531 389.12C561.918 385.6 556.745 380.747 553.011 374.56C549.385 368.267 547.571 360.96 547.571 352.64V280H557.971ZM548.051 280V289.6H547.571C547.571 287.253 546.718 285.333 545.011 283.84C543.411 282.347 541.438 281.6 539.091 281.6C539.091 281.6 538.665 281.6 537.811 281.6C536.958 281.6 536.531 281.6 536.531 281.6V280H548.051ZM569.011 280V281.6C569.011 281.6 568.585 281.6 567.731 281.6C566.878 281.6 566.451 281.6 566.451 281.6C564.105 281.6 562.078 282.347 560.371 283.84C558.771 285.333 557.971 287.253 557.971 289.6H557.651V280H569.011ZM628.051 280V289.6H627.571C627.571 287.253 626.718 285.333 625.011 283.84C623.411 282.347 621.438 281.6 619.091 281.6C619.091 281.6 618.665 281.6 617.811 281.6C616.958 281.6 616.531 281.6 616.531 281.6V280H628.051ZM646.131 280V281.6C646.131 281.6 645.705 281.6 644.851 281.6C643.998 281.6 643.571 281.6 643.571 281.6C641.225 281.6 639.198 282.347 637.491 283.84C635.891 285.333 635.091 287.253 635.091 289.6H634.771V280H646.131ZM691.165 280H713.725C718.525 280 722.845 280.693 726.685 282.08C730.632 283.467 733.938 285.493 736.605 288.16C739.272 290.72 741.298 293.867 742.685 297.6C744.178 301.227 744.925 305.387 744.925 310.08C744.925 315.2 743.698 320.107 741.245 324.8C738.898 329.493 735.645 333.333 731.485 336.32C727.432 339.2 722.845 340.64 717.725 340.64C719.538 341.387 721.512 342.933 723.645 345.28C725.778 347.52 727.645 349.707 729.245 351.84C729.245 351.84 729.938 352.907 731.325 355.04C732.818 357.067 734.632 359.573 736.765 362.56C739.005 365.547 741.245 368.48 743.485 371.36C745.725 374.24 747.645 376.533 749.245 378.24C751.378 380.587 753.512 382.667 755.645 384.48C757.778 386.293 760.072 387.733 762.525 388.8C765.085 389.867 767.912 390.4 771.005 390.4V392H762.205C757.298 392 753.032 391.253 749.405 389.76C745.885 388.267 742.898 386.453 740.445 384.32C737.992 382.08 735.912 379.947 734.205 377.92C733.885 377.493 732.978 376.267 731.485 374.24C730.098 372.213 728.392 369.813 726.365 367.04C724.445 364.16 722.525 361.333 720.605 358.56C718.685 355.787 717.032 353.44 715.645 351.52C714.258 349.493 713.458 348.32 713.245 348C711.218 345.333 708.978 342.88 706.525 340.64C704.072 338.4 701.405 337.28 698.525 337.28V335.68C698.525 335.68 699.325 335.733 700.925 335.84C702.632 335.84 704.658 335.787 707.005 335.68C709.778 335.573 712.818 335.147 716.125 334.4C719.432 333.653 722.525 332.107 725.405 329.76C728.285 327.413 730.472 323.84 731.965 319.04C732.285 317.867 732.552 316.427 732.765 314.72C732.978 312.907 733.032 311.147 732.925 309.44C732.818 302.187 730.952 296.427 727.325 292.16C723.805 287.787 719.058 285.44 713.085 285.12C710.098 284.907 707.005 284.853 703.805 284.96C700.712 284.96 698.098 284.96 695.965 284.96C693.832 284.96 692.765 284.96 692.765 284.96C692.765 284.853 692.605 284.427 692.285 283.68C692.072 282.827 691.805 282.027 691.485 281.28C691.272 280.427 691.165 280 691.165 280ZM693.245 280V392H682.845V280H693.245ZM683.325 380.32V392H670.525V390.4C670.525 390.4 670.845 390.4 671.485 390.4C672.232 390.4 672.605 390.4 672.605 390.4C675.378 390.4 677.725 389.44 679.645 387.52C681.672 385.493 682.738 383.093 682.845 380.32H683.325ZM683.325 291.68H682.845C682.738 288.907 681.672 286.56 679.645 284.64C677.725 282.613 675.378 281.6 672.605 281.6C672.605 281.6 672.232 281.6 671.485 281.6C670.845 281.6 670.525 281.6 670.525 281.6V280H683.325V291.68ZM692.765 380.32H693.245C693.245 383.093 694.258 385.493 696.285 387.52C698.312 389.44 700.712 390.4 703.485 390.4C703.485 390.4 703.805 390.4 704.445 390.4C705.085 390.4 705.405 390.4 705.405 390.4V392H692.765V380.32ZM805.482 280V392H795.082V280H805.482ZM848.682 387.04V392H805.002V387.04H848.682ZM841.802 334.4V339.2H805.002V334.4H841.802ZM848.682 280V284.96H805.002V280H848.682ZM858.442 366.08L849.162 392H822.602L828.362 387.04C834.016 387.04 838.602 386.187 842.122 384.48C845.749 382.667 848.682 380.16 850.922 376.96C853.162 373.76 855.136 370.133 856.842 366.08H858.442ZM841.802 338.88V349.44H840.202V347.04C840.202 344.907 839.456 343.093 837.962 341.6C836.469 340 834.656 339.2 832.522 339.2V338.88H841.802ZM841.802 324.16V334.72H832.522V334.4C834.656 334.293 836.469 333.493 837.962 332C839.456 330.4 840.202 328.533 840.202 326.4V324.16H841.802ZM848.682 284.48V297.28H847.082V294.4C847.082 291.84 846.176 289.653 844.362 287.84C842.549 285.92 840.309 284.907 837.642 284.8V284.48H848.682ZM848.682 277.12V281.76L829.162 280C831.509 280 833.962 279.84 836.522 279.52C839.189 279.2 841.642 278.827 843.882 278.4C846.122 277.973 847.722 277.547 848.682 277.12ZM795.562 380.32V392H782.762V390.4C782.762 390.4 783.082 390.4 783.722 390.4C784.469 390.4 784.842 390.4 784.842 390.4C787.616 390.4 789.962 389.44 791.882 387.52C793.909 385.493 794.976 383.093 795.082 380.32H795.562ZM795.562 291.68H795.082C795.082 288.907 794.069 286.56 792.042 284.64C790.016 282.613 787.616 281.6 784.842 281.6C784.842 281.6 784.522 281.6 783.882 281.6C783.242 281.6 782.922 281.6 782.922 281.6L782.762 280H795.562V291.68ZM914.466 277.76C916.173 277.76 917.986 277.867 919.906 278.08C921.933 278.293 923.853 278.613 925.666 279.04C927.586 279.36 929.293 279.733 930.786 280.16C932.386 280.48 933.613 280.853 934.466 281.28V299.04H933.026C933.026 293.92 931.266 289.92 927.746 287.04C924.226 284.053 919.96 282.56 914.946 282.56C909.08 282.56 904.333 284.427 900.706 288.16C897.08 291.787 895.266 296.053 895.266 300.96C895.266 302.987 895.693 305.387 896.546 308.16C897.506 310.827 899.213 313.333 901.666 315.68L933.186 344.8C936.386 347.787 938.52 350.987 939.586 354.4C940.653 357.813 941.186 361.12 941.186 364.32C941.186 373.173 938.466 380.373 933.026 385.92C927.693 391.467 920.44 394.24 911.266 394.24C908.706 394.24 905.666 393.973 902.146 393.44C898.733 392.907 895.373 392 892.066 390.72C888.866 389.333 886.2 387.573 884.066 385.44C883.746 383.733 883.586 381.6 883.586 379.04C883.586 376.48 883.8 373.813 884.226 371.04C884.653 368.16 885.24 365.547 885.986 363.2H887.426C886.893 368.64 887.586 373.387 889.506 377.44C891.426 381.493 894.2 384.587 897.826 386.72C901.56 388.747 905.773 389.653 910.466 389.44C916.333 389.12 921.346 387.093 925.506 383.36C929.773 379.52 931.906 374.4 931.906 368C931.906 364.907 931.373 362.133 930.306 359.68C929.24 357.12 927.693 354.933 925.666 353.12L894.946 324.64C891.746 321.653 889.506 318.4 888.226 314.88C886.946 311.253 886.306 307.893 886.306 304.8C886.306 300.32 887.373 296 889.506 291.84C891.64 287.68 894.786 284.32 898.946 281.76C903.213 279.093 908.386 277.76 914.466 277.76ZM934.466 279.36V282.72H922.306V279.36H934.466Z" fill="white"/>
<g clip-path="url(#clip0_1321_2)">
<path fill-rule="evenodd" clip-rule="evenodd" d="M136.042 222.977L2.64852 70.5045H90.1878L136.042 222.977ZM140.901 2.25312L105.687 60.0804H178.717L140.901 2.25312ZM189.265 59.6892L150.09 2H222.522L189.265 59.6892ZM95.9225 60.2415L130.238 2H56.6783L95.9225 60.2415ZM234.244 8.85735L199.606 60.0804H283L234.244 8.85735ZM51.2661 8.85735L87.6775 60.0804H0L51.2661 8.85735ZM103.016 70.0443H180.468L142.882 220.699L103.016 70.0443ZM149.492 223L281.296 70.5045H193.756L149.492 223Z" fill="url(#paint0_diamond_1321_2)"/>
</g>
<rect x="354" y="2" width="10" height="198" fill="white"/>
<rect x="843" y="32" width="10" height="170" fill="white"/>
<path d="M605 1.99999L599 12L475 12L475 1.99999L605 1.99999Z" fill="white"/>
<rect x="599" y="91" width="10" height="124" transform="rotate(90 599 91)" fill="white"/>
<path d="M943 1L943 11L757 11L752.5 1L943 1Z" fill="white"/>
<path d="M764.5 201.587L749.984 201.587L599 12.2333L604.5 1.49989L764.5 201.587Z" fill="white"/>
<path d="M599.775 193.853L607.594 200.088L758.579 10.7334L753.079 -5.71762e-06L599.775 193.853Z" fill="white"/>
<path d="M604 190L607.5 200L475 200L475 190L604 190Z" fill="white"/>
<path d="M363.524 21.1951L364 2.00003L479.421 200.028L466.773 200.028L363.524 21.1951Z" fill="white"/>
<g clip-path="url(#clip1_1321_2)">
<path fill-rule="evenodd" clip-rule="evenodd" d="M1134.65 245.128L1164.56 139.865C1165.66 136.015 1169.15 133.507 1172.97 133.507H1300.5C1304.74 133.507 1308.27 136.545 1309.09 140.537L1339.78 245.658C1341.12 250.285 1338.47 255.089 1333.84 256.466C1333.03 256.714 1332.22 256.82 1331.41 256.82V256.855H1142.87C1138.04 256.855 1134.15 252.934 1134.15 248.13C1134.12 247 1134.29 246.046 1134.65 245.128Z" fill="#3898EC"/>
<path fill-rule="evenodd" clip-rule="evenodd" d="M1316.01 10.5127L1314.28 11.9609C1325.86 26.1961 1330.67 42.9744 1328.69 62.296C1326.71 81.6177 1318.59 97.0538 1304.35 108.64L1305.8 110.37C1320.04 98.7846 1336.81 93.9454 1356.17 95.9941C1375.49 97.9722 1390.92 106.132 1402.51 120.332L1404.24 118.883C1392.65 104.648 1387.81 87.8698 1389.83 68.5482C1391.8 49.2266 1399.93 33.7905 1414.16 22.2046L1412.68 20.4384C1398.44 32.0243 1381.67 36.8282 1362.35 34.8502C1343.03 32.8721 1327.56 24.7478 1316.01 10.5127Z" fill="#3898EC"/>
<path fill-rule="evenodd" clip-rule="evenodd" d="M1159.97 2L1159.02 2.7771C1165.34 10.5481 1167.99 19.7321 1166.89 30.2936C1165.83 40.8552 1161.35 49.2973 1153.58 55.6201L1154.35 56.5739C1162.12 50.2157 1171.31 47.6018 1181.9 48.7322C1192.5 49.8272 1200.94 54.2779 1207.23 62.0136L1208.18 61.2365C1201.82 53.4654 1199.21 44.2815 1200.3 33.72C1201.36 23.1584 1205.85 14.7162 1213.62 8.39344L1212.84 7.4044C1205.07 13.7272 1195.89 16.3764 1185.33 15.2814C1174.77 14.2217 1166.29 9.77104 1159.97 2Z" fill="#3898EC"/>
<path fill-rule="evenodd" clip-rule="evenodd" d="M1020.49 380.344L1050.41 275.081C1051.5 271.231 1055 268.688 1058.82 268.688H1186.35C1190.63 268.688 1194.12 271.726 1194.94 275.717L1225.63 380.838C1226.97 385.465 1224.32 390.305 1219.69 391.647C1218.88 391.894 1218.07 392 1217.26 392V392.036H1028.76C1023.92 392.036 1020 388.115 1020 383.311C1020 382.251 1020.18 381.297 1020.49 380.344Z" fill="#3898EC"/>
<path fill-rule="evenodd" clip-rule="evenodd" d="M1248.55 380.344L1278.43 275.081C1279.52 271.231 1283.02 268.688 1286.84 268.688H1414.37C1418.61 268.688 1422.14 271.726 1422.95 275.717L1453.68 380.838C1455.02 385.465 1452.38 390.305 1447.75 391.647C1446.94 391.894 1446.12 392 1445.31 392V392.036H1256.78C1251.94 392.036 1248.05 388.115 1248.05 383.311C1248.02 382.251 1248.2 381.297 1248.55 380.344Z" fill="#3898EC"/>
<path fill-rule="evenodd" clip-rule="evenodd" d="M1134.43 245.375L1164.35 140.113C1165.44 136.262 1168.94 133.719 1172.75 133.719H1300.29C1304.53 133.719 1308.06 136.757 1308.87 140.748L1309.37 142.409H1186.11C1182.29 142.409 1178.79 144.952 1177.7 148.802L1147.78 254.064C1147.43 254.983 1147.29 255.972 1147.29 256.996V257.067H1142.73C1137.89 257.067 1134.01 253.146 1134.01 248.342C1133.9 247.247 1134.08 246.258 1134.43 245.375Z" fill="#3587CE"/>
<path fill-rule="evenodd" clip-rule="evenodd" d="M1020.49 380.343L1050.41 275.081C1051.5 271.231 1055 268.723 1058.82 268.723H1186.35C1190.59 268.723 1194.12 271.761 1194.94 275.752L1195.43 277.377H1072.17C1068.35 277.377 1064.86 279.92 1063.76 283.735L1033.85 388.998C1033.49 389.916 1033.35 390.905 1033.35 391.929V392H1028.72C1023.89 392 1020 388.079 1020 383.275C1020 382.216 1020.18 381.262 1020.49 380.343Z" fill="#E3B600"/>
<path fill-rule="evenodd" clip-rule="evenodd" d="M1020.49 380.343L1050.41 275.081C1051.5 271.231 1055 268.723 1058.82 268.723H1186.35C1190.59 268.723 1194.12 271.761 1194.94 275.752L1195.43 277.377H1072.17C1068.35 277.377 1064.86 279.92 1063.76 283.735L1033.85 388.998C1033.49 389.916 1033.35 390.905 1033.35 391.929V392H1028.72C1023.89 392 1020 388.079 1020 383.275C1020 382.216 1020.18 381.262 1020.49 380.343Z" fill="#3587CE"/>
<path fill-rule="evenodd" clip-rule="evenodd" d="M1248.55 380.343L1278.46 275.081C1279.56 271.231 1283.06 268.723 1286.87 268.723H1414.41C1418.68 268.723 1422.18 271.761 1422.99 275.752L1423.48 277.377H1300.15C1296.34 277.377 1292.84 279.92 1291.74 283.735L1261.83 388.998C1261.48 389.916 1261.33 390.905 1261.33 391.929V392H1256.78C1251.94 392 1248.05 388.079 1248.05 383.275C1248.02 382.216 1248.2 381.262 1248.55 380.343Z" fill="#3587CE"/>
<path fill-rule="evenodd" clip-rule="evenodd" d="M1043.8 115.068L1042.85 115.845C1049.17 123.617 1051.82 132.8 1050.73 143.362C1049.67 153.888 1045.18 162.33 1037.41 168.689L1038.19 169.642C1045.96 163.284 1055.14 160.67 1065.74 161.801C1076.33 162.896 1084.77 167.346 1091.06 175.082L1092.02 174.305C1085.66 166.534 1083.04 157.35 1084.14 146.788C1085.2 136.227 1089.68 127.785 1097.45 121.462L1096.68 120.508C1088.91 126.831 1079.72 129.48 1069.16 128.385C1058.57 127.29 1050.13 122.839 1043.8 115.068Z" fill="#3898EC"/>
</g>
<defs>
<radialGradient id="paint0_diamond_1321_2" cx="0" cy="0" r="1" gradientUnits="userSpaceOnUse" gradientTransform="translate(141.5 112.5) rotate(90) scale(110.5 141.5)">
<stop stop-color="white"/>
<stop offset="1" stop-color="#60ACEF"/>
</radialGradient>
<clipPath id="clip0_1321_2">
<rect width="283" height="221" fill="white" transform="translate(0 2)"/>
</clipPath>
<clipPath id="clip1_1321_2">
<rect width="434" height="390" fill="white" transform="translate(1020 2)"/>
</clipPath>
</defs>
</svg>
