<svg width="15" height="19" viewBox="0 0 15 19" fill="none" xmlns="http://www.w3.org/2000/svg">
<g clip-path="url(#clip0_1279_127)">
<path d="M11.4279 17.5925C11.4279 17.474 11.4735 17.3603 11.5545 17.2765C11.6355 17.1927 11.7454 17.1456 11.86 17.1456C11.9747 17.1456 12.0846 17.1927 12.1656 17.2765C12.2466 17.3603 12.2922 17.474 12.2922 17.5925V18.1739C12.292 18.392 12.2081 18.6011 12.0589 18.7553C11.9855 18.8323 11.8979 18.8934 11.8014 18.9351C11.7049 18.9768 11.6013 18.9982 11.4967 18.998H0.798445C0.69387 18.998 0.590337 18.9765 0.493836 18.9349C0.397335 18.8932 0.309783 18.8321 0.236244 18.7553C0.16169 18.6793 0.102427 18.5888 0.0618787 18.489C0.0213302 18.3892 0.000299208 18.2821 4.79515e-09 18.1739V3.56515C-1.1513e-05 3.45677 0.0207259 3.34946 0.0610163 3.24942C0.101307 3.14937 0.160353 3.05856 0.234749 2.98222L0.269139 2.94975C0.414602 2.81498 0.60314 2.74063 0.798445 2.74101H1.34569C1.40448 2.73743 1.46335 2.74631 1.51869 2.76711C1.57404 2.78791 1.62469 2.82019 1.66754 2.86196C1.71038 2.90374 1.74452 2.95413 1.76785 3.01004C1.79118 3.06595 1.80322 3.1262 1.80322 3.1871C1.80322 3.24799 1.79118 3.30825 1.76785 3.36416C1.74452 3.42007 1.71038 3.47046 1.66754 3.51223C1.62469 3.55401 1.57404 3.58628 1.51869 3.60708C1.46335 3.62788 1.40448 3.63676 1.34569 3.63318H0.864234V18.1058H11.4279V17.5925ZM5.5323 13.226C5.47832 13.2294 5.42423 13.2214 5.37336 13.2024C5.32249 13.1834 5.27593 13.1538 5.23653 13.1155C5.19713 13.0772 5.16573 13.0309 5.14427 12.9796C5.12281 12.9282 5.11174 12.8729 5.11174 12.817C5.11174 12.7611 5.12281 12.7057 5.14427 12.6544C5.16573 12.603 5.19713 12.5568 5.23653 12.5185C5.27593 12.4802 5.32249 12.4506 5.37336 12.4316C5.42423 12.4126 5.47832 12.4046 5.5323 12.408H9.37051C9.42449 12.4046 9.47859 12.4126 9.52945 12.4316C9.58032 12.4506 9.62689 12.4802 9.66628 12.5185C9.70568 12.5568 9.73708 12.603 9.75854 12.6544C9.78 12.7057 9.79108 12.7611 9.79108 12.817C9.79108 12.8729 9.78 12.9282 9.75854 12.9796C9.73708 13.0309 9.70568 13.0772 9.66628 13.1155C9.62689 13.1538 9.58032 13.1834 9.52945 13.2024C9.47859 13.2214 9.42449 13.2294 9.37051 13.226H5.5323ZM5.5323 10.7195C5.42661 10.7195 5.32526 10.6761 5.25053 10.5988C5.1758 10.5216 5.13382 10.4167 5.13382 10.3075C5.13382 10.1982 5.1758 10.0934 5.25053 10.0161C5.32526 9.93881 5.42661 9.89539 5.5323 9.89539H10.7536C10.8587 9.89539 10.9595 9.93856 11.0338 10.0154C11.1081 10.0922 11.1498 10.1965 11.1498 10.3051C11.1498 10.4138 11.1081 10.518 11.0338 10.5949C10.9595 10.6717 10.8587 10.7149 10.7536 10.7149L5.5323 10.7195ZM5.5323 8.21155C5.42721 8.21155 5.32643 8.16838 5.25212 8.09154C5.17781 8.0147 5.13606 7.91048 5.13606 7.8018C5.13606 7.69313 5.17781 7.58891 5.25212 7.51207C5.32643 7.43522 5.42721 7.39205 5.5323 7.39205H12.2862C12.3913 7.39205 12.4921 7.43522 12.5664 7.51207C12.6407 7.58891 12.6824 7.69313 12.6824 7.8018C12.6824 7.91048 12.6407 8.0147 12.5664 8.09154C12.4921 8.16838 12.3913 8.21155 12.2862 8.21155H5.5323ZM10.616 0.161911L14.6785 4.5872C14.7707 4.61273 14.8522 4.66899 14.9103 4.74726C14.9684 4.82554 15 4.92146 15 5.02015V15.434C15 15.6523 14.9162 15.8617 14.7671 16.0162C14.618 16.1707 14.4157 16.2577 14.2045 16.2581H3.50628C3.4018 16.2584 3.2983 16.2372 3.2018 16.1958C3.10529 16.1544 3.01769 16.0936 2.94408 16.0169C2.86968 15.9406 2.81064 15.8497 2.77035 15.7497C2.73006 15.6497 2.70932 15.5423 2.70933 15.434V0.825241C2.70924 0.71685 2.72994 0.609518 2.77023 0.509457C2.81053 0.409397 2.86962 0.318597 2.94408 0.242314L2.97847 0.209844C3.12302 0.0743574 3.31119 -0.000608921 3.50628 -0.00044288H10.2766C10.3413 -0.00139696 10.4054 0.012697 10.4642 0.0407979C10.5229 0.0688988 10.5748 0.110289 10.616 0.161911ZM14.1358 5.56596H10.2766C10.162 5.56596 10.0521 5.51888 9.97106 5.43508C9.89002 5.35128 9.8445 5.23762 9.8445 5.1191V0.893275H3.57207V15.3659H14.1358V5.56596ZM13.5631 4.67225L10.7087 1.56279V4.66761L13.5631 4.67225Z" fill="#AB854F"/>
</g>
<defs>
<clipPath id="clip0_1279_127">
<rect width="15" height="19" fill="white"/>
</clipPath>
</defs>
</svg>
