<svg width="1557" height="409" viewBox="0 0 1557 409" fill="none" xmlns="http://www.w3.org/2000/svg">
<path d="M79.5625 257.562V356H69.875V257.562H21.0469V248.656H128.391V257.562H79.5625ZM156.05 310.062V356H146.284V248.656H199.722C207.899 248.656 214.904 249.307 220.738 250.609C226.571 251.859 231.336 253.786 235.034 256.391C238.784 258.943 241.519 262.146 243.238 266C244.956 269.854 245.816 274.359 245.816 279.516C245.816 287.536 243.706 293.969 239.488 298.812C235.269 303.604 228.472 306.885 219.097 308.656L255.738 356H243.472L208.863 309.75C207.404 309.854 205.92 309.932 204.409 309.984C202.899 310.036 201.336 310.062 199.722 310.062H156.05ZM235.738 279.516C235.738 274.932 234.93 271.234 233.316 268.422C231.701 265.557 229.071 263.344 225.425 261.781C221.779 260.219 216.988 259.177 211.05 258.656C205.165 258.083 197.925 257.797 189.331 257.797H156.05V300.922H189.019C197.613 300.922 204.878 300.688 210.816 300.219C216.753 299.698 221.571 298.682 225.269 297.172C228.967 295.609 231.623 293.448 233.238 290.688C234.904 287.875 235.738 284.151 235.738 279.516ZM276.366 356V248.656H365.819V257.797H286.991V294.75H361.834V303.812H286.991V346.859H366.991V356H276.366ZM492.228 356L477.462 327.719H404.572L389.806 356H379.103L435.275 248.656H446.759L502.931 356H492.228ZM441.056 258.109L409.337 318.734H472.697L441.056 258.109ZM607.622 264.516C605.591 263.526 603.247 262.484 600.591 261.391C597.934 260.245 594.888 259.229 591.45 258.344C588.065 257.458 584.236 256.729 579.966 256.156C575.695 255.531 570.955 255.219 565.747 255.219C559.445 255.219 553.82 255.583 548.872 256.312C543.976 257.042 539.809 258.188 536.372 259.75C532.986 261.26 530.382 263.188 528.559 265.531C526.789 267.875 525.903 270.661 525.903 273.891C525.903 276.599 526.736 278.969 528.403 281C530.122 283.031 532.414 284.828 535.278 286.391C538.195 287.953 541.58 289.385 545.434 290.688C549.341 291.938 553.455 293.135 557.778 294.281C562.153 295.375 566.632 296.495 571.216 297.641C575.851 298.786 580.33 300.036 584.653 301.391C589.028 302.693 593.143 304.177 596.997 305.844C600.903 307.458 604.289 309.359 607.153 311.547C610.07 313.734 612.361 316.234 614.028 319.047C615.747 321.859 616.606 325.115 616.606 328.812C616.606 332.823 615.851 336.339 614.341 339.359C612.83 342.328 610.773 344.906 608.169 347.094C605.617 349.229 602.596 351.026 599.106 352.484C595.669 353.891 591.971 355.01 588.013 355.844C584.106 356.677 580.044 357.25 575.825 357.562C571.658 357.927 567.544 358.109 563.481 358.109C554.158 358.109 545.695 357.432 538.091 356.078C530.539 354.724 523.325 352.875 516.45 350.531V338.578C523.533 342.797 531.007 345.688 538.872 347.25C546.789 348.812 555.096 349.594 563.794 349.594C569.94 349.594 575.617 349.229 580.825 348.5C586.033 347.771 590.539 346.625 594.341 345.062C598.143 343.448 601.085 341.365 603.169 338.812C605.304 336.26 606.372 333.135 606.372 329.438C606.372 326.469 605.513 323.865 603.794 321.625C602.127 319.385 599.835 317.432 596.919 315.766C594.054 314.047 590.669 312.536 586.763 311.234C582.908 309.932 578.82 308.734 574.497 307.641C570.174 306.495 565.695 305.401 561.059 304.359C556.476 303.266 552.023 302.094 547.7 300.844C543.377 299.594 539.263 298.188 535.356 296.625C531.502 295.062 528.117 293.24 525.2 291.156C522.335 289.021 520.044 286.573 518.325 283.812C516.658 281.052 515.825 277.849 515.825 274.203C515.825 270.609 516.502 267.432 517.856 264.672C519.21 261.859 521.059 259.438 523.403 257.406C525.799 255.375 528.585 253.682 531.763 252.328C534.94 250.922 538.325 249.828 541.919 249.047C545.565 248.214 549.341 247.615 553.247 247.25C557.153 246.885 561.007 246.703 564.809 246.703C568.976 246.703 572.908 246.885 576.606 247.25C580.356 247.615 583.95 248.109 587.388 248.734C590.877 249.307 594.263 249.984 597.544 250.766C600.877 251.547 604.236 252.38 607.622 253.266V264.516ZM751.062 322.25C751.062 327.615 749.917 332.51 747.625 336.938C745.385 341.312 742 345.089 737.469 348.266C732.99 351.391 727.365 353.812 720.594 355.531C713.823 357.25 705.932 358.109 696.922 358.109C687.911 358.109 680.021 357.25 673.25 355.531C666.479 353.812 660.828 351.391 656.297 348.266C651.766 345.089 648.354 341.312 646.062 336.938C643.823 332.51 642.703 327.615 642.703 322.25V248.656H652.469V323.031C652.469 326.625 653.406 330.036 655.281 333.266C657.208 336.443 660.047 339.229 663.797 341.625C667.547 344.021 672.182 345.922 677.703 347.328C683.224 348.734 689.63 349.438 696.922 349.438C704.161 349.438 710.542 348.734 716.062 347.328C721.583 345.922 726.219 344.021 729.969 341.625C733.719 339.229 736.531 336.443 738.406 333.266C740.333 330.036 741.297 326.625 741.297 323.031V248.656H751.062V322.25ZM792.862 310.062V356H783.097V248.656H836.534C844.711 248.656 851.717 249.307 857.55 250.609C863.383 251.859 868.149 253.786 871.847 256.391C875.597 258.943 878.331 262.146 880.05 266C881.769 269.854 882.628 274.359 882.628 279.516C882.628 287.536 880.519 293.969 876.3 298.812C872.081 303.604 865.284 306.885 855.909 308.656L892.55 356H880.284L845.675 309.75C844.217 309.854 842.732 309.932 841.222 309.984C839.711 310.036 838.149 310.062 836.534 310.062H792.862ZM872.55 279.516C872.55 274.932 871.743 271.234 870.128 268.422C868.514 265.557 865.883 263.344 862.237 261.781C858.592 260.219 853.8 259.177 847.862 258.656C841.977 258.083 834.737 257.797 826.144 257.797H792.862V300.922H825.831C834.425 300.922 841.691 300.688 847.628 300.219C853.566 299.698 858.383 298.682 862.081 297.172C865.779 295.609 868.435 293.448 870.05 290.688C871.717 287.875 872.55 284.151 872.55 279.516ZM913.178 356V248.656H1002.63V257.797H923.803V294.75H998.647V303.812H923.803V346.859H1003.8V356H913.178ZM1117.48 264.516C1115.45 263.526 1113.1 262.484 1110.45 261.391C1107.79 260.245 1104.74 259.229 1101.31 258.344C1097.92 257.458 1094.09 256.729 1089.82 256.156C1085.55 255.531 1080.81 255.219 1075.6 255.219C1069.3 255.219 1063.68 255.583 1058.73 256.312C1053.83 257.042 1049.67 258.188 1046.23 259.75C1042.84 261.26 1040.24 263.188 1038.42 265.531C1036.64 267.875 1035.76 270.661 1035.76 273.891C1035.76 276.599 1036.59 278.969 1038.26 281C1039.98 283.031 1042.27 284.828 1045.13 286.391C1048.05 287.953 1051.44 289.385 1055.29 290.688C1059.2 291.938 1063.31 293.135 1067.63 294.281C1072.01 295.375 1076.49 296.495 1081.07 297.641C1085.71 298.786 1090.19 300.036 1094.51 301.391C1098.88 302.693 1103 304.177 1106.85 305.844C1110.76 307.458 1114.14 309.359 1117.01 311.547C1119.93 313.734 1122.22 316.234 1123.88 319.047C1125.6 321.859 1126.46 325.115 1126.46 328.812C1126.46 332.823 1125.71 336.339 1124.2 339.359C1122.69 342.328 1120.63 344.906 1118.03 347.094C1115.47 349.229 1112.45 351.026 1108.96 352.484C1105.53 353.891 1101.83 355.01 1097.87 355.844C1093.96 356.677 1089.9 357.25 1085.68 357.562C1081.51 357.927 1077.4 358.109 1073.34 358.109C1064.01 358.109 1055.55 357.432 1047.95 356.078C1040.39 354.724 1033.18 352.875 1026.31 350.531V338.578C1033.39 342.797 1040.86 345.688 1048.73 347.25C1056.64 348.812 1064.95 349.594 1073.65 349.594C1079.8 349.594 1085.47 349.229 1090.68 348.5C1095.89 347.771 1100.39 346.625 1104.2 345.062C1108 343.448 1110.94 341.365 1113.03 338.812C1115.16 336.26 1116.23 333.135 1116.23 329.438C1116.23 326.469 1115.37 323.865 1113.65 321.625C1111.98 319.385 1109.69 317.432 1106.78 315.766C1103.91 314.047 1100.53 312.536 1096.62 311.234C1092.76 309.932 1088.68 308.734 1084.35 307.641C1080.03 306.495 1075.55 305.401 1070.92 304.359C1066.33 303.266 1061.88 302.094 1057.56 300.844C1053.23 299.594 1049.12 298.188 1045.21 296.625C1041.36 295.062 1037.97 293.24 1035.06 291.156C1032.19 289.021 1029.9 286.573 1028.18 283.812C1026.51 281.052 1025.68 277.849 1025.68 274.203C1025.68 270.609 1026.36 267.432 1027.71 264.672C1029.07 261.859 1030.92 259.438 1033.26 257.406C1035.66 255.375 1038.44 253.682 1041.62 252.328C1044.8 250.922 1048.18 249.828 1051.78 249.047C1055.42 248.214 1059.2 247.615 1063.1 247.25C1067.01 246.885 1070.86 246.703 1074.67 246.703C1078.83 246.703 1082.76 246.885 1086.46 247.25C1090.21 247.615 1093.81 248.109 1097.24 248.734C1100.73 249.307 1104.12 249.984 1107.4 250.766C1110.73 251.547 1114.09 252.38 1117.48 253.266V264.516Z" fill="#60ACEF"/>
<g clip-path="url(#clip0_1321_2)">
<path fill-rule="evenodd" clip-rule="evenodd" d="M1351.88 355.968L1165.7 143.472H1287.88L1351.88 355.968ZM1358.66 48.3528L1309.51 128.945H1411.45L1358.66 48.3528ZM1426.17 128.399L1371.49 48H1472.59L1426.17 128.399ZM1295.88 129.169L1343.78 48H1241.11L1295.88 129.169ZM1488.95 57.5569L1440.6 128.945H1557L1488.95 57.5569ZM1233.56 57.5569L1284.38 128.945H1162L1233.56 57.5569ZM1305.79 142.831H1413.89L1361.43 352.793L1305.79 142.831ZM1370.65 356L1554.62 143.472H1432.44L1370.65 356Z" fill="url(#paint0_diamond_1321_2)"/>
</g>
<g clip-path="url(#clip1_1321_2)">
<path fill-rule="evenodd" clip-rule="evenodd" d="M622.997 137.996L598.487 109.709H614.572L622.997 137.996ZM623.89 97.047L617.42 107.775H630.839L623.89 97.047ZM632.777 107.703L625.578 97H638.887L632.777 107.703ZM615.625 107.805L621.931 97H608.414L615.625 107.805ZM641.041 98.2722L634.677 107.775H650L641.041 98.2722ZM607.42 98.2722L614.11 107.775H598L607.42 98.2722ZM616.929 109.624H631.16L624.254 137.573L616.929 109.624ZM625.468 138L649.687 109.709H633.602L625.468 138Z" fill="url(#paint1_diamond_1321_2)"/>
</g>
<rect x="695" y="45.4565" width="7.28353" height="144.214" fill="#60ACEF"/>
<rect x="1051.17" y="67.3071" width="7.28353" height="123.82" fill="#60ACEF"/>
<path d="M877.816 45.4565L873.446 52.7401L783.131 52.7401L783.131 45.4565L877.816 45.4565Z" fill="#60ACEF"/>
<rect x="873.447" y="110.28" width="7.28354" height="90.3158" transform="rotate(90 873.447 110.28)" fill="#60ACEF"/>
<path d="M1124 44.7285L1124 52.0121L988.526 52.012L985.249 44.7285L1124 44.7285Z" fill="#60ACEF"/>
<path d="M993.989 190.827L983.417 190.827L873.447 52.91L877.452 45.0923L993.989 190.827Z" fill="#60ACEF"/>
<path d="M874.012 185.194L879.706 189.734L989.676 51.8176L985.67 43.9999L874.012 185.194Z" fill="#60ACEF"/>
<path d="M877.088 182.387L879.637 189.67L783.13 189.67L783.13 182.387L877.088 182.387Z" fill="#60ACEF"/>
<path d="M701.937 59.4375L702.284 45.4568L786.351 189.691L777.139 189.691L701.937 59.4375Z" fill="#60ACEF"/>
<path d="M168.76 92.7344C168.76 100.111 167.542 106.628 165.107 112.285C162.744 117.943 158.984 122.705 153.828 126.572C148.672 130.439 142.012 133.376 133.848 135.381C125.755 137.314 115.98 138.281 104.521 138.281H38.2422V195H24.8145V47.4023H104.521C115.98 47.4023 125.755 48.4049 133.848 50.4102C142.012 52.3438 148.672 55.2083 153.828 59.0039C158.984 62.7995 162.744 67.526 165.107 73.1836C167.542 78.8411 168.76 85.3581 168.76 92.7344ZM154.902 92.7344C154.902 85.7161 153.721 80.0586 151.357 75.7617C149.066 71.4648 145.485 68.1706 140.615 65.8789C135.817 63.5156 129.694 61.9401 122.246 61.1523C114.87 60.3646 106.097 59.9707 95.9277 59.9707H38.2422V125.713H95.9277C99.8665 125.713 104.056 125.749 108.496 125.82C113.008 125.82 117.448 125.605 121.816 125.176C126.185 124.674 130.339 123.851 134.277 122.705C138.288 121.488 141.797 119.661 144.805 117.227C147.884 114.792 150.319 111.605 152.109 107.666C153.971 103.727 154.902 98.75 154.902 92.7344ZM367.636 195L347.334 156.113H247.109L226.806 195H212.089L289.326 47.4023H305.117L382.353 195H367.636ZM297.275 60.4004L253.662 143.76H340.781L297.275 60.4004ZM498.085 132.48V195H484.657V132.48L415.37 47.4023H431.376L491.425 121.309L551.259 47.4023H567.372L498.085 132.48Z" fill="#60ACEF"/>
<defs>
<radialGradient id="paint0_diamond_1321_2" cx="0" cy="0" r="1" gradientUnits="userSpaceOnUse" gradientTransform="translate(1359.5 202) rotate(90) scale(154 197.5)">
<stop stop-color="white"/>
<stop offset="1" stop-color="#60ACEF"/>
</radialGradient>
<radialGradient id="paint1_diamond_1321_2" cx="0" cy="0" r="1" gradientUnits="userSpaceOnUse" gradientTransform="translate(624 117.5) rotate(90) scale(20.5 26)">
<stop stop-color="white"/>
<stop offset="1" stop-color="#60ACEF"/>
</radialGradient>
<clipPath id="clip0_1321_2">
<rect width="395" height="308" fill="white" transform="translate(1162 48)"/>
</clipPath>
<clipPath id="clip1_1321_2">
<rect width="52" height="41" fill="white" transform="translate(598 97)"/>
</clipPath>
</defs>
</svg>
