<svg width="123" height="123" viewBox="0 0 123 123" fill="none" xmlns="http://www.w3.org/2000/svg">
<g clip-path="url(#clip0_1491_5)">
<path d="M17.995 17.995C29.992 5.999 45.716 0 61.439 0C77.162 0 92.887 5.999 104.884 17.995C116.88 29.992 122.878 45.716 122.878 61.439C122.878 77.164 116.88 92.887 104.884 104.884C92.887 116.88 77.162 122.879 61.439 122.879C45.716 122.879 29.991 116.88 17.995 104.884C5.998 92.888 0 77.164 0 61.439C0 45.716 5.998 29.992 17.995 17.995ZM57.656 31.182C57.656 29.342 59.148 27.85 60.989 27.85C62.83 27.85 64.322 29.342 64.322 31.182V58.565H91.705C93.545 58.565 95.037 60.057 95.037 61.897C95.037 63.738 93.545 65.23 91.705 65.23H64.321V92.613C64.321 94.453 62.829 95.945 60.988 95.945C59.147 95.945 57.655 94.453 57.655 92.613V65.229H30.273C28.433 65.229 26.94 63.737 26.94 61.896C26.94 60.056 28.432 58.564 30.273 58.564H57.656V31.182V31.182ZM61.439 6.665C47.421 6.665 33.404 12.013 22.708 22.709C12.013 33.404 6.665 47.422 6.665 61.439C6.665 75.457 12.013 89.475 22.708 100.17C33.404 110.866 47.421 116.214 61.439 116.214C75.457 116.214 89.474 110.866 100.17 100.17C110.865 89.475 116.214 75.456 116.214 61.439C116.214 47.422 110.865 33.404 100.17 22.709C89.475 12.013 75.457 6.665 61.439 6.665Z" fill="#C69958"/>
</g>
<defs>
<clipPath id="clip0_1491_5">
<rect width="122.879" height="122.88" fill="white"/>
</clipPath>
</defs>
</svg>
