<svg width="15" height="11" viewBox="0 0 15 11" fill="none" xmlns="http://www.w3.org/2000/svg">
<g clip-path="url(#clip0_1131_378)">
<path fill-rule="evenodd" clip-rule="evenodd" d="M9.73877 9.8151C9.73877 10.4685 8.73413 11 7.49634 11C6.25854 11 5.25513 10.4685 5.25513 9.8151C5.25682 9.6898 5.29226 9.56731 5.35767 9.46074C5.64331 9.94183 6.49292 10.2913 7.49634 10.2913C8.1604 10.2913 9.2627 10.0932 9.63623 9.46074C9.70203 9.56713 9.73751 9.68973 9.73877 9.8151ZM2.94189 6.76734L2.91504 7.06141L1.81641 6.96421C1.90762 7.08186 1.97182 7.21843 2.00439 7.36409L1.7395 7.34072C1.71442 7.2468 1.6731 7.15808 1.61743 7.07863C1.56324 6.98854 1.48382 6.91662 1.38916 6.87192L1.41235 6.6443L2.94189 6.76734ZM4.42017 9.83233C4.42017 10.4758 3.43018 11 2.21069 11C0.991211 11 0 10.4758 0 9.83233C0.00128408 9.70868 0.0363394 9.58777 0.101318 9.48289C0.38208 9.9566 1.2207 10.3011 2.21069 10.3011C2.86377 10.3011 3.9502 10.1055 4.31885 9.48289C4.38371 9.58782 4.41876 9.7087 4.42017 9.83233ZM2.24365 6.34653C3.22998 6.34653 4.02588 6.6726 4.02588 7.06387C4.02588 7.45515 3.21289 7.78244 2.21069 7.78244C1.2085 7.78244 0.394287 7.46007 0.394287 7.06387C0.394287 6.66767 1.18164 6.35392 2.16186 6.34653H2.24365ZM2.23633 6.10783C3.4436 6.10783 4.42017 6.63568 4.42017 7.2755C4.42017 7.91532 3.43018 8.44318 2.21069 8.44318C0.991211 8.44318 0 7.92025 0 7.2755C0 6.63076 0.976562 6.11275 2.18506 6.10783H2.23633ZM4.42017 8.57729C4.42017 9.22081 3.43018 9.74497 2.21069 9.74497C0.991211 9.74497 0 9.22081 0 8.57729C0.000730235 8.45961 0.0332227 8.34434 0.0939941 8.24385C0.366211 8.72248 1.20972 9.07438 2.21069 9.07438C2.86499 9.07438 3.96728 8.87629 4.32617 8.24139C4.38615 8.34312 4.41857 8.45896 4.42017 8.57729ZM0.854492 5.81868L4.92187 1.60694C5.82519 2.49899 6.70044 3.57561 7.59399 4.46644L10.8533 1.16644L9.80347 0.109508L13.1152 0L12.9687 3.28893L11.886 2.20738C11.1633 2.94564 9.45434 4.57226 8.73169 5.30067C7.8125 6.22226 7.38037 6.23949 6.46973 5.3179L4.92187 3.58546L3.02734 5.81376C2.30832 5.68758 1.57294 5.68925 0.854492 5.81868ZM13.4888 4.48244L13.4644 4.75436L12.4512 4.66454C12.5352 4.77321 12.5944 4.89926 12.6245 5.03367L12.3804 5.01275C12.3576 4.92511 12.3205 4.84193 12.2705 4.76667C12.2197 4.68399 12.1464 4.61779 12.0593 4.57595L12.085 4.3594L13.4961 4.48244H13.4888ZM14.9866 8.63389C14.9866 9.27864 13.9966 9.8028 12.7759 9.8028C11.5552 9.8028 10.5664 9.27864 10.5664 8.63389C10.5682 8.51049 10.6027 8.38982 10.6665 8.28445C10.9497 8.7594 11.7871 9.10515 12.7771 9.10515C13.4277 9.10515 14.5178 8.90828 14.8926 8.28445C14.9573 8.38947 14.9923 8.51029 14.9939 8.63389H14.9866ZM14.9988 7.41823C14.9988 8.06297 14.0088 8.58591 12.7893 8.58591C11.5698 8.58591 10.5786 8.06297 10.5786 7.41823C10.5801 7.29461 10.6151 7.17376 10.6799 7.06879C10.9607 7.54374 11.7993 7.88702 12.7893 7.88702C13.4424 7.88702 14.5288 7.69262 14.8975 7.06879C14.9623 7.17373 14.9974 7.2946 14.9988 7.41823ZM12.8235 3.93736C13.8098 3.93736 14.6057 4.26465 14.6057 4.65593C14.6057 5.0472 13.7927 5.37327 12.7905 5.37327C11.7883 5.37327 10.9741 5.04474 10.9741 4.65101C10.9741 4.25727 11.7615 3.93736 12.7417 3.93736H12.8235ZM12.8174 3.69128C14.0247 3.69128 15.0012 4.22036 15.0012 4.86018C15.0012 5.5 14.01 6.02908 12.7905 6.02908C11.571 6.02908 10.5798 5.50492 10.5798 4.86141C10.5798 4.2179 11.5564 3.69743 12.7649 3.69251L12.8174 3.69128ZM15.0012 6.16074C15.0012 6.80548 14.0112 7.32841 12.7917 7.32841C11.5723 7.32841 10.5811 6.80548 10.5811 6.16074C10.5814 6.04261 10.6139 5.92683 10.675 5.82606C10.9473 6.30593 11.7908 6.65783 12.7917 6.65783C13.446 6.65783 14.5483 6.45973 14.9072 5.82606C14.9672 5.92735 14.9996 6.04279 15.0012 6.16074ZM14.989 9.82987C14.989 10.4734 13.999 10.9975 12.7783 10.9975C11.5576 10.9975 10.5688 10.4734 10.5688 9.82987C10.5703 9.70641 10.6049 9.58564 10.6689 9.48042C10.9509 9.95414 11.7883 10.2987 12.7783 10.2987C13.4326 10.2987 14.519 10.103 14.8877 9.48042C14.9526 9.58536 14.9876 9.70623 14.989 9.82987ZM8.3081 6.63076L8.28125 6.92483L7.18262 6.82763C7.27383 6.94528 7.33803 7.08185 7.3706 7.22752L7.10571 7.20414C7.08075 7.11018 7.03942 7.02144 6.98364 6.94206C6.92901 6.85188 6.84917 6.77997 6.75415 6.73535L6.77612 6.49664L7.27905 6.54094C7.3861 6.56441 7.49544 6.57555 7.60498 6.57416H7.64648L8.30566 6.63199L8.3081 6.63076ZM8.48389 6.28378C8.99902 6.41298 9.33838 6.6406 9.33838 6.89899C9.33838 7.30134 8.51318 7.6274 7.49512 7.6274C6.47705 7.6274 5.65308 7.30011 5.65308 6.89899C5.65308 6.61723 6.05713 6.3736 6.64795 6.25179C6.57104 6.19888 6.49292 6.14105 6.41479 6.07584C5.72266 6.27763 5.25391 6.66644 5.25391 7.11309C5.25391 7.76767 6.25732 8.29799 7.49512 8.29799C8.73291 8.29799 9.73755 7.76767 9.73755 7.11309C9.73755 6.69597 9.32861 6.32808 8.71094 6.11767C8.63281 6.17919 8.55713 6.23456 8.48145 6.28378H8.48389ZM9.73877 8.48993C9.73877 9.14452 8.73413 9.67483 7.49634 9.67483C6.25854 9.67483 5.25513 9.14452 5.25513 8.48993C5.25561 8.37028 5.28808 8.25296 5.34912 8.15034C5.62622 8.6425 6.48193 8.99564 7.49634 8.99564C8.1604 8.99564 9.27979 8.79385 9.64478 8.15034C9.70464 8.25347 9.73702 8.37046 9.73877 8.48993Z" fill="#AB854F"/>
</g>
<defs>
<clipPath id="clip0_1131_378">
<rect width="15" height="11" fill="white"/>
</clipPath>
</defs>
</svg>
