<svg width="123" height="96" viewBox="0 0 123 96" fill="none" xmlns="http://www.w3.org/2000/svg">
<g clip-path="url(#clip0_1339_2)">
<path d="M112.13 54.992C111.635 54.644 111.107 54.522 110.535 54.622C109.963 54.722 109.501 55.017 109.16 55.511L107.291 58.16C106.616 57.873 105.914 57.642 105.189 57.453C104.464 57.264 103.733 57.118 103.001 57.011L102.396 53.542C102.294 52.956 102.008 52.499 101.531 52.162C101.053 51.826 100.525 51.713 99.94 51.815L95.586 52.574C95.029 52.672 94.579 52.956 94.229 53.436C93.887 53.915 93.765 54.444 93.868 55.029L94.422 58.206C93.724 58.504 93.054 58.842 92.423 59.225C91.783 59.608 91.186 60.021 90.631 60.464L87.694 58.431C87.229 58.085 86.714 57.954 86.135 58.056C85.564 58.155 85.109 58.455 84.76 58.943L82.244 62.53C81.896 63.025 81.775 63.553 81.875 64.124C81.975 64.696 82.27 65.159 82.763 65.5L85.413 67.369C85.126 68.044 84.895 68.746 84.705 69.471C84.516 70.196 84.371 70.927 84.263 71.659L80.794 72.264C80.209 72.366 79.751 72.651 79.415 73.129C79.079 73.607 78.965 74.135 79.067 74.72L79.827 79.074C79.924 79.631 80.208 80.081 80.688 80.431C81.167 80.773 81.696 80.895 82.282 80.792L85.458 80.238C85.756 80.936 86.094 81.605 86.477 82.237C86.861 82.877 87.277 83.488 87.724 84.071L85.683 86.966C85.337 87.431 85.207 87.946 85.308 88.525C85.408 89.096 85.707 89.551 86.195 89.9L89.79 92.458C90.28 92.777 90.806 92.885 91.377 92.785C91.948 92.685 92.414 92.405 92.76 91.94L94.622 89.247C95.296 89.534 95.998 89.765 96.724 89.954C97.448 90.144 98.179 90.289 98.912 90.396L99.516 93.866C99.618 94.451 99.904 94.909 100.381 95.245C100.859 95.58 101.387 95.695 101.972 95.593L106.326 94.833C106.883 94.736 107.333 94.451 107.683 93.972C108.026 93.493 108.147 92.964 108.044 92.378L107.49 89.201C108.188 88.903 108.858 88.566 109.49 88.183C110.129 87.799 110.74 87.383 111.324 86.936L114.218 88.977C114.684 89.323 115.206 89.452 115.791 89.349C116.384 89.245 116.831 88.948 117.152 88.464L119.71 84.87C120.028 84.38 120.136 83.854 120.037 83.283C119.936 82.712 119.656 82.246 119.192 81.9L116.499 80.039C116.786 79.363 117.017 78.661 117.206 77.936C117.395 77.212 117.54 76.48 117.648 75.748L121.117 75.144C121.702 75.041 122.16 74.756 122.496 74.278C122.833 73.8 122.946 73.273 122.844 72.687L122.085 68.333C121.987 67.776 121.703 67.325 121.223 66.976C120.744 66.632 120.215 66.512 119.63 66.614L116.453 67.168C116.16 66.498 115.823 65.836 115.438 65.19C115.051 64.537 114.637 63.932 114.195 63.377L116.228 60.441C116.574 59.975 116.704 59.46 116.603 58.881C116.503 58.31 116.204 57.855 115.716 57.506L112.13 54.992ZM99.48 65.248C100.64 65.045 101.775 65.072 102.892 65.33C104.002 65.596 105.007 66.04 105.903 66.664C106.794 67.296 107.552 68.091 108.178 69.046C108.798 70.01 109.208 71.068 109.41 72.229C109.613 73.39 109.585 74.525 109.328 75.641C109.062 76.752 108.617 77.755 107.992 78.652C107.361 79.544 106.567 80.301 105.611 80.927C104.648 81.547 103.59 81.957 102.429 82.16C101.268 82.362 100.133 82.335 99.017 82.077C97.906 81.811 96.902 81.367 96.006 80.742C95.114 80.11 94.357 79.316 93.731 78.361C93.111 77.397 92.701 76.339 92.498 75.178C92.296 74.017 92.323 72.882 92.581 71.766C92.847 70.655 93.291 69.651 93.916 68.754C94.547 67.864 95.342 67.106 96.297 66.48C97.262 65.86 98.319 65.45 99.48 65.248ZM66.013 13.556C65.833 13.375 65.665 13.253 65.511 13.188C65.365 13.126 65.181 13.096 64.96 13.096C64.735 13.096 64.548 13.128 64.397 13.191C64.237 13.258 64.076 13.374 63.916 13.538L63.897 13.556L59.725 17.715C58.901 18.535 57.626 18.625 56.703 17.987C56.234 17.686 55.731 17.392 55.199 17.104C54.619 16.791 54.062 16.514 53.524 16.268C52.957 16.009 52.375 15.764 51.781 15.533C51.262 15.331 50.662 15.118 49.989 14.897C48.988 14.567 48.352 13.636 48.353 12.636H48.352V6.238C48.352 6.005 48.318 5.805 48.25 5.639C48.185 5.478 48.079 5.326 47.935 5.18L47.931 5.184C47.78 5.034 47.628 4.927 47.476 4.865C47.31 4.797 47.11 4.764 46.877 4.764H38.85C38.638 4.764 38.458 4.794 38.31 4.856C38.144 4.924 37.974 5.043 37.799 5.212C37.657 5.355 37.553 5.503 37.489 5.656C37.422 5.816 37.388 6.009 37.388 6.236V12.092C37.388 13.264 36.542 14.238 35.427 14.437C34.795 14.588 34.221 14.741 33.713 14.897C33.138 15.073 32.556 15.275 31.967 15.504C31.411 15.718 30.842 15.96 30.261 16.228C29.678 16.498 29.141 16.766 28.654 17.032C27.714 17.544 26.579 17.355 25.854 16.64L25.853 16.641L21.233 12.088C21.214 12.069 21.196 12.051 21.178 12.032H21.177C21.032 11.879 20.887 11.769 20.742 11.706C20.609 11.648 20.438 11.618 20.227 11.618C20.017 11.618 19.837 11.651 19.685 11.715C19.508 11.79 19.334 11.912 19.164 12.078L13.554 17.701L13.55 17.705L13.554 17.71C13.374 17.89 13.252 18.057 13.187 18.211C13.125 18.357 13.095 18.541 13.095 18.762C13.095 18.986 13.126 19.174 13.19 19.325C13.258 19.485 13.373 19.646 13.537 19.806L13.555 19.825L17.714 23.997C18.534 24.822 18.624 26.096 17.986 27.02C17.685 27.488 17.391 27.991 17.103 28.524C16.79 29.103 16.513 29.66 16.267 30.198C16.007 30.766 15.762 31.348 15.532 31.942C15.33 32.462 15.117 33.062 14.895 33.734C14.565 34.735 13.634 35.371 12.634 35.371V35.372H6.239C6.005 35.372 5.805 35.406 5.64 35.473C5.478 35.539 5.327 35.642 5.186 35.784L5.177 35.793C5.036 35.934 4.932 36.085 4.866 36.247C4.799 36.413 4.765 36.613 4.765 36.846V44.874C4.765 45.085 4.796 45.265 4.857 45.414C4.925 45.579 5.044 45.749 5.214 45.925L5.216 45.927C5.359 46.068 5.507 46.171 5.658 46.234C5.818 46.3 6.011 46.334 6.239 46.334H12.094C13.266 46.334 14.24 47.181 14.439 48.296C14.589 48.925 14.741 49.495 14.897 50.002L14.899 50.001C15.084 50.605 15.286 51.19 15.506 51.756C15.718 52.306 15.963 52.888 16.239 53.501C16.524 54.131 16.796 54.693 17.053 55.186C17.546 56.13 17.341 57.253 16.623 57.967L16.625 57.968L12.071 62.509L12.033 62.546H12.034C11.881 62.692 11.771 62.836 11.708 62.982C11.65 63.115 11.62 63.286 11.62 63.497C11.62 63.706 11.653 63.887 11.717 64.038C11.793 64.218 11.918 64.394 12.089 64.568L17.657 70.201C17.822 70.352 17.989 70.462 18.158 70.528C18.329 70.595 18.532 70.63 18.765 70.63C19.001 70.63 19.207 70.596 19.383 70.526C19.548 70.461 19.706 70.359 19.855 70.219L23.98 66.029C24.801 65.194 26.088 65.094 27.021 65.738C27.489 66.038 27.993 66.333 28.526 66.621C29.106 66.934 29.663 67.211 30.2 67.457C30.768 67.717 31.35 67.962 31.944 68.192C32.463 68.394 33.064 68.607 33.736 68.828C34.737 69.158 35.373 70.09 35.373 71.09H35.374V77.486C35.374 77.718 35.408 77.919 35.476 78.085C35.542 78.247 35.645 78.398 35.786 78.539L35.79 78.544L35.795 78.539C36.077 78.821 36.426 78.96 36.848 78.96H44.875C45.086 78.96 45.267 78.93 45.415 78.868C45.58 78.8 45.75 78.68 45.926 78.511C46.068 78.367 46.171 78.219 46.235 78.067C46.302 77.907 46.336 77.713 46.336 77.487V71.631C46.336 70.458 47.183 69.484 48.297 69.285C48.929 69.135 49.503 68.981 50.011 68.825C50.586 68.649 51.168 68.447 51.757 68.219C52.307 68.007 52.889 67.762 53.502 67.486C54.132 67.201 54.695 66.929 55.187 66.673C56.131 66.18 57.254 66.385 57.968 67.103L57.969 67.101L62.51 71.655L62.546 71.693L62.547 71.692C62.694 71.847 62.839 71.957 62.981 72.018C63.116 72.077 63.296 72.106 63.524 72.106C63.744 72.106 63.928 72.073 64.078 72.008C64.232 71.942 64.377 71.836 64.514 71.692C64.544 71.661 64.575 71.63 64.606 71.6L70.204 66.068C70.354 65.904 70.464 65.737 70.53 65.567C70.597 65.396 70.632 65.194 70.632 64.961C70.632 64.724 70.597 64.518 70.528 64.343C70.463 64.177 70.361 64.02 70.222 63.871L66.031 59.745C65.196 58.924 65.096 57.636 65.74 56.704C66.041 56.235 66.335 55.732 66.623 55.2C66.936 54.62 67.213 54.063 67.459 53.524C67.719 52.957 67.964 52.375 68.194 51.781C68.396 51.262 68.609 50.661 68.831 49.989C69.161 48.987 70.093 48.352 71.093 48.352V48.351H77.488C77.722 48.351 77.922 48.318 78.088 48.249C78.25 48.184 78.401 48.08 78.542 47.939L78.547 47.935L78.542 47.93C78.824 47.648 78.963 47.298 78.963 46.877V38.85C78.963 38.638 78.932 38.458 78.871 38.31C78.803 38.145 78.683 37.975 78.514 37.799L78.512 37.796C78.369 37.655 78.222 37.553 78.07 37.489C77.911 37.422 77.717 37.389 77.489 37.389H71.634C70.448 37.389 69.465 36.522 69.282 35.388C69.149 34.86 68.999 34.321 68.829 33.772C68.658 33.222 68.454 32.631 68.212 31.998C68.197 31.958 68.183 31.918 68.17 31.878C67.949 31.3 67.725 30.761 67.497 30.262C67.244 29.708 66.976 29.172 66.693 28.654C66.181 27.714 66.371 26.579 67.085 25.854H67.084L71.638 21.234C71.657 21.215 71.675 21.197 71.695 21.179L71.694 21.178C71.847 21.033 71.957 20.888 72.02 20.743C72.078 20.61 72.108 20.439 72.108 20.228C72.108 20.018 72.075 19.838 72.01 19.686C71.935 19.51 71.814 19.336 71.647 19.165L66.024 13.556L66.019 13.551L66.013 13.556ZM67.354 8.813C68.11 9.133 68.786 9.59 69.382 10.186L69.377 10.191L75.005 15.806L75.024 15.825C75.616 16.427 76.071 17.094 76.382 17.825C76.705 18.585 76.87 19.385 76.87 20.228C76.87 21.083 76.702 21.887 76.372 22.642C76.05 23.381 75.583 24.035 74.978 24.611L71.665 27.971C71.715 28.076 71.764 28.183 71.812 28.289C72.103 28.928 72.37 29.562 72.611 30.192C72.627 30.228 72.642 30.266 72.657 30.304C72.902 30.946 73.138 31.639 73.367 32.376L73.443 32.624H77.486C78.339 32.624 79.138 32.782 79.891 33.097C80.63 33.407 81.295 33.86 81.889 34.457L81.936 34.504C82.517 35.105 82.957 35.771 83.261 36.504C83.571 37.254 83.725 38.035 83.725 38.85V46.878C83.725 48.615 83.126 50.081 81.908 51.299L81.904 51.294C81.296 51.901 80.62 52.356 79.872 52.66C79.127 52.965 78.333 53.115 77.486 53.115H72.77C72.723 53.239 72.674 53.365 72.624 53.492C72.365 54.159 72.083 54.827 71.777 55.497C71.458 56.195 71.135 56.85 70.81 57.451C70.772 57.522 70.733 57.595 70.692 57.667L73.561 60.49C73.593 60.52 73.624 60.552 73.656 60.584C74.232 61.192 74.666 61.869 74.958 62.61C75.251 63.353 75.396 64.138 75.396 64.96C75.396 65.778 75.25 66.558 74.959 67.297C74.669 68.035 74.241 68.707 73.674 69.317L73.673 69.316C73.65 69.341 73.625 69.367 73.6 69.391L67.949 74.977C67.364 75.591 66.702 76.062 65.959 76.382C65.208 76.705 64.397 76.87 63.525 76.87C62.672 76.87 61.866 76.702 61.103 76.372C60.347 76.046 59.682 75.575 59.105 74.967L55.809 71.661C55.69 71.717 55.573 71.77 55.458 71.822C54.847 72.097 54.185 72.374 53.471 72.649C52.81 72.906 52.115 73.145 51.39 73.367C51.293 73.397 51.197 73.427 51.101 73.455V77.488C51.101 78.34 50.943 79.14 50.628 79.891C50.318 80.631 49.864 81.296 49.267 81.89L49.22 81.937C48.619 82.517 47.953 82.958 47.221 83.261C46.471 83.572 45.691 83.726 44.875 83.726H36.85C35.113 83.726 33.646 83.126 32.428 81.91L32.432 81.905C31.825 81.297 31.37 80.621 31.066 79.873C30.762 79.128 30.611 78.334 30.611 77.488V72.77C30.487 72.723 30.362 72.674 30.234 72.625C29.568 72.365 28.9 72.083 28.231 71.777C27.532 71.458 26.878 71.135 26.276 70.81C26.204 70.771 26.132 70.732 26.061 70.692L23.237 73.56C23.207 73.593 23.175 73.624 23.143 73.656C22.535 74.232 21.857 74.666 21.117 74.958C20.374 75.251 19.589 75.396 18.768 75.396C17.948 75.396 17.169 75.251 16.43 74.96C15.692 74.67 15.02 74.241 14.411 73.674L14.412 73.673C14.386 73.65 14.361 73.625 14.336 73.6L8.703 67.903C8.111 67.299 7.657 66.633 7.345 65.902C7.021 65.143 6.857 64.342 6.857 63.5C6.857 62.645 7.025 61.841 7.355 61.087C7.68 60.343 8.15 59.686 8.76 59.107L12.066 55.81C12.01 55.692 11.957 55.575 11.905 55.459C11.629 54.848 11.353 54.186 11.078 53.473C10.811 52.788 10.573 52.097 10.359 51.401L10.361 51.4L10.359 51.392L10.272 51.103H6.239C5.387 51.103 4.587 50.946 3.835 50.631C3.095 50.321 2.43 49.867 1.836 49.271L1.789 49.223C1.208 48.622 0.768 47.956 0.465 47.224C0.154 46.473 0 45.691 0 44.877V36.849C0 36.003 0.151 35.209 0.455 34.464C0.759 33.719 1.211 33.045 1.815 32.439L1.817 32.437L1.821 32.433L1.825 32.428C2.431 31.824 3.106 31.37 3.852 31.066C4.598 30.762 5.392 30.611 6.238 30.611H10.956C11.003 30.487 11.052 30.362 11.102 30.234C11.361 29.568 11.643 28.9 11.949 28.23C12.268 27.532 12.59 26.878 12.915 26.276C12.957 26.199 12.999 26.121 13.041 26.044L10.188 23.183C9.587 22.588 9.129 21.915 8.814 21.172C8.489 20.404 8.328 19.601 8.328 18.767C8.328 17.936 8.489 17.139 8.811 16.374C9.13 15.618 9.587 14.942 10.184 14.346L10.188 14.35L15.803 8.722L15.822 8.703C16.424 8.111 17.09 7.656 17.822 7.344C18.582 7.021 19.382 6.856 20.225 6.856C21.08 6.856 21.883 7.024 22.638 7.354C23.377 7.677 24.031 8.143 24.607 8.748L27.962 12.056C28.064 12.007 28.165 11.96 28.266 11.913C28.883 11.628 29.544 11.35 30.251 11.078C30.912 10.821 31.607 10.581 32.332 10.359C32.429 10.33 32.525 10.3 32.621 10.272V6.238C32.621 5.386 32.779 4.586 33.093 3.834C33.403 3.095 33.857 2.429 34.453 1.835L34.501 1.788C35.102 1.207 35.768 0.767 36.501 0.464C37.254 0.154 38.035 0 38.85 0H46.878C47.723 0 48.518 0.151 49.263 0.455C50.022 0.765 50.701 1.218 51.299 1.816L51.295 1.821L51.299 1.825C51.903 2.428 52.356 3.103 52.661 3.852C52.965 4.597 53.116 5.392 53.116 6.237V10.956C53.24 11.003 53.366 11.052 53.493 11.101C54.159 11.36 54.827 11.642 55.497 11.948C56.196 12.268 56.85 12.59 57.451 12.915L57.683 13.041L60.544 10.188C61.14 9.586 61.812 9.129 62.555 8.814C63.324 8.489 64.126 8.329 64.96 8.329C65.791 8.331 66.589 8.491 67.354 8.813ZM41.863 23.754C43.097 23.754 44.301 23.872 45.479 24.107C46.631 24.337 47.777 24.693 48.917 25.174L48.933 25.181L48.936 25.174C50.013 25.638 51.039 26.197 52.013 26.849C52.977 27.494 53.868 28.222 54.685 29.032L54.695 29.042C55.506 29.86 56.234 30.752 56.879 31.716C57.531 32.69 58.089 33.716 58.554 34.792C58.582 34.858 58.608 34.925 58.63 34.992C59.073 36.073 59.403 37.158 59.621 38.248C59.856 39.425 59.974 40.63 59.974 41.864C59.974 43.098 59.856 44.303 59.621 45.479C59.391 46.631 59.035 47.777 58.554 48.918L58.547 48.934L58.554 48.936C58.09 50.012 57.531 51.038 56.879 52.012C56.234 52.976 55.506 53.867 54.695 54.685L54.685 54.695C53.868 55.505 52.977 56.233 52.012 56.879C51.038 57.53 50.013 58.089 48.936 58.554C48.87 58.582 48.804 58.608 48.736 58.629C47.655 59.072 46.57 59.402 45.479 59.62C44.302 59.855 43.097 59.973 41.863 59.973C40.629 59.973 39.425 59.856 38.248 59.62C37.096 59.391 35.95 59.035 34.81 58.554L34.794 58.547L34.791 58.554C33.715 58.089 32.689 57.531 31.715 56.879C30.751 56.233 29.86 55.505 29.043 54.695L29.034 54.685C28.223 53.868 27.495 52.976 26.85 52.012C26.198 51.038 25.64 50.013 25.176 48.936C25.147 48.871 25.122 48.803 25.1 48.737C24.657 47.656 24.327 46.57 24.108 45.479C23.873 44.303 23.755 43.098 23.755 41.864C23.755 40.63 23.873 39.426 24.108 38.248C24.338 37.096 24.694 35.95 25.175 34.81L25.181 34.794L25.175 34.792C25.639 33.715 26.197 32.69 26.849 31.716C27.495 30.752 28.222 29.861 29.033 29.042L29.042 29.033C29.859 28.223 30.75 27.495 31.714 26.85C32.689 26.198 33.714 25.639 34.791 25.175C34.858 25.146 34.925 25.121 34.993 25.099C36.073 24.657 37.158 24.326 38.248 24.108C39.424 23.872 40.629 23.754 41.863 23.754ZM44.548 28.778C43.682 28.606 42.787 28.519 41.863 28.519C40.939 28.519 40.044 28.606 39.178 28.778C38.345 28.944 37.555 29.179 36.808 29.483C36.763 29.505 36.717 29.527 36.67 29.547C35.825 29.912 35.053 30.328 34.356 30.795C33.651 31.267 32.998 31.801 32.395 32.398C31.8 32.999 31.266 33.653 30.794 34.358C30.328 35.055 29.912 35.827 29.547 36.671L29.54 36.668C29.208 37.458 28.954 38.294 28.778 39.179C28.605 40.045 28.518 40.94 28.518 41.864C28.518 42.788 28.604 43.683 28.778 44.549C28.944 45.381 29.179 46.171 29.482 46.918C29.505 46.963 29.526 47.009 29.547 47.057C29.911 47.902 30.327 48.672 30.794 49.37C31.266 50.075 31.8 50.728 32.397 51.331C32.999 51.927 33.652 52.461 34.357 52.933C35.054 53.4 35.826 53.816 36.67 54.18L36.667 54.187C37.456 54.518 38.292 54.773 39.177 54.95C40.043 55.122 40.937 55.209 41.862 55.209C42.786 55.209 43.681 55.122 44.547 54.95C45.38 54.784 46.169 54.549 46.916 54.246C46.962 54.223 47.008 54.201 47.055 54.181C47.9 53.817 48.671 53.401 49.368 52.935C50.073 52.462 50.727 51.928 51.329 51.332C51.925 50.73 52.459 50.076 52.932 49.37C53.398 48.674 53.814 47.902 54.178 47.058L54.185 47.06C54.517 46.271 54.771 45.435 54.948 44.55C55.121 43.684 55.208 42.789 55.208 41.865C55.208 40.941 55.121 40.046 54.948 39.18C54.782 38.347 54.547 37.558 54.244 36.811C54.221 36.766 54.199 36.72 54.179 36.672C53.815 35.828 53.399 35.056 52.932 34.359C52.46 33.653 51.926 33 51.331 32.399C50.729 31.802 50.075 31.268 49.37 30.796C48.672 30.329 47.901 29.913 47.056 29.548L47.059 29.541C46.27 29.209 45.434 28.955 44.548 28.778Z" fill="#AB854F"/>
</g>
<defs>
<clipPath id="clip0_1339_2">
<rect width="122.881" height="95.629" fill="white"/>
</clipPath>
</defs>
</svg>
