<svg width="123" height="113" viewBox="0 0 123 113" fill="none" xmlns="http://www.w3.org/2000/svg">
<g clip-path="url(#clip0_1839_2)">
<path d="M31.21 63.63C30.7008 63.63 30.2125 63.4277 29.8524 63.0676C29.4923 62.7076 29.29 62.2192 29.29 61.71C29.29 61.2008 29.4923 60.7124 29.8524 60.3524C30.2125 59.9923 30.7008 59.79 31.21 59.79H34C35.6348 59.7591 37.2468 60.1776 38.66 61C40.2277 62.024 41.344 63.609 41.78 65.43C41.7692 65.4535 41.7637 65.4791 41.7637 65.505C41.7637 65.5309 41.7692 65.5565 41.78 65.58L42.26 67.58H43.36V59.68C43.3627 59.1689 43.5668 58.6796 43.9282 58.3182C44.2896 57.9568 44.779 57.7526 45.29 57.75H55.48C55.9911 57.7526 56.4805 57.9568 56.8418 58.3182C57.2032 58.6796 57.4074 59.1689 57.41 59.68V64.37C58.2171 63.5538 59.1779 62.9055 60.2369 62.4627C61.2959 62.0199 62.4322 61.7912 63.58 61.79C64.6037 61.7854 65.6199 61.965 66.58 62.32C67.9053 60.911 69.5951 59.8967 71.4618 59.3897C73.3285 58.8826 75.2992 58.9026 77.1552 59.4474C79.0112 59.9922 80.6801 61.0405 81.9765 62.476C83.273 63.9116 84.1465 65.6782 84.5 67.58H84.97C85.4722 67.5826 85.9529 67.784 86.3071 68.14C86.6612 68.4961 86.86 68.9778 86.86 69.48C86.8546 69.6764 86.8243 69.8712 86.77 70.06L81.77 90.06C81.6743 90.4778 81.4387 90.8503 81.1022 91.1159C80.7657 91.3814 80.3486 91.524 79.92 91.52H48.74C49.42 94 50.11 95.38 51 96C52.12 96.73 54.07 96.78 57.33 96.73H79.42C79.9239 96.73 80.4072 96.9302 80.7635 97.2865C81.1198 97.6428 81.32 98.1261 81.32 98.63C81.32 99.1339 81.1198 99.6172 80.7635 99.9735C80.4072 100.33 79.9239 100.53 79.42 100.53H57.42C53.42 100.53 50.89 100.53 48.9 99.16C46.91 97.79 45.78 95.46 44.71 91.22L38.17 66.55C38.17 66.55 38.17 66.55 38.17 66.46C38.0828 66.0168 37.909 65.5952 37.6585 65.2194C37.4079 64.8436 37.0856 64.5209 36.71 64.27C35.8855 63.8044 34.9457 63.5824 34 63.63H31.21ZM114.56 52.63V105.63C114.557 107.356 113.871 109.01 112.65 110.23C111.43 111.451 109.776 112.137 108.05 112.14H14.83C13.9747 112.138 13.128 111.968 12.3387 111.638C11.5493 111.309 10.8327 110.827 10.23 110.22C9.62443 109.617 9.14395 108.9 8.81618 108.111C8.4884 107.321 8.31979 106.475 8.32003 105.62V52.7C10.256 53.0191 12.2198 53.1364 14.18 53.05V105.14C14.1792 105.289 14.208 105.436 14.2646 105.573C14.3213 105.711 14.4047 105.835 14.51 105.94C14.6156 106.044 14.7407 106.125 14.878 106.18C15.0153 106.235 15.1622 106.262 15.31 106.26H48.7C48.9645 105.263 49.5511 104.381 50.3685 103.752C51.186 103.122 52.1884 102.781 53.22 102.78C54.2529 102.78 55.2569 103.122 56.076 103.751C56.8951 104.38 57.4835 105.262 57.75 106.26H69.2C69.4645 105.263 70.0511 104.381 70.8685 103.752C71.6859 103.122 72.6884 102.781 73.72 102.78C74.7534 102.779 75.7581 103.119 76.5776 103.749C77.397 104.378 77.9851 105.261 78.25 106.26H107.57C107.87 106.26 108.157 106.141 108.369 105.929C108.581 105.717 108.7 105.43 108.7 105.13V52.8C110.653 52.9617 112.618 52.908 114.56 52.64V52.63ZM68.81 75.34C68.87 75.0326 69.035 74.7557 69.2767 74.5566C69.5184 74.3575 69.8219 74.2486 70.135 74.2486C70.4482 74.2486 70.7516 74.3575 70.9933 74.5566C71.2351 74.7557 71.4 75.0326 71.46 75.34V82.69C71.4 82.9974 71.2351 83.2743 70.9933 83.4734C70.7516 83.6725 70.4482 83.7814 70.135 83.7814C69.8219 83.7814 69.5184 83.6725 69.2767 83.4734C69.035 83.2743 68.87 82.9974 68.81 82.69V75.34ZM60.87 75.34C60.93 75.0326 61.095 74.7557 61.3367 74.5566C61.5784 74.3575 61.8819 74.2486 62.195 74.2486C62.5082 74.2486 62.8116 74.3575 63.0533 74.5566C63.2951 74.7557 63.46 75.0326 63.52 75.34V82.69C63.46 82.9974 63.2951 83.2743 63.0533 83.4734C62.8116 83.6725 62.5082 83.7814 62.195 83.7814C61.8819 83.7814 61.5784 83.6725 61.3367 83.4734C61.095 83.2743 60.93 82.9974 60.87 82.69V75.34ZM52.94 75.34C53 75.0326 53.165 74.7557 53.4067 74.5566C53.6484 74.3575 53.9519 74.2486 54.265 74.2486C54.5782 74.2486 54.8816 74.3575 55.1233 74.5566C55.3651 74.7557 55.53 75.0326 55.59 75.34V82.69C55.53 82.9974 55.3651 83.2743 55.1233 83.4734C54.8816 83.6725 54.5782 83.7814 54.265 83.7814C53.9519 83.7814 53.6484 83.6725 53.4067 83.4734C53.165 83.2743 53 82.9974 52.94 82.69V75.34ZM69.36 64C70.458 64.9766 71.308 66.2003 71.84 67.57H81.13C80.8264 66.3702 80.2179 65.2693 79.3635 64.3741C78.5091 63.4788 77.4377 62.8196 76.2534 62.4604C75.0691 62.1012 73.8121 62.0542 72.6043 62.3239C71.3965 62.5937 70.2789 63.171 69.36 64ZM72.47 71.37H43.39L47.72 87.68H78.45L82.45 71.37H72.47ZM55.2 67.53C55.2 67.4 55.31 67.26 55.37 67.13V61.07C55.37 60.6987 55.2225 60.3426 54.96 60.0801C54.6974 59.8175 54.3413 59.67 53.97 59.67H47C46.6287 59.67 46.2726 59.8175 46.0101 60.0801C45.7475 60.3426 45.6 60.6987 45.6 61.07V67.53H55.2ZM106.09 46.4C104.84 45.81 101.76 45.01 100.79 44.05C99.9463 43.1989 99.232 42.2285 98.67 41.17C98.108 42.2285 97.3938 43.1989 96.55 44.05C94.41 46.18 89.55 47.51 86.26 47.51C82.97 47.51 78.11 46.18 76 44.05C75.1563 43.1989 74.442 42.2285 73.88 41.17C73.318 42.2285 72.6038 43.1989 71.76 44.05C69.62 46.18 64.76 47.51 61.47 47.51C58.18 47.51 53.32 46.18 51.18 44.05C50.315 43.203 49.5804 42.2324 49 41.17C48.438 42.2285 47.7238 43.1989 46.88 44.05C44.74 46.18 39.88 47.51 36.59 47.51C33.3 47.51 28.44 46.18 26.3 44.05C25.4563 43.1989 24.742 42.2285 24.18 41.17C23.618 42.2285 22.9038 43.1989 22.06 44.05C20.65 45.45 16.94 46.51 14.98 47.05C11.03 47.53 6.37003 46.96 3.44003 44.05C2.34634 42.9544 1.47953 41.6538 0.889243 40.2227C0.298953 38.7916 -0.0032211 37.2581 2.58921e-05 35.71V31.07C0.00306387 30.8396 0.0613633 30.6132 0.170026 30.41L8.49003 3.76C9.17003 1.57 10.84 0.16 14.07 0H108.16C111.06 0.31 112.95 1.53 113.73 3.74L122.73 30.36C122.844 30.5511 122.91 30.7675 122.92 30.99C122.925 31.0366 122.925 31.0834 122.92 31.13V35.71C122.919 37.2602 122.612 38.7949 122.017 40.2261C121.421 41.6574 120.549 42.9569 119.45 44.05C115.97 47.53 110.67 47.44 106.13 46.4H106.09Z" fill="#C69958"/>
</g>
<defs>
<clipPath id="clip0_1839_2">
<rect width="122.88" height="112.14" fill="white"/>
</clipPath>
</defs>
</svg>
