<svg width="10" height="12" viewBox="0 0 10 12" fill="none" xmlns="http://www.w3.org/2000/svg">
<g clip-path="url(#clip0_1143_1015)">
<path d="M2.88176 1.42285V0.509766C2.88196 0.443061 2.89493 0.377055 2.91993 0.315546C2.94494 0.254037 2.98148 0.19824 3.02746 0.151367C3.07293 0.103658 3.12711 0.0657184 3.18687 0.0397383C3.24663 0.0137583 3.31077 0.000252286 3.37561 0L6.62254 0C6.75284 0.000573091 6.87764 0.0542784 6.96975 0.149414C7.06191 0.244491 7.11394 0.373313 7.1145 0.507812V1.4209H9.67647C9.71845 1.42064 9.76007 1.42897 9.79891 1.4454C9.83776 1.46184 9.87307 1.48606 9.9028 1.51665C9.93253 1.54725 9.9561 1.58363 9.97214 1.62368C9.98817 1.66373 9.99637 1.70666 9.99624 1.75V2.88867C9.99674 2.93202 9.98896 2.97504 9.97335 3.01529C9.95774 3.05553 9.9346 3.09221 9.90526 3.12322C9.87592 3.15424 9.84095 3.17898 9.80234 3.19604C9.76373 3.2131 9.72224 3.22215 9.68025 3.22266H9.3198L8.53456 11.7402C8.52736 11.8117 8.49495 11.878 8.44349 11.9265C8.39202 11.9749 8.3251 12.0021 8.25546 12.0029H1.74364C1.66917 12.0029 1.59769 11.9727 1.5446 11.9189C1.49151 11.865 1.46106 11.7917 1.45981 11.7148L0.68025 3.22266H0.318849C0.276615 3.22253 0.234824 3.21377 0.195888 3.19688C0.156953 3.17999 0.121644 3.15531 0.0920005 3.12426C0.0623572 3.0932 0.0389669 3.0564 0.02318 3.01596C0.0073931 2.97553 -0.000477576 2.93226 2.24106e-05 2.88867V1.75195C-0.00010249 1.7087 0.00805895 1.66585 0.0240373 1.62586C0.0400156 1.58587 0.0634954 1.54954 0.0931261 1.51896C0.122757 1.48837 0.157954 1.46413 0.196692 1.44764C0.23543 1.43115 0.276945 1.42272 0.318849 1.42285H2.88176ZM6.31317 1.42285V0.831055H3.68971V1.42285H6.31317ZM4.6812 4.80957C4.6812 4.72151 4.71509 4.63706 4.77541 4.57479C4.83573 4.51252 4.91755 4.47754 5.00286 4.47754C5.08817 4.47754 5.16999 4.51252 5.23031 4.57479C5.29064 4.63706 5.32453 4.72151 5.32453 4.80957V9.86914C5.32453 9.91274 5.31621 9.95592 5.30004 9.9962C5.28388 10.0365 5.26018 10.0731 5.23031 10.1039C5.20044 10.1348 5.16498 10.1592 5.12596 10.1759C5.08693 10.1926 5.0451 10.2012 5.00286 10.2012C4.96062 10.2012 4.91879 10.1926 4.87977 10.1759C4.84074 10.1592 4.80528 10.1348 4.77541 10.1039C4.74554 10.0731 4.72185 10.0365 4.70568 9.9962C4.68952 9.95592 4.6812 9.91274 4.6812 9.86914V4.80957ZM6.58375 4.78516C6.58447 4.74029 6.59399 4.69604 6.61173 4.65508C6.62948 4.61412 6.65508 4.57729 6.687 4.54683C6.71892 4.51637 6.75649 4.4929 6.79744 4.47785C6.83839 4.46279 6.88187 4.45646 6.92526 4.45923C6.96865 4.46201 7.01104 4.47383 7.04988 4.49399C7.08871 4.51415 7.12319 4.54222 7.15122 4.57652C7.17925 4.61081 7.20026 4.65062 7.21297 4.69352C7.22569 4.73643 7.22984 4.78156 7.22519 4.82617L6.90636 9.88965C6.89754 9.97473 6.85723 10.053 6.79385 10.1082C6.73046 10.1633 6.6489 10.1911 6.56616 10.1857C6.48343 10.1803 6.40592 10.1421 6.34979 10.0791C6.29367 10.0161 6.26326 9.93321 6.26492 9.84766L6.58375 4.78516ZM2.77486 4.82617C2.77225 4.78276 2.77795 4.73925 2.79163 4.69811C2.80532 4.65697 2.82671 4.61902 2.85461 4.58642C2.8825 4.55382 2.91634 4.52721 2.9542 4.50811C2.99205 4.48901 3.03318 4.47779 3.07524 4.4751C3.11729 4.4724 3.15945 4.47829 3.1993 4.49241C3.23915 4.50654 3.27592 4.52863 3.3075 4.55742C3.33909 4.58621 3.36486 4.62114 3.38337 4.66022C3.40187 4.69929 3.41274 4.74175 3.41535 4.78516L3.73796 9.84375C3.74335 9.93142 3.71479 10.0177 3.65855 10.0836C3.6023 10.1496 3.52299 10.1897 3.43806 10.1953C3.35312 10.2009 3.26952 10.1714 3.20565 10.1133C3.14178 10.0553 3.10286 9.97342 3.09747 9.88574L2.77486 4.83008V4.82617ZM8.75215 3.25977H1.24789L1.99908 11.4189H8.00002L8.75688 3.25977H8.75215Z" fill="#AB854F"/>
</g>
<defs>
<clipPath id="clip0_1143_1015">
<rect width="10" height="12" fill="white"/>
</clipPath>
</defs>
</svg>
