<svg width="64" height="64" viewBox="0 0 64 64" fill="none" xmlns="http://www.w3.org/2000/svg">
<g clip-path="url(#clip0_677_4)">
<path fill-rule="evenodd" clip-rule="evenodd" d="M64.0013 12.1513C61.6485 13.2037 59.1138 13.9029 56.467 14.2147C59.1788 12.5907 61.2528 10.017 62.2426 6.95316C59.7079 8.45196 56.891 9.55166 53.9063 10.1398C51.5063 7.58976 48.0976 6.00476 44.3215 6.00476C37.0707 6.00476 31.2005 11.8784 31.2005 19.1246C31.2005 20.1474 31.3139 21.1478 31.536 22.1128C20.626 21.56 10.9539 16.3371 4.47902 8.39056C3.31517 10.3954 2.70231 12.6724 2.70262 14.9906C2.70262 19.5403 5.01282 23.5644 8.53732 25.9113C6.38652 25.8475 4.36332 25.2475 2.58682 24.2754V24.4396C2.58682 30.8023 7.10932 36.1114 13.1188 37.3114C12.018 37.6102 10.8558 37.7756 9.65822 37.7756C8.81022 37.7756 7.99282 37.6882 7.18022 37.5406C8.85852 42.7516 13.7035 46.5501 19.4414 46.6611C14.9425 50.1856 9.29212 52.2844 3.13242 52.2844C2.06942 52.2844 1.03362 52.2194 -0.000976562 52.0954C5.82192 55.8313 12.7196 57.9951 20.13 57.9951C44.272 57.9951 57.4852 37.9882 57.4852 20.6411C57.4852 20.0647 57.4722 19.5061 57.4486 18.9415C60.0128 17.1072 62.2356 14.7922 63.9955 12.1571L64.0014 12.1512L64.0013 12.1513Z" fill="#9C9C9C"/>
</g>
<defs>
<clipPath id="clip0_677_4">
<rect width="64" height="64" fill="white"/>
</clipPath>
</defs>
</svg>
