<svg width="10" height="10" viewBox="0 0 10 10" fill="none" xmlns="http://www.w3.org/2000/svg">
<g clip-path="url(#clip0_1279_360)">
<path d="M2.53111 2.9681C2.44561 3.05195 2.31031 3.04863 2.22901 2.96028C2.14771 2.87175 2.15115 2.7318 2.23645 2.64776L4.83282 0.0807208C4.87252 0.031272 4.93263 0 5 0C5.06908 0 5.13053 0.0332265 5.17023 0.0848253L7.68435 2.6505C7.76832 2.73591 7.76927 2.87585 7.68664 2.96283C7.66707 2.98345 7.64369 2.99989 7.61787 3.01119C7.59204 3.02249 7.56429 3.02844 7.53621 3.02867C7.50812 3.02891 7.48027 3.02343 7.45427 3.01257C7.42827 3.0017 7.40464 2.98566 7.38473 2.96537L5.21603 0.752287V8.00192C5.21603 8.12407 5.11927 8.22316 5 8.22316C4.88053 8.22316 4.78378 8.12407 4.78378 8.00192V0.740951L2.53111 2.9681ZM9.56775 7.78985C9.56775 7.6677 9.6645 7.56841 9.78378 7.56841C9.90324 7.56841 10 7.6677 10 7.78985V9.77875C10 9.90091 9.90324 10 9.78378 10H0.216221C0.0967557 10 0 9.90091 0 9.77875V7.78985C0 7.6677 0.0967557 7.56841 0.216221 7.56841C0.335496 7.56841 0.432252 7.6677 0.432252 7.78985V9.55731H9.56775V7.78985V7.78985Z" fill="white"/>
</g>
<defs>
<clipPath id="clip0_1279_360">
<rect width="10" height="10" fill="white"/>
</clipPath>
</defs>
</svg>
