<svg width="46" height="24" viewBox="0 0 46 24" fill="none" xmlns="http://www.w3.org/2000/svg">
<g clip-path="url(#clip0_787_2)">
<path fill-rule="evenodd" clip-rule="evenodd" d="M35.0466 15.9711L35.7653 15.9522L36.3643 15.9371C35.6642 13.7704 35.9001 11.7811 37.5771 10.09C37.8617 11.0186 38.5018 11.7849 39.5874 12.3511C40.1077 12.7399 40.6094 13.2118 41.096 13.7516C41.1821 13.3929 40.8564 12.9588 40.4559 12.5097C40.8265 12.6946 41.1634 12.9513 41.4067 13.4458C41.6875 14.0196 41.6838 14.5065 41.5902 15.1256C41.5452 15.4162 41.4779 15.6842 41.3768 15.9334H42.3688C43.417 13.6685 42.7507 10.309 40.6056 8.88587C39.9468 8.45177 39.4751 8.46687 38.7039 8.46687C37.8205 8.46687 37.3675 8.49329 36.6113 8.99911C35.4958 9.74274 34.8107 11.0299 34.5225 12.8192C34.4663 13.7138 34.4251 15.2539 35.0466 15.9711ZM0 24.0001C0.0861003 21.554 3.78467 21.4559 6.05322 20.029L7.57308 24.0001H0ZM10.6465 22.6562H10.946C11.2155 22.6562 11.4364 22.4335 11.4364 22.1617V21.3615C11.4364 21.0897 11.2155 20.867 10.946 20.867H9.17155C8.90202 20.867 8.68115 21.0897 8.68115 21.3615V22.1617C8.68115 22.4335 8.90202 22.6562 9.17155 22.6562H9.47477L9.21273 24.0001H10.901L10.6465 22.6562ZM7.54313 18.3039C7.59928 17.8396 6.2404 16.3108 5.98958 15.4653C5.45801 14.6122 5.26709 13.7251 5.84733 12.823C6.07943 12.4644 5.9821 11.4942 5.9821 10.9997C5.9821 6.09254 14.5098 6.08876 14.5098 10.9997C14.5098 11.6188 14.3675 12.4266 14.7007 12.9173C15.2585 13.7327 14.9702 14.7103 14.4985 15.4691C14.1991 16.3599 12.7728 17.8019 12.8701 18.3077C12.9562 20.8217 7.52441 20.7387 7.54313 18.3039ZM21.57 17.3414L23.7038 23.6641L24.7782 19.912L24.2503 19.3344C24.0107 18.9834 23.9621 18.6814 24.0931 18.4172C24.3776 17.851 24.9653 17.9529 25.5156 17.9529C26.0921 17.9529 26.8071 17.8434 26.9868 18.5719C27.0467 18.8173 26.9718 19.0702 26.8034 19.3344L26.2756 19.912L27.3499 23.6641L29.2816 17.3414C31.7935 19.6251 36.8584 18.2888 37.4723 24.0001H12.7054C13.3493 17.9831 19.0356 19.644 21.57 17.3414ZM19.8293 8.96892C19.8405 9.32374 20.0239 9.79182 20.387 10.3316L20.3945 10.3392L21.5887 12.2492C22.0679 13.0155 22.562 13.7893 23.1834 14.3593C23.7712 14.9029 24.4899 15.2728 25.4333 15.2728C26.459 15.2766 27.2039 14.8915 27.8141 14.3178C28.4505 13.7176 28.9559 12.8909 29.4538 12.0642L30.7939 9.84089C31.0672 9.21428 31.1496 8.83302 31.0597 8.64806C31.0111 8.54237 30.8239 8.50462 30.5244 8.51972C30.3185 8.58011 30.0752 8.57634 29.7907 8.49707L30.3335 6.3983C26.1296 6.83617 23.7637 2.86888 20.7689 5.88493L21.1657 8.36873C20.679 8.47065 19.7993 8.15357 19.8293 8.96892ZM31.1458 7.80251C31.4266 7.88933 31.6325 8.05165 31.756 8.30456C31.9582 8.71223 31.8758 9.3162 31.4977 10.1844C31.4902 10.1995 31.4827 10.2146 31.4753 10.2297L30.1164 12.4832C29.5885 13.3552 29.057 14.2309 28.342 14.9066C27.6007 15.6087 26.6799 16.0806 25.4258 16.073C24.2541 16.0693 23.3706 15.6201 22.6481 14.9519C21.9518 14.3102 21.424 13.4873 20.9186 12.6795L19.7282 10.7695C19.2865 10.1051 19.0581 9.49738 19.0431 8.99534C19.0356 8.75375 19.0768 8.53859 19.1667 8.3423C19.2603 8.14224 19.4025 7.9686 19.5972 7.83648C19.6908 7.77609 19.7993 7.71947 19.9116 7.67794C19.8368 6.64743 19.8105 5.37156 19.863 4.29952C19.8892 4.03906 19.9378 3.7786 20.009 3.51814C20.3122 2.41969 21.0796 1.54016 22.023 0.928652C22.3561 0.717264 22.7192 0.536075 23.1086 0.396409C25.3996 -0.437816 28.4318 0.0151566 30.0565 1.7893C30.7191 2.51028 31.1346 3.46907 31.2244 4.7374L31.1458 7.80251ZM37.7793 20.0894L38.3146 18.2096L38.0526 17.9189C37.9328 17.7453 37.9103 17.5905 37.974 17.4622C38.1162 17.179 38.4119 17.2319 38.6852 17.2319C38.9735 17.2319 39.3291 17.1753 39.4189 17.5414C39.4489 17.6622 39.4115 17.7906 39.3291 17.9227L39.0671 18.2133L39.6024 20.0932L38.689 20.8217L37.7793 20.0894ZM42.5822 19.4364C42.1742 18.6135 41.6613 17.9151 41.0586 17.2621C42.1891 17.7037 43.3459 18.1378 44.1994 18.6814C44.7422 19.0249 45.0267 19.2854 45.2438 19.7006C45.7118 20.5877 45.7642 21.3804 45.8315 22.3429L45.9963 24.0038H39.389C39.2093 23.2376 39.112 22.5958 38.7376 21.7465C39.8757 20.6065 41.096 19.6855 42.5822 19.4364ZM34.4775 18.0019C35.1102 17.7226 35.7616 17.481 36.3306 17.2621C36.0049 17.6169 35.7054 17.9831 35.4359 18.3719C35.1327 18.2435 34.8107 18.119 34.4775 18.0019Z" fill="#AB854F"/>
</g>
<defs>
<clipPath id="clip0_787_2">
<rect width="46" height="24" fill="white"/>
</clipPath>
</defs>
</svg>
