<svg width="123" height="69" viewBox="0 0 123 69" fill="none" xmlns="http://www.w3.org/2000/svg">
<g clip-path="url(#clip0_1445_2)">
<path fill-rule="evenodd" clip-rule="evenodd" d="M61.4398 13.81C66.1386 13.7932 70.6978 15.4061 74.3407 18.374C77.9836 21.3419 80.4847 25.4811 81.4179 30.0864C82.351 34.6916 81.6585 39.4779 79.4584 43.6298C77.2582 47.7817 73.6865 51.0422 69.3518 52.8559C65.0171 54.6696 60.1876 54.9242 55.6863 53.5763C51.1849 52.2284 47.2902 49.3614 44.6657 45.4638C42.0413 41.5663 40.8494 36.8793 41.2932 32.2014C41.7371 27.5236 43.7891 23.1444 47.0998 19.81C48.9767 17.9142 51.2098 16.4081 53.6708 15.3784C56.1318 14.3487 58.7721 13.8157 61.4398 13.81V13.81ZM1.0498 31.31C4.23042 27.4458 7.67894 23.8102 11.3698 20.43C25.7398 7.34998 42.0798 0.359981 58.9998 -1.94302e-05C75.9198 -0.360019 93.0898 5.91998 109.35 19.32C113.81 23.017 118 27.0271 121.89 31.32C122.494 32.0006 122.848 32.867 122.894 33.776C122.939 34.6851 122.673 35.5825 122.14 36.32C117.813 42.4879 112.635 48.0127 106.76 52.73C94.4878 62.6472 79.2078 68.0955 63.4298 68.18C47.538 68.1385 32.0589 63.1164 19.1698 53.82C12.2747 48.9224 6.10981 43.0707 0.859798 36.44C0.273167 35.7033 -0.0302 34.7809 0.00465458 33.8398C0.0395092 32.8987 0.41028 32.0012 1.0498 31.31V31.31ZM16.6798 26.31C14.0122 28.7338 11.4785 31.3009 9.0898 34C13.3967 39.0391 18.3069 43.5294 23.7098 47.37C35.265 55.7188 49.1442 60.2402 63.3998 60.3C77.3884 60.2139 90.9324 55.376 101.81 46.58C106.294 42.9821 110.324 38.8517 113.81 34.28C110.82 31.1428 107.648 28.1844 104.31 25.42C89.5598 13.26 74.0798 7.57998 59.1098 7.88998C44.1398 8.19998 29.6298 14.48 16.6798 26.27V26.31ZM56.3698 18.52C57.9263 18.52 59.4479 18.9815 60.7421 19.8463C62.0363 20.7111 63.0451 21.9402 63.6407 23.3783C64.2364 24.8163 64.3922 26.3987 64.0886 27.9253C63.7849 29.452 63.0354 30.8543 61.9347 31.9549C60.8341 33.0556 59.4318 33.8051 57.9052 34.1088C56.3785 34.4124 54.7961 34.2566 53.3581 33.6609C51.92 33.0652 50.6909 32.0565 49.8261 30.7623C48.9614 29.4681 48.4998 27.9465 48.4998 26.39C48.4985 25.3561 48.7011 24.3321 49.0962 23.3767C49.4912 22.4213 50.0709 21.5532 50.8019 20.8221C51.533 20.0911 52.4011 19.5114 53.3565 19.1164C54.3119 18.7213 55.3359 18.5187 56.3698 18.52V18.52Z" fill="#C69958"/>
</g>
<defs>
<clipPath id="clip0_1445_2">
<rect width="122.88" height="68.18" fill="white"/>
</clipPath>
</defs>
</svg>
