<svg width="16" height="17" viewBox="0 0 16 17" fill="none" xmlns="http://www.w3.org/2000/svg">
<g clip-path="url(#clip0_1133_432)">
<path fill-rule="evenodd" clip-rule="evenodd" d="M14.0697 2.87899L14.0711 2.88175C14.6041 2.88314 15.0853 3.09066 15.4339 3.42546C15.7796 3.75887 15.9957 4.21956 15.9957 4.72868H15.9986V4.73145V15.1462V15.1475H15.9957C15.9942 15.6567 15.7782 16.1201 15.4296 16.4563C15.0824 16.7883 14.6027 16.9958 14.0726 16.9958V16.9986H14.0697H5.54317H5.54173V16.9958C5.01017 16.9945 4.5276 16.7883 4.17899 16.4521C3.83326 16.1187 3.61718 15.658 3.61574 15.1489C3.61574 11.5575 3.61574 8.32292 3.61574 4.73145V4.73006H3.61862C3.62006 4.21956 3.83758 3.7561 4.18619 3.42131C4.53336 3.08927 5.01161 2.88175 5.54317 2.88037V2.8776H5.54605C8.38678 2.87899 11.229 2.87899 14.0697 2.87899ZM0.00288107 10.4285L0 1.85246V1.85107H0.00288107C0.0043216 1.34058 0.221842 0.877116 0.569011 0.542318C0.916179 0.210286 1.39588 0.00276693 1.92599 0.00138346V0H1.92887H10.4554C11.5632 0 11.7375 1.37793 10.4568 1.4056H1.93031H1.92743V1.40283C1.80067 1.40283 1.68542 1.45402 1.60043 1.53703C1.51544 1.61727 1.46214 1.73071 1.46214 1.85107H1.46502V1.85246V2.29102C1.46502 5.00399 1.46502 7.71558 1.46502 10.4272C1.46502 11.5699 0.00288107 11.6335 0.00288107 10.4285ZM14.5364 15.1475V4.73145V4.72868H14.5393C14.5393 4.60832 14.486 4.49626 14.3996 4.41463C14.3146 4.33439 14.1979 4.28182 14.0711 4.28182V4.28459H14.0697H5.54317H5.54029V4.28182C5.41352 4.28182 5.29828 4.33439 5.21329 4.41602C5.1283 4.49626 5.075 4.6097 5.075 4.73006H5.07788V4.73145V15.1462V15.1489H5.075C5.075 15.2707 5.12974 15.3813 5.21473 15.463C5.29972 15.5446 5.4164 15.5958 5.54173 15.5958V15.593H5.54317H14.0697H14.0726V15.5958C14.1979 15.5958 14.3146 15.5432 14.3996 15.4616C14.4846 15.3813 14.5379 15.2679 14.5379 15.1475H14.5364Z" fill="white"/>
</g>
<defs>
<clipPath id="clip0_1133_432">
<rect width="16" height="17" fill="white"/>
</clipPath>
</defs>
</svg>
