<svg width="79" height="64" viewBox="0 0 79 64" fill="none" xmlns="http://www.w3.org/2000/svg">
<path d="M2.71305 43.1363H76.2034V40.1457C76.2034 39.4221 76.0619 38.7496 75.8112 38.1477C75.5412 37.5073 75.1426 36.9374 74.6475 36.4443C74.3454 36.1433 74.0046 35.8679 73.6382 35.6246C73.2653 35.3748 72.8667 35.1571 72.4488 34.9714C71.3237 34.728 70.2051 34.4975 69.0929 34.2798C67.9742 34.062 66.8491 33.8571 65.7176 33.665C65.6662 33.6586 65.6276 33.6522 65.5762 33.6394C65.004 33.5433 64.4575 33.4537 63.9368 33.3704C63.416 33.2872 62.8631 33.2039 62.2845 33.1143H62.2717C58.3371 32.6148 54.4154 32.2305 50.5001 31.9744C46.5784 31.7182 42.6759 31.5902 38.7992 31.5837C36.4976 31.5837 34.2025 31.6222 31.9073 31.7118C29.625 31.8015 27.3298 31.9296 25.0347 32.1089H25.0218C22.8745 32.3074 20.7336 32.5571 18.5863 32.8453C16.4455 33.1335 14.2982 33.4729 12.138 33.8507L11.9001 33.9083C11.8551 33.9212 11.8101 33.9276 11.7716 33.9276C11.733 33.934 11.6944 33.934 11.6558 33.934C10.6465 34.1133 9.61141 34.3118 8.54419 34.5231C7.50912 34.728 6.47404 34.9458 5.44539 35.1699C5.18823 35.3108 4.94393 35.4709 4.71248 35.6374C4.48104 35.8103 4.25602 35.996 4.05672 36.1945C3.62598 36.6236 3.28524 37.1167 3.05379 37.6674C2.83521 38.1861 2.71305 38.7625 2.71305 39.39V43.1363V43.1363ZM9.12923 0H68.9128C69.6908 0 70.4365 0.153692 71.118 0.435461C71.8252 0.730038 72.4617 1.1591 72.9953 1.68421C73.5289 2.21573 73.9596 2.84971 74.2489 3.55413C74.5318 4.23294 74.6861 4.97578 74.6861 5.75065V33.0887C75.014 33.2808 75.3355 33.4921 75.6312 33.7226C75.9655 33.9788 76.2805 34.2477 76.5698 34.5359C77.3156 35.2788 77.9199 36.1433 78.325 37.1167C78.7107 38.0324 78.9229 39.0506 78.9229 40.1521V44.052C78.9421 44.1161 78.9614 44.1801 78.9743 44.2441V44.257C78.9871 44.3402 78.9936 44.4171 78.9936 44.4939C78.9936 44.5771 78.9871 44.6604 78.9679 44.7436C78.955 44.8077 78.9357 44.8717 78.9164 44.9358V62.6488C78.9164 63.0202 78.7621 63.3596 78.5178 63.603C78.2735 63.8463 77.9328 64 77.5599 64H74.7633C74.4482 64 74.1589 63.8911 73.9275 63.7118C73.696 63.5325 73.5225 63.2764 73.4517 62.9818C72.9374 61.5089 72.4167 60.3434 71.8573 59.4341C71.3044 58.5375 70.713 57.8971 70.0315 57.4425C69.3436 56.9878 68.5207 56.6996 67.5242 56.5267C66.5084 56.3474 65.3254 56.2898 63.9175 56.2962L12.6395 56.3602H12.6138C11.6044 56.341 10.7751 56.4691 10.0807 56.738C9.39282 57.007 8.8335 57.4104 8.37061 57.9292C7.84985 58.5055 7.41268 59.2419 7.01408 60.1001C6.60905 60.9774 6.2426 61.9764 5.87614 63.0714C5.78613 63.3532 5.60612 63.5773 5.3811 63.7374C5.16895 63.8911 4.91178 63.9808 4.64819 63.9936C4.62891 64 4.60962 64 4.59033 64H1.35653C0.983643 64 0.642904 63.8463 0.3986 63.603C0.154297 63.3596 0 63.0202 0 62.6488V39.3964C0 38.391 0.192871 37.4689 0.540039 36.6364C0.912923 35.7526 1.45939 34.965 2.14087 34.2862C2.33374 34.0941 2.5459 33.9019 2.77091 33.7226C2.96379 33.5689 3.15666 33.4217 3.36239 33.2872V5.69302C3.36239 4.91815 3.51668 4.18171 3.79956 3.51571C4.0953 2.81769 4.52604 2.19011 5.05965 1.665C5.59326 1.13988 6.22974 0.723634 6.9305 0.435461C7.61198 0.153692 8.35132 0 9.12923 0ZM68.9128 2.70242H9.12923C8.71134 2.70242 8.31274 2.78567 7.94629 2.93296C7.56698 3.08665 7.23267 3.31079 6.94979 3.58615C6.67334 3.85511 6.44832 4.18811 6.29403 4.54673C6.15259 4.89894 6.07544 5.28317 6.07544 5.69302V31.9872C6.26831 31.9232 6.46118 31.8719 6.66048 31.8207C6.9755 31.7374 7.29053 31.667 7.60555 31.6158C8.04273 31.5389 8.51847 31.4557 9.0328 31.366C9.41854 31.302 9.83 31.2315 10.2543 31.1675V24.4563C10.2543 23.4445 10.46 22.4775 10.8265 21.5938C11.2122 20.6716 11.7716 19.8455 12.4659 19.1539C13.1602 18.4623 13.9896 17.9051 14.9154 17.5209C15.8026 17.1559 16.7734 16.951 17.7891 16.951H30.5315C31.5473 16.951 32.5181 17.1559 33.4053 17.5209C34.3311 17.9051 35.1604 18.4623 35.8547 19.1539C36.5491 19.8455 37.1084 20.6716 37.4941 21.5938C37.8606 22.4775 38.0663 23.4445 38.0663 24.4563V28.7404C38.5164 28.734 38.9664 28.734 39.4229 28.734V24.4563C39.4229 23.4445 39.6286 22.4775 39.995 21.5938C40.3808 20.6716 40.9401 19.8455 41.6344 19.1539C42.3288 18.4623 43.1581 17.9051 44.0839 17.5209C44.9711 17.1559 45.9419 16.951 46.9577 16.951H59.7C60.7158 16.951 61.6866 17.1559 62.5738 17.5209C63.4996 17.9051 64.3289 18.4623 65.0233 19.1539C65.7176 19.8455 66.2769 20.6716 66.6627 21.5938C67.0291 22.4775 67.2349 23.4445 67.2349 24.4563V31.0778C67.717 31.1483 68.2314 31.2315 68.7843 31.3212C69.395 31.4172 69.9801 31.5133 70.5458 31.6094C70.8351 31.6606 71.1309 31.7182 71.4266 31.7887C71.613 31.8335 71.7931 31.8783 71.9666 31.9296V5.75065C71.9666 5.3408 71.8831 4.95017 71.7352 4.59155C71.5809 4.22013 71.3495 3.88713 71.0666 3.59896C70.7837 3.31719 70.443 3.08665 70.0765 2.93296C69.7165 2.78567 69.3243 2.70242 68.9128 2.70242ZM27.7799 29.1759C29.0721 29.0798 30.3708 28.9966 31.6887 28.9326C32.9038 28.8685 34.1318 28.8237 35.3597 28.7917V24.4563C35.3597 23.8095 35.2311 23.1883 34.9932 22.6248C34.7489 22.0356 34.3889 21.5105 33.9389 21.0622C33.4953 20.6204 32.9617 20.2618 32.3702 20.012C31.8044 19.7751 31.1808 19.647 30.5315 19.647H17.7891C17.1398 19.647 16.5162 19.7751 15.9504 20.012C15.359 20.2554 14.8318 20.614 14.3818 21.0622C13.9382 21.5041 13.5781 22.0356 13.3274 22.6248C13.0895 23.1883 12.9609 23.8095 12.9609 24.4563V30.7384C14.0024 30.5847 15.0568 30.4439 16.1369 30.303C17.3005 30.1557 18.4578 30.0212 19.6021 29.8931C20.0457 29.8419 20.5215 29.7843 21.0165 29.733C21.4794 29.6818 21.9616 29.637 22.4759 29.5858C23.3503 29.5025 24.2182 29.4257 25.0732 29.3552C25.954 29.2976 26.8541 29.2335 27.7799 29.1759ZM42.1359 28.7533C42.9138 28.7661 43.6917 28.7853 44.4696 28.8109C45.3311 28.8365 46.1926 28.8749 47.0477 28.9133H47.0541C48.4621 28.9646 49.8379 29.0286 51.1751 29.1055C52.5124 29.1823 53.8175 29.2784 55.0647 29.3872C56.8777 29.5473 58.6328 29.7394 60.2979 29.9636C61.7895 30.1685 63.2039 30.399 64.5282 30.6552V24.4563C64.5282 23.8095 64.3997 23.1883 64.1618 22.6248C63.9175 22.0356 63.5575 21.5105 63.1074 21.0622C62.6638 20.6204 62.1302 20.2618 61.5387 20.012C60.973 19.7751 60.3494 19.647 59.7 19.647H46.9641C46.3148 19.647 45.6912 19.7751 45.1254 20.012C44.5339 20.2554 44.0068 20.614 43.5567 21.0622C43.1131 21.5041 42.7531 22.0356 42.5024 22.6248C42.2645 23.1883 42.1359 23.8095 42.1359 24.4563V28.7533ZM76.2098 45.8451H2.71305V61.2976H3.63241C3.99243 60.2858 4.36532 59.3444 4.7832 58.5055C5.23324 57.609 5.74113 56.8149 6.35832 56.1297C7.09123 55.31 7.95272 54.676 8.98779 54.2533C10.0229 53.8371 11.2315 53.6258 12.6845 53.6578L63.9175 53.5938C65.5697 53.5938 66.9841 53.6706 68.2185 53.9075C69.4722 54.1445 70.5523 54.5479 71.523 55.1883C72.4231 55.7839 73.1946 56.5715 73.8889 57.6026C74.5511 58.5887 75.1426 59.7991 75.7083 61.2912H76.1969V45.8451H76.2098Z" fill="white"/>
</svg>
