<svg width="105" height="82" viewBox="0 0 105 82" fill="none" xmlns="http://www.w3.org/2000/svg">
<g clip-path="url(#clip0_774_17)">
<path fill-rule="evenodd" clip-rule="evenodd" d="M4.23281 9.03852H7.61045C8.2626 6.29537 9.81299 4.06707 11.954 2.49985C14.4539 0.671087 17.7413 -0.22888 21.2974 0.0491419L73.9286 0.0553202C78.91 0.112984 82.628 1.16947 85.173 3.66343C87.7181 6.15739 88.9629 9.96114 88.9772 15.4927L88.9834 79.9259C88.9834 80.4984 88.7537 81.0174 88.3784 81.3922C88.1871 81.5854 87.9596 81.7385 87.7089 81.8428C87.4583 81.9471 87.1896 82.0004 86.9183 81.9997H29.7589C29.2749 81.9997 28.8319 81.8288 28.4813 81.5487L28.3008 81.3922C27.9275 81.0153 27.6937 80.4902 27.6937 79.9259L27.6999 15.4598C27.7819 11.8846 27.0539 8.882 25.8009 6.72579C24.6196 4.68902 22.9749 3.45337 21.1518 3.29891C18.3217 3.0559 15.7521 3.72727 13.851 5.11738C12.5282 6.08531 11.5192 7.41569 10.9696 9.03852H22.4294C23.1164 11.2194 23.4773 13.7649 23.4117 16.681V17.5419H10.3934L10.4016 44.7407H19.1215C20.0156 44.7407 20.7416 45.4697 20.7416 46.3676C20.7416 47.2634 20.0156 47.9925 19.1215 47.9925H8.78145C7.88936 47.9925 7.16338 47.2634 7.16338 46.3676L7.16748 17.5419H4.23281C1.90928 17.5419 0 15.6287 0 13.2912V13.2892C0 10.9517 1.90312 9.03852 4.23281 9.03852ZM30.9299 66.9968C32.7247 66.1827 34.6719 65.7628 36.6413 65.7653C39.1453 65.7653 41.6514 66.4449 43.8539 67.8C46.0249 66.4633 48.522 65.7562 51.0686 65.757C53.5685 65.757 56.0745 66.4387 58.2832 67.8C60.4857 66.4449 62.9918 65.7653 65.4979 65.7653C68.0019 65.7632 70.5079 66.4428 72.7125 67.7979C74.9212 66.4408 77.4334 65.7612 79.9415 65.7653C81.9267 65.7653 83.9118 66.1937 85.7452 67.0483V57.9333C84.002 56.7656 81.9738 56.1807 79.9436 56.1807C77.7492 56.1807 75.559 56.8624 73.7276 58.2278C73.1145 58.6829 72.2921 58.6562 71.7138 58.2134C69.8865 56.8583 67.7024 56.1807 65.5143 56.1807V56.1725C63.3261 56.1725 61.1358 56.8562 59.2963 58.2257C59.0046 58.4423 58.6508 58.558 58.288 58.5554C57.9252 58.5528 57.5731 58.432 57.2845 58.2113C55.447 56.8501 53.2588 56.1704 51.0727 56.1725C48.8804 56.1766 46.6881 56.8665 44.8465 58.2422C44.2333 58.6994 43.4068 58.6706 42.8285 58.2237C41.0095 56.8706 38.8254 56.191 36.6372 56.191V56.1849C34.6459 56.1849 32.6525 56.7512 30.9299 57.8839V66.9968V66.9968ZM85.7452 70.8932C83.9959 69.7153 81.9677 69.1242 79.9415 69.1222C77.7533 69.1201 75.5651 69.7997 73.7276 71.161C73.439 71.3819 73.0867 71.5025 72.7238 71.5048C72.3609 71.507 72.0071 71.3907 71.7158 71.1733C69.8763 69.8059 67.686 69.1222 65.4979 69.1222C63.3158 69.1222 61.1317 69.8038 59.2983 71.163C59.0093 71.3838 58.6569 71.5045 58.2938 71.5071C57.9307 71.5097 57.5766 71.394 57.2845 71.1774C55.4531 69.8121 53.2629 69.1304 51.0686 69.1304C48.8824 69.1304 46.6983 69.8079 44.8711 71.163C44.5821 71.3838 44.2296 71.5045 43.8666 71.5071C43.5035 71.5097 43.1493 71.394 42.8572 71.1774C41.0197 69.8079 38.8295 69.1222 36.6413 69.1222C34.65 69.1222 32.6587 69.6885 30.9319 70.8191V78.7479H85.7452V70.8932V70.8932ZM30.9299 54.0595C32.7346 53.2378 34.6869 52.8259 36.6372 52.8259V52.8198C39.1412 52.8198 41.6473 53.5014 43.8498 54.8627C46.0523 53.5014 48.5625 52.8177 51.0727 52.8156C53.5787 52.8136 56.0909 53.4911 58.2996 54.8504C60.5042 53.4932 63.0103 52.8136 65.5143 52.8156V52.8074C68.0162 52.8074 70.5223 53.4891 72.7289 54.8504C74.8999 53.5137 77.397 52.8066 79.9436 52.8074C81.9246 52.8074 83.9098 53.2358 85.7452 54.0904V15.4927C85.7391 10.8982 84.8142 7.84199 82.9213 5.98851C81.0284 4.13298 78.0384 3.34422 73.9163 3.29479L27.3472 3.30097C27.8004 3.83848 28.2187 4.43365 28.5981 5.08649C30.128 7.71843 31.0181 11.2998 30.9258 15.4927L30.9299 54.0595V54.0595ZM92.7753 9.03852H100.767C103.095 9.03852 105 10.96 105 13.2892V13.2912C105 15.6204 103.089 17.5419 100.767 17.5419H93.7269V16.681C93.7187 13.6846 93.4028 11.1556 92.7753 9.03852V9.03852Z" fill="white"/>
</g>
<defs>
<clipPath id="clip0_774_17">
<rect width="105" height="82" fill="white"/>
</clipPath>
</defs>
</svg>
