<svg width="90" height="67" viewBox="0 0 90 67" fill="none" xmlns="http://www.w3.org/2000/svg">
<g clip-path="url(#clip0_774_12)">
<path d="M69.6427 15.7001L69.6005 15.6438C69.3823 15.3273 68.9461 15.257 68.6364 15.475L63.2885 19.2172C62.9719 19.4352 62.9015 19.8714 63.1196 20.1809L63.1618 20.2371C63.38 20.5537 63.8163 20.624 64.1259 20.406L69.4738 16.6638C69.7834 16.4457 69.8608 16.0096 69.6427 15.7001ZM83.7443 36.8025L80.8452 50.3221C80.1274 53.6844 78.502 56.2518 76.1939 58.0104C74.5966 59.2273 72.6896 60.0362 70.5434 60.4371L72.4433 64.5029C72.8514 65.3821 72.4715 66.4302 71.5919 66.8382C70.7123 67.2462 69.6638 66.8663 69.2557 65.9871L66.7928 60.7255H24.699L22.2361 65.9871C21.828 66.8663 20.7795 67.2462 19.8999 66.8382C19.0203 66.4302 18.6403 65.3821 19.0485 64.5029L20.8428 60.6622C18.0985 60.4231 15.8468 59.5438 14.0313 58.0385C11.9132 56.28 10.4636 53.7266 9.59812 50.3994L6.03049 36.8025H3.24394C2.35731 36.8025 1.54808 36.4367 0.956998 35.8529V35.8458L0.949961 35.8529C0.365911 35.262 0 34.4531 0 33.5598V30.6125C0 29.7191 0.365911 28.9102 0.949961 28.3193C0.992181 28.2771 1.04144 28.2279 1.0907 28.1927C1.66067 27.6792 2.4136 27.3697 3.2369 27.3697H3.66615C3.78577 26.0895 4.27834 24.8796 5.03831 23.8245C5.81235 22.7413 6.88194 21.8198 8.0993 21.1867C9.32369 20.5466 10.7099 20.1879 12.1102 20.2301C13.3417 20.2723 14.5661 20.6099 15.699 21.3274C16.1916 20.6099 16.8038 19.9698 17.5074 19.4423C18.8866 18.4083 20.6106 17.7893 22.4754 17.7893C24.0235 17.7893 25.473 18.2113 26.7045 18.9429C27.6685 19.5126 28.4988 20.2793 29.1462 21.1797C31.1095 21.3345 32.8827 22.1715 34.2127 23.4517C35.3034 24.5068 36.0915 25.8574 36.4363 27.3627H83.7584V9.91808C82.731 4.87461 79.8178 3.50296 75.9265 4.05865C77.6787 7.11146 77.4535 10.2135 74.9695 13.3789C75.2862 13.8924 75.258 14.4551 74.9132 15.053L74.1392 15.9463C73.8296 16.2629 73.4425 16.291 72.9429 15.89L61.0508 3.8828C60.7271 3.49592 60.7905 3.15829 61.1704 2.86285C62.0149 1.82884 62.1204 1.65298 63.6192 1.90621C66.9547 -0.260298 70.1282 -0.647175 73.1188 1.06915C80.6271 -2.01179 87.0164 1.85697 87.8819 9.73519V27.5737C88.3253 27.7355 88.7193 27.9958 89.043 28.3193C89.6271 28.9032 89.993 29.7191 89.993 30.6125V33.5598C89.993 34.4531 89.6271 35.262 89.043 35.8529C88.459 36.4367 87.6427 36.8025 86.7561 36.8025H83.7443ZM62.9085 9.91808L62.8663 9.8618C62.6482 9.54527 62.2119 9.47493 61.9023 9.69298L56.5543 13.4351C56.2377 13.6532 56.1673 14.0893 56.3855 14.3988L56.4277 14.4551C56.6458 14.7716 57.0821 14.842 57.3917 14.6239L62.7396 10.8818C63.0563 10.6637 63.1267 10.2276 62.9085 9.91808ZM59.8335 6.82306L59.7912 6.76679C59.5731 6.45025 59.1368 6.37991 58.8272 6.59797L53.4793 10.3401C53.1626 10.5582 53.0923 10.9943 53.3104 11.3038L53.3526 11.3601C53.5708 11.6766 54.007 11.7469 54.3167 11.5289L59.6646 7.78674C59.9742 7.56868 60.0516 7.13256 59.8335 6.82306ZM65.9765 12.9076L65.9343 12.8513C65.7162 12.5348 65.2799 12.4644 64.9703 12.6825L59.6224 16.4246C59.3057 16.6427 59.2353 17.0788 59.4535 17.3883L59.4957 17.4446C59.7138 17.7611 60.1501 17.8315 60.4597 17.6134L65.8147 13.8713C66.1173 13.6532 66.1947 13.2241 65.9765 12.9076ZM7.24081 27.3697H32.749C32.5238 26.8492 32.1931 26.385 31.785 25.9981C30.9476 25.1892 29.7866 24.6897 28.4988 24.6897C28.3018 24.6897 28.5129 24.6827 28.3792 24.6827L28.2596 24.6897C27.5981 24.7179 26.9437 24.3732 26.62 23.7472C26.24 23.0226 25.6489 22.4107 24.9242 21.9816C24.2205 21.5666 23.3831 21.3204 22.4894 21.3204C21.4058 21.3204 20.4136 21.6721 19.6325 22.2559C18.8514 22.8468 18.2674 23.6698 18.0141 24.6124C17.9296 24.9711 17.7256 25.3087 17.4159 25.562C16.663 26.1739 15.5512 26.0614 14.939 25.3087C14.0735 24.2466 13.0321 23.7823 12.0117 23.7472C11.2377 23.719 10.4496 23.93 9.73886 24.3029C9.02111 24.6827 8.3878 25.2314 7.91634 25.8785C7.58561 26.3427 7.34636 26.8492 7.24081 27.3697ZM5.98124 30.9009C5.69977 30.9712 5.4183 30.9642 5.1509 30.9009H3.53245V33.2643H86.4675V30.9009H5.98124ZM9.66849 36.8025L13.0039 49.5131C13.6794 52.1017 14.749 54.0501 16.283 55.3163C17.7819 56.5613 19.8014 57.1944 22.4261 57.1944H67.2854C70.0016 57.1944 72.3167 56.5262 74.0477 55.2108C75.6943 53.9587 76.8554 52.0806 77.3901 49.5905L80.1345 36.8025H9.66849V36.8025Z" fill="white"/>
</g>
<defs>
<clipPath id="clip0_774_12">
<rect width="90" height="67" fill="white"/>
</clipPath>
</defs>
</svg>
