<svg width="48" height="48" viewBox="0 0 48 48" fill="none" xmlns="http://www.w3.org/2000/svg">
<g clip-path="url(#clip0_1266_39)">
<path fill-rule="evenodd" clip-rule="evenodd" d="M15.4683 9.57271L46.0113 23.1532C46.1994 23.2165 46.364 23.3351 46.4836 23.4936C46.6031 23.6521 46.6719 23.843 46.681 24.0413C46.6901 24.2396 46.6391 24.436 46.5347 24.6048C46.4303 24.7736 46.2772 24.9068 46.0957 24.9872L15.4759 38.7249C15.3001 38.8042 15.1048 38.8301 14.9144 38.7993C14.7239 38.7686 14.5467 38.6826 14.4047 38.5521C14.2627 38.4215 14.1621 38.2521 14.1156 38.0649C14.069 37.8777 14.0784 37.6809 14.1426 37.4991L17.778 27.061L34.192 24.1488L17.8164 21.2367L14.1388 10.7986C14.0751 10.6171 14.066 10.421 14.1125 10.2344C14.159 10.0478 14.2591 9.87893 14.4005 9.74858C14.5419 9.61822 14.7183 9.5321 14.9081 9.50085C15.0978 9.4696 15.2926 9.49458 15.4683 9.57271V9.57271Z" fill="#E7E7E7"/>
</g>
<defs>
<clipPath id="clip0_1266_39">
<rect width="33.2511" height="33.3379" fill="white" transform="translate(23.5732 0.573486) rotate(45)"/>
</clipPath>
</defs>
</svg>
