<svg width="91" height="50" viewBox="0 0 91 50" fill="none" xmlns="http://www.w3.org/2000/svg">
<g clip-path="url(#clip0_774_15)">
<path fill-rule="evenodd" clip-rule="evenodd" d="M27.1193 11.5007C27.1678 11.5243 27.2209 11.537 27.2748 11.5379H42.4637V47.2681H41.7231C41.3584 47.2701 41.0092 47.4166 40.7513 47.6758C40.4934 47.935 40.3476 48.2861 40.3457 48.6527V48.6527C40.3476 49.0193 40.4934 49.3703 40.7513 49.6295C41.0092 49.8888 41.3584 50.0353 41.7231 50.0372H50.6099C50.9739 50.0353 51.3224 49.8885 51.5791 49.6291C51.8358 49.3696 51.9799 49.0186 51.9799 48.6527C51.9799 48.2868 51.8358 47.9357 51.5791 47.6763C51.3224 47.4168 50.9739 47.2701 50.6099 47.2681H49.8693V11.5379H63.7252C63.7814 11.5361 63.8367 11.5235 63.8881 11.5007H65.3692C66.2564 11.4987 67.1067 11.1436 67.734 10.513C68.3613 9.88247 68.7146 9.02782 68.7166 8.13607V8.13607C68.7146 7.24433 68.3613 6.38967 67.734 5.75912C67.1067 5.12856 66.2564 4.77344 65.3692 4.77148H25.6678C24.7806 4.77344 23.9304 5.12856 23.303 5.75912C22.6757 6.38967 22.3224 7.24433 22.3205 8.13607V8.13607C22.3224 9.02782 22.6757 9.88247 23.303 10.513C23.9304 11.1436 24.7806 11.4987 25.6678 11.5007H27.1193ZM1.28857 0H4.68774C5.01027 0.0277076 5.31227 0.170538 5.53912 0.402648C5.76596 0.634758 5.90266 0.940816 5.92448 1.26545C7.22509 9.3281 7.87396 17.4834 7.86475 25.6513H31.1035C31.5454 25.6513 31.9693 25.8278 32.2817 26.1419C32.5942 26.456 32.7698 26.882 32.7698 27.3262V30.7057H31.4368V48.0051C31.4349 48.1387 31.3812 48.2663 31.2872 48.3609C31.1931 48.4554 31.0662 48.5093 30.9332 48.5112H26.4898C26.4231 48.5122 26.3568 48.4999 26.2948 48.4749C26.2329 48.4499 26.1765 48.4127 26.1289 48.3656C26.0814 48.3185 26.0436 48.2624 26.0179 48.2005C25.9921 48.1386 25.9788 48.0722 25.9788 48.0051V40.4794H6.96867C6.69219 42.7721 6.34413 45.0672 5.92448 47.3649C5.90049 47.6925 5.76015 48.0006 5.52905 48.2329C5.29795 48.4652 4.99148 48.6062 4.66553 48.6303H1.28857C0.599854 48.6303 -0.192545 48.0274 0.0296228 47.3649C4.47298 31.7329 3.5695 16.3987 0.0296228 1.26545C-0.125895 0.58806 0.599854 0 1.28857 0ZM25.9714 38.1495V30.7057H7.81291C7.71664 33.8693 7.49447 34.9859 7.16121 38.1495H25.9714ZM89.7114 0H86.3123C85.9858 0.0225911 85.6785 0.163168 85.447 0.395767C85.2156 0.628367 85.0758 0.937277 85.0533 1.26545C83.7527 9.3281 83.1038 17.4834 83.113 25.6513H59.8965C59.4546 25.6513 59.0308 25.8278 58.7183 26.1419C58.4058 26.456 58.2302 26.882 58.2302 27.3262V30.7057H59.5632V48.0051C59.5652 48.1387 59.6188 48.2663 59.7129 48.3609C59.8069 48.4554 59.9339 48.5093 60.0668 48.5112H64.5102C64.5769 48.5122 64.6432 48.4999 64.7052 48.4749C64.7671 48.4499 64.8235 48.4127 64.8711 48.3656C64.9186 48.3185 64.9564 48.2624 64.9821 48.2005C65.0079 48.1386 65.0212 48.0722 65.0212 48.0051V40.4794H84.0239C84.3004 42.7721 84.6411 45.0672 85.0459 47.3649C85.0699 47.6925 85.2102 48.0006 85.4413 48.2329C85.6724 48.4652 85.9789 48.6062 86.3049 48.6303H89.704C90.3927 48.6303 91.1851 48.0274 90.963 47.3649C86.5196 31.7329 87.4231 16.3987 90.963 1.26545C91.1185 0.58806 90.3927 0 89.704 0L89.7114 0ZM65.0286 38.1495V30.7057H83.1871C83.2834 33.8693 83.5055 34.9859 83.8388 38.1495H65.0286Z" fill="white"/>
</g>
<defs>
<clipPath id="clip0_774_15">
<rect width="91" height="50" fill="white"/>
</clipPath>
</defs>
</svg>
