<svg width="57" height="57" viewBox="0 0 57 57" fill="none" xmlns="http://www.w3.org/2000/svg">
<path d="M50.7776 41.5178C50.8621 41.5178 50.9442 41.5267 51.0249 41.5424C51.5565 40.6156 52.0412 39.6429 52.4791 38.6265C52.4875 38.6061 52.4963 38.5866 52.5065 38.5672C53.1642 37.0155 53.6606 35.404 53.995 33.7341C54.2543 32.4385 54.4144 31.11 54.4751 29.749H46.639C46.4966 33.7262 45.3091 37.6487 43.0955 41.5178H50.7776ZM49.4115 44.0163H41.5192C39.1238 47.4865 35.8967 50.914 31.8531 54.2989C32.4872 54.22 33.1144 54.1189 33.7341 53.995C35.4254 53.6569 37.0573 53.1522 38.6275 52.481L38.6265 52.4791C40.2227 51.7926 41.7094 50.9892 43.0839 50.0674C44.4611 49.1434 45.7377 48.0937 46.9108 46.9154L46.9154 46.9108C47.8232 46.0067 48.655 45.0414 49.4115 44.0163ZM25.1464 54.2984C21.1033 50.914 17.8762 47.4865 15.4803 44.0163H7.58939C8.34597 45.0414 9.17722 46.0067 10.0846 46.9108L10.0892 46.9159V46.9154C11.2628 48.0937 12.5394 49.1434 13.9161 50.0674C15.2901 50.9892 16.7768 51.7926 18.3735 52.4791C18.3934 52.4879 18.4134 52.4967 18.4328 52.5065C19.9845 53.1647 21.596 53.6606 23.2664 53.995C23.8861 54.1189 24.5123 54.22 25.1464 54.2984ZM5.96167 41.5178H13.9041C11.6909 37.6487 10.503 33.7262 10.3615 29.749H2.52578C2.58608 31.11 2.74612 32.438 3.00542 33.7336C3.34358 35.4249 3.84874 37.0568 4.51949 38.627L4.52135 38.6265C4.95507 39.6341 5.43471 40.5985 5.96167 41.5178ZM2.52578 27.251H10.4102C10.7001 23.3545 11.9929 19.4316 14.31 15.4822H5.96167C5.43471 16.4015 4.95507 17.3659 4.52135 18.3739C4.51254 18.3939 4.50326 18.4138 4.49398 18.4328C3.83575 19.985 3.33987 21.5964 3.00542 23.2664C2.74612 24.562 2.58608 25.8905 2.52578 27.251ZM7.58939 12.9842H15.9103C18.2798 9.56966 21.4127 6.13516 25.3223 2.68071C24.6283 2.76189 23.9432 2.86997 23.2668 3.00542C21.5751 3.34358 19.9437 3.84874 18.3735 4.51949L18.3739 4.52089C16.7773 5.20788 15.2906 6.01084 13.9166 6.93302C12.5398 7.85705 11.2633 8.90679 10.0897 10.0846L10.0846 10.0892C9.17722 10.9937 8.34597 11.9586 7.58939 12.9842ZM31.6773 2.68025C35.5868 6.13469 38.7198 9.56919 41.0897 12.9837H49.4111C48.6545 11.9586 47.8228 10.9933 46.915 10.0892L46.9103 10.0846C45.7372 8.90632 44.4606 7.85705 43.0834 6.93302C41.709 6.01084 40.2222 5.20788 38.6261 4.52089C38.6061 4.51254 38.5862 4.50326 38.5672 4.49352C37.015 3.83575 35.4036 3.33941 33.7336 3.00542C33.0573 2.86997 32.3712 2.76189 31.6773 2.68025ZM51.0383 15.4822H42.6896C45.0071 19.4316 46.2999 23.3545 46.5898 27.251H54.4747C54.4139 25.89 54.2534 24.562 53.9946 23.2664C53.656 21.5751 53.1513 19.9432 52.4805 18.373L52.4786 18.3739C52.0449 17.3659 51.5657 16.4015 51.0383 15.4822ZM22.7788 0.555717C24.6306 0.185084 26.5381 0 28.5002 0C30.4624 0 32.3694 0.185084 34.2212 0.555717C36.046 0.921248 37.8199 1.46954 39.5431 2.20107C39.5668 2.20942 39.5895 2.21823 39.6118 2.22797C41.3295 2.96738 42.9503 3.84456 44.469 4.86462C45.9849 5.88142 47.3872 7.03414 48.6744 8.32602C49.9663 9.61326 51.119 11.016 52.1354 12.531C53.1545 14.0502 54.0326 15.6705 54.772 17.3891L54.7702 17.3896L54.772 17.3938C55.5175 19.137 56.075 20.9322 56.4443 22.7788C56.8149 24.6306 56.9995 26.5381 56.9995 28.5002C56.9995 30.4624 56.8149 32.3703 56.4443 34.2221C56.0792 36.046 55.53 37.8208 54.7989 39.5436C54.7906 39.5668 54.7818 39.5895 54.7716 39.6118C54.0321 41.3304 53.1545 42.9503 52.1349 44.4695C51.1186 45.9849 49.9659 47.3872 48.674 48.6744C47.3867 49.9663 45.984 51.1195 44.4685 52.1358C42.9503 53.1554 41.329 54.0335 39.6113 54.7725L39.6104 54.7706L39.6058 54.7725C37.8625 55.5175 36.0669 56.075 34.2207 56.4443C32.3689 56.8149 30.4615 57 28.4998 57C26.5381 57 24.6302 56.8149 22.7784 56.4443C20.954 56.0792 19.1797 55.5305 17.4559 54.7994C17.4332 54.7906 17.4105 54.7822 17.3877 54.772C15.6691 54.0331 14.0493 53.1554 12.5301 52.1354C11.0151 51.119 9.61233 49.9659 8.32509 48.674C7.03321 47.3867 5.88049 45.984 4.86415 44.469C3.84456 42.9503 2.96692 41.33 2.22751 39.6113L2.22936 39.6104L2.22751 39.6062C1.48253 37.863 0.924959 36.0678 0.555717 34.2212C0.185548 32.3698 0 30.4624 0 28.4998C0 26.5381 0.185548 24.6302 0.556181 22.7784C0.921248 20.954 1.47001 19.1797 2.20107 17.4564C2.20942 17.4337 2.21823 17.4105 2.22797 17.3882C2.96738 15.6696 3.84456 14.0493 4.86461 12.5301C5.88142 11.0151 7.03414 9.61233 8.32556 8.32509C9.6128 7.03321 11.0155 5.88049 12.5305 4.86369C14.0497 3.8441 15.67 2.96645 17.3882 2.22704L17.3887 2.2289L17.3928 2.22704C19.1365 1.483 20.9322 0.925423 22.7788 0.555717ZM29.7494 4.29916V12.9842H38.0184C35.8456 10.1193 33.0926 7.22479 29.7494 4.29916ZM29.7494 15.4822V27.251H44.0933C43.769 23.3861 42.3356 19.4636 39.7709 15.4822H29.7494V15.4822ZM29.7494 29.749V41.5178H40.1912C42.6627 37.6232 43.9898 33.6998 44.1485 29.749H29.7494ZM29.7494 44.0163V52.8075C33.2957 49.893 36.1982 46.9623 38.4452 44.0163H29.7494ZM27.251 52.8085V44.0163H18.5548C20.8014 46.9623 23.7038 49.8935 27.251 52.8085ZM27.251 41.5178V29.749H12.852C13.0102 33.7002 14.3369 37.6232 16.8093 41.5178H27.251ZM27.251 27.251V15.4822H17.2296C14.6648 19.4636 13.2315 23.3865 12.9067 27.251H27.251ZM27.251 12.9842V4.29823C23.9079 7.22386 21.1544 10.1193 18.9816 12.9842H27.251Z" fill="#C0C0C0"/>
</svg>
