<svg width="123" height="68" viewBox="0 0 123 68" fill="none" xmlns="http://www.w3.org/2000/svg">
<g clip-path="url(#clip0_1429_4)">
<path d="M79.93 51.37C79.4 50.86 79.61 50.17 80.41 49.83C81.21 49.49 82.28 49.63 82.82 50.13C86.6 53.73 84.78 56.65 83.03 59.45C81.71 61.57 80.44 63.6 82.78 65.64C83.35 66.14 83.18 66.83 82.41 67.19C81.64 67.55 80.55 67.45 79.98 66.95C76.51 63.92 78.12 61.33 79.81 58.63C81.22 56.36 82.7 54 79.93 51.37ZM14.57 28.11H88.22C89.18 28.11 89.96 28.89 89.96 29.85V42.11H114.09C115.55 42.11 116.88 41.51 117.84 40.55C118.8 39.59 119.4 38.26 119.4 36.8V8.8C119.4 7.34 118.8 6.01 117.84 5.05C116.88 4.09 115.55 3.49 114.09 3.49H8.8C7.34 3.49 6.01 4.09 5.05 5.05C4.08 6.01 3.48 7.34 3.48 8.8V36.8C3.48 38.26 4.08 39.59 5.04 40.55C6 41.51 7.33 42.11 8.79 42.11H12.82V29.85C12.83 28.89 13.61 28.11 14.57 28.11ZM86.48 31.59H16.31V41.68H86.48V31.59ZM15.21 13.64C14.25 13.64 13.47 12.86 13.47 11.9C13.47 10.94 14.25 10.16 15.21 10.16H108.95C109.91 10.16 110.69 10.94 110.69 11.9C110.69 12.86 109.91 13.64 108.95 13.64H15.21ZM98.58 31.99C99.94 31.99 101.04 33.09 101.04 34.45C101.04 35.81 99.94 36.91 98.58 36.91C97.22 36.91 96.12 35.81 96.12 34.45C96.12 33.09 97.23 31.99 98.58 31.99ZM108.85 31.99C110.21 31.99 111.31 33.09 111.31 34.45C111.31 35.81 110.21 36.91 108.85 36.91C107.49 36.91 106.39 35.81 106.39 34.45C106.39 33.09 107.49 31.99 108.85 31.99ZM8.8 0H114.09C116.51 0 118.71 0.99 120.3 2.58C121.89 4.17 122.88 6.37 122.88 8.79V36.8C122.88 39.22 121.89 41.42 120.3 43.01C118.71 44.6 116.51 45.59 114.09 45.59H8.8C6.38 45.59 4.18 44.6 2.59 43.01C0.99 41.42 0 39.22 0 36.8V8.8C0 6.38 0.99 4.18 2.58 2.59C4.18 0.99 6.38 0 8.8 0ZM15.21 21.76C14.25 21.76 13.47 20.98 13.47 20.02C13.47 19.06 14.25 18.28 15.21 18.28H108.95C109.91 18.28 110.69 19.06 110.69 20.02C110.69 20.98 109.91 21.76 108.95 21.76H15.21ZM21.37 51.37C20.84 50.86 21.05 50.17 21.85 49.83C22.65 49.49 23.72 49.63 24.26 50.13C28.04 53.73 26.22 56.65 24.47 59.45C23.15 61.57 21.88 63.6 24.22 65.64C24.79 66.14 24.62 66.83 23.85 67.19C23.08 67.55 21.99 67.45 21.42 66.95C17.95 63.92 19.56 61.33 21.25 58.63C22.66 56.36 24.13 54 21.37 51.37ZM36.01 51.37C35.48 50.86 35.69 50.17 36.49 49.83C37.29 49.49 38.36 49.63 38.9 50.13C42.68 53.73 40.86 56.65 39.11 59.45C37.79 61.57 36.52 63.6 38.86 65.64C39.43 66.14 39.26 66.83 38.49 67.19C37.72 67.55 36.63 67.45 36.06 66.95C32.59 63.92 34.2 61.33 35.89 58.63C37.3 56.36 38.77 54 36.01 51.37ZM50.65 51.37C50.12 50.86 50.33 50.17 51.13 49.83C51.93 49.49 53 49.63 53.54 50.13C57.32 53.73 55.5 56.65 53.75 59.45C52.43 61.57 51.16 63.6 53.5 65.64C54.07 66.14 53.9 66.83 53.13 67.19C52.36 67.55 51.27 67.45 50.7 66.95C47.23 63.92 48.84 61.33 50.53 58.63C51.94 56.36 53.42 54 50.65 51.37ZM65.29 51.37C64.76 50.86 64.97 50.17 65.77 49.83C66.57 49.49 67.64 49.63 68.18 50.13C71.96 53.73 70.14 56.65 68.39 59.45C67.07 61.57 65.8 63.6 68.14 65.64C68.71 66.14 68.54 66.83 67.77 67.19C67 67.55 65.91 67.45 65.34 66.95C61.87 63.92 63.49 61.33 65.17 58.63C66.58 56.36 68.06 54 65.29 51.37Z" fill="#C69958"/>
</g>
<defs>
<clipPath id="clip0_1429_4">
<rect width="122.88" height="67.41" fill="white"/>
</clipPath>
</defs>
</svg>
