<svg width="128" height="96" viewBox="0 0 128 96" fill="none" xmlns="http://www.w3.org/2000/svg">
<g clip-path="url(#clip0_1457_2)">
<path d="M98.97 22.3198L98.91 22.2398C98.6 21.7898 97.98 21.6898 97.54 21.9998L89.94 27.3198C89.49 27.6298 89.39 28.2498 89.7 28.6898L89.76 28.7698C90.07 29.2198 90.69 29.3198 91.13 29.0098L98.73 23.6898C99.17 23.3798 99.28 22.7598 98.97 22.3198ZM119.01 52.3198L114.89 71.5398C113.87 76.3198 111.56 79.9698 108.28 82.4698C106.01 84.1998 103.3 85.3498 100.25 85.9198L102.95 91.6998C103.53 92.9498 102.99 94.4398 101.74 95.0198C100.49 95.5998 99 95.0598 98.42 93.8098L94.92 86.3298H35.1L31.6 93.8098C31.02 95.0598 29.53 95.5998 28.28 95.0198C27.03 94.4398 26.49 92.9498 27.07 91.6998L29.62 86.2398C25.72 85.8998 22.52 84.6498 19.94 82.5098C16.93 80.0098 14.87 76.3798 13.64 71.6498L8.57 52.3198H4.61C3.35 52.3198 2.2 51.7998 1.36 50.9698V50.9598L1.35 50.9698C0.52 50.1298 0 48.9798 0 47.7098V43.5198C0 42.2498 0.52 41.0998 1.35 40.2598C1.41 40.1998 1.48 40.1298 1.55 40.0798C2.36 39.3498 3.43 38.9098 4.6 38.9098H5.21C5.38 37.0898 6.08 35.3698 7.16 33.8698C8.26 32.3298 9.78 31.0199 11.51 30.1199C13.25 29.2099 15.22 28.6998 17.21 28.7598C18.96 28.8198 20.7 29.2998 22.31 30.3198C23.01 29.2998 23.88 28.3898 24.88 27.6398C26.84 26.1698 29.29 25.2899 31.94 25.2899C34.14 25.2899 36.2 25.8898 37.95 26.9298C39.32 27.7398 40.5 28.8298 41.42 30.1098C44.21 30.3298 46.73 31.5198 48.62 33.3398C50.17 34.8398 51.29 36.7598 51.78 38.8998H119.03V14.0998C117.57 6.92985 113.43 4.97985 107.9 5.76985C110.39 10.1098 110.07 14.5198 106.54 19.0198C106.99 19.7498 106.95 20.5498 106.46 21.3998L105.36 22.6698C104.92 23.1198 104.37 23.1598 103.66 22.5898L86.76 5.51985C86.3 4.96985 86.39 4.48985 86.93 4.06985C88.13 2.59985 88.28 2.34985 90.41 2.70985C95.15 -0.370151 99.66 -0.920151 103.91 1.51985C114.58 -2.86015 123.66 2.63985 124.89 13.8398V39.1998C125.52 39.4298 126.08 39.7998 126.54 40.2598C127.37 41.0898 127.89 42.2498 127.89 43.5198V47.7098C127.89 48.9798 127.37 50.1298 126.54 50.9698C125.71 51.7998 124.55 52.3198 123.29 52.3198H119.01ZM89.4 14.0998L89.34 14.0198C89.03 13.5698 88.41 13.4698 87.97 13.7798L80.37 19.0998C79.92 19.4098 79.82 20.0298 80.13 20.4698L80.19 20.5498C80.5 20.9998 81.12 21.0999 81.56 20.7899L89.16 15.4698C89.61 15.1598 89.71 14.5398 89.4 14.0998ZM85.03 9.69985L84.97 9.61985C84.66 9.16985 84.04 9.06985 83.6 9.37985L76 14.6998C75.55 15.0098 75.45 15.6298 75.76 16.0698L75.82 16.1498C76.13 16.5998 76.75 16.6998 77.19 16.3898L84.79 11.0698C85.23 10.7598 85.34 10.1398 85.03 9.69985ZM93.76 18.3498L93.7 18.2698C93.39 17.8198 92.77 17.7199 92.33 18.0299L84.73 23.3498C84.28 23.6598 84.18 24.2798 84.49 24.7198L84.55 24.7998C84.86 25.2498 85.48 25.3499 85.92 25.0399L93.53 19.7198C93.96 19.4098 94.07 18.7998 93.76 18.3498ZM10.29 38.9098H46.54C46.22 38.1698 45.75 37.5098 45.17 36.9598C43.98 35.8098 42.33 35.0998 40.5 35.0998C40.22 35.0998 40.52 35.0898 40.33 35.0898L40.16 35.0998C39.22 35.1398 38.29 34.6498 37.83 33.7598C37.29 32.7298 36.45 31.8598 35.42 31.2498C34.42 30.6598 33.23 30.3098 31.96 30.3098C30.42 30.3098 29.01 30.8098 27.9 31.6398C26.79 32.4798 25.96 33.6498 25.6 34.9898C25.48 35.4998 25.19 35.9798 24.75 36.3398C23.68 37.2098 22.1 37.0498 21.23 35.9798C20 34.4698 18.52 33.8098 17.07 33.7598C15.97 33.7198 14.85 34.0198 13.84 34.5498C12.82 35.0898 11.92 35.8698 11.25 36.7898C10.78 37.4498 10.44 38.1698 10.29 38.9098ZM8.5 43.9298C8.1 44.0298 7.7 44.0198 7.32 43.9298H5.02V47.2898H122.88V43.9298H8.5ZM13.74 52.3198L18.48 70.3898C19.44 74.0698 20.96 76.8398 23.14 78.6398C25.27 80.4098 28.14 81.3098 31.87 81.3098H95.62C99.48 81.3098 102.77 80.3598 105.23 78.4898C107.57 76.7098 109.22 74.0398 109.98 70.4998L113.88 52.3198H13.74V52.3198Z" fill="#C69958"/>
</g>
<defs>
<clipPath id="clip0_1457_2">
<rect width="127.9" height="95.25" fill="white"/>
</clipPath>
</defs>
</svg>
