<svg width="111" height="113" viewBox="0 0 111 113" fill="none" xmlns="http://www.w3.org/2000/svg">
<g clip-path="url(#clip0_772_7)">
<path d="M32.1762 53.4466C39.113 65.8092 47.2661 74.5753 59.9899 81.183C61.0932 80.1932 61.6825 79.378 62.5953 78.1983C66.2044 73.4596 70.6997 67.771 78.0619 71.1996C82.8652 73.6231 92.3055 78.7175 96.2979 81.669C97.8177 82.7338 98.9166 84.077 99.6566 85.6035C101.227 88.8533 101.024 92.5802 100.027 95.9536C99.5126 97.69 98.7638 99.411 97.8753 100.971C94.541 106.812 89.0044 109.858 82.617 111.513C74.8516 113.517 67.835 113.572 60.1162 111.199C54.2915 109.403 48.879 106.5 43.7102 103.319L43.0433 102.908C40.5354 101.351 37.8413 99.6761 35.083 97.6304L35.063 97.6127C29.748 93.6229 24.3975 88.7141 19.5455 83.222C15.0524 78.1365 10.9581 72.5163 7.69021 66.6244C4.69482 61.2229 2.39953 55.5497 1.12118 49.8059C-0.697769 41.6252 -0.562621 32.2075 3.47406 24.6609C8.19978 15.8285 16.7761 12.2187 26.3782 13.0626L26.6152 13.0913C28.2746 13.299 29.7834 14.3086 30.6009 15.7667L41.5257 34.1803C42.5936 35.6207 43.2139 37.103 43.4222 38.6251C44.2176 44.4729 39.4099 48.0694 35.2956 51.0761C33.8932 52.0924 32.3268 53.2257 32.1762 53.4466V53.4466ZM52.7518 41.9146C51.1123 41.4927 50.1264 39.8203 50.5495 38.1855C50.9727 36.5485 52.6498 35.5654 54.2893 35.9896C64.0598 38.5302 72.9396 46.5517 75.9749 56.2147C76.4778 57.8296 75.5761 59.5506 73.9543 60.0521C72.3348 60.5558 70.6089 59.6544 70.106 58.0373C67.7088 50.4067 60.4574 43.9139 52.7518 41.9146V41.9146ZM53.1594 23.1476C51.4867 22.8648 50.3612 21.2786 50.6448 19.6107C50.9284 17.9427 52.5191 16.8182 54.1919 17.1032C73.1014 20.3684 89.8153 36.2304 94.5277 54.7058C94.9464 56.3473 93.9494 58.0196 92.3033 58.4371C90.655 58.8547 88.9778 57.8606 88.5613 56.2169C84.4338 40.0324 69.7338 26.0129 53.1594 23.1476V23.1476ZM55.1357 6.11252C53.4497 5.92032 52.2378 4.39818 52.4305 2.71699C52.6233 1.03801 54.1475 -0.172627 55.8336 0.0195725C82.1296 3.08814 105.18 24.0776 110.927 49.7992C111.293 51.4495 110.247 53.0821 108.594 53.4466C106.941 53.8111 105.302 52.7684 104.938 51.1203C99.7541 27.9283 78.8484 8.87842 55.1357 6.11252ZM26.4889 56.334C26.3848 56.1639 26.294 55.985 26.2186 55.795C24.3687 51.1159 28.1639 48.3677 31.5514 45.9199C33.1798 44.749 36.0157 42.8359 36.8576 40.894C37.3516 39.7651 37.1124 38.9234 36.3968 37.9624L36.1087 37.5537L25.3258 19.3765C18.451 18.8971 12.5068 21.283 9.09707 27.6499C5.80923 33.7937 5.86683 41.8064 7.34015 48.4339C8.47007 53.5173 10.5527 58.6249 13.2888 63.5603C19.3882 74.562 28.8573 84.9783 38.9069 92.536C41.3529 94.3541 43.9739 95.9867 46.4154 97.5022L47.0955 97.9264C55.9022 103.383 65.409 107.888 76.1699 106.304C77.8138 106.063 79.4621 105.758 81.0152 105.358C87.1566 103.765 91.9444 100.801 93.9051 94.1597C94.603 91.7959 94.9376 88.5351 92.6667 86.8981C87.6994 83.6639 80.6031 79.7271 75.308 76.9325C72.5763 75.7196 69.8778 79.1306 67.6755 82.0224C66.0892 84.0902 64.3833 86.4519 61.8531 87.3974C60.6124 87.8613 59.3274 87.8481 58.1045 87.3466L57.6924 87.1721C43.4288 79.9193 34.2012 70.1459 26.4889 56.334Z" fill="#AB854F"/>
</g>
<defs>
<clipPath id="clip0_772_7">
<rect width="111" height="113" fill="white"/>
</clipPath>
</defs>
</svg>
