<svg width="93" height="81" viewBox="0 0 93 81" fill="none" xmlns="http://www.w3.org/2000/svg">
<g clip-path="url(#clip0_795_5)">
<path fill-rule="evenodd" clip-rule="evenodd" d="M35.785 31.8812L45.9351 21.7061C46.4709 21.171 46.5381 21.1473 47.0958 21.7061L57.215 31.8812V42.0781H49.6932V35.1922C49.6932 34.7262 49.3118 34.3457 48.8468 34.3457H44.1532C43.69 34.3457 43.3086 34.7262 43.3086 35.1922V42.0781H35.785V31.8812V31.8812ZM50.4398 69.7437C49.4932 70.4157 48.363 70.7793 47.2029 70.7848C46.1567 70.7866 45.1068 70.5027 44.1823 69.9148L44.1677 69.8984C41.2815 68.0581 38.6168 66.0304 36.201 63.8716C33.6998 61.6509 31.4474 59.2573 29.4676 56.76C26.7884 53.3944 24.5941 49.8304 22.9158 46.2045C21.2029 42.4931 20.0241 38.6815 19.421 34.9137C18.7907 30.9984 18.7798 27.1595 19.4192 23.5391C20.0622 19.9077 21.3482 16.4784 23.3081 13.3895C24.0964 12.1627 25.0065 10.9613 26.0382 9.8164C27.0172 8.70788 28.1234 7.66307 29.335 6.69836C32.0632 4.52137 35.0058 2.84676 38.0464 1.72368C41.1271 0.584221 44.3348 0.00903028 47.5499 0.030873C50.7522 0.0545359 53.9146 0.667952 56.9262 1.8966C59.8397 3.10705 62.617 4.85083 65.149 7.16615C66.0409 7.97615 66.8928 8.88263 67.6902 9.85827C68.5021 10.8466 69.2214 11.8678 69.8535 12.9071C71.9388 16.3637 73.223 20.2426 73.7588 24.3345C74.3055 28.481 74.0912 32.8677 73.1866 37.2563C71.8225 43.8965 68.9708 50.3073 65.0219 55.9118C61.1348 61.4289 56.1469 66.2215 50.4398 69.7437V69.7437ZM47.9804 65.7137C47.5335 66.0413 46.9269 66.085 46.431 65.7665C41.0689 62.3463 36.5588 58.238 33.0223 53.7803C28.1379 47.6389 25.0591 40.8294 24.0074 34.2711C22.9358 27.6218 23.9366 21.2274 27.2388 16.0252C28.5412 13.9683 30.2032 12.0953 32.2303 10.4808C36.8912 6.7566 42.2151 4.7944 47.5117 4.83263C52.6195 4.86903 57.6582 6.78027 62.0121 10.7611C63.5433 12.1536 64.8312 13.7517 65.8829 15.4846C69.4339 21.3439 70.1986 28.8177 68.6347 36.3935C66.2007 48.2614 58.3793 59.3884 47.9804 65.7137V65.7137ZM85.8652 75.8432L79.1535 56.1011C78.8611 55.2383 78.3688 54.4283 77.4861 54.4283H73.7297L76.2473 49.3044H77.4861C79.5895 49.3044 81.177 50.1999 82.3758 51.5778C83.1551 52.4715 83.6564 53.4836 83.9888 54.4592L93 80.969H0L8.06121 54.5994C8.42994 53.4181 9.05297 52.1876 10.0029 51.2356H10.0229C11.1981 50.0634 12.7003 49.3044 14.6039 49.3044H17.0996L19.8406 54.4283H14.6039C13.7193 54.4283 13.1926 55.2601 12.9364 56.1011L6.89871 75.8432H85.8652V75.8432ZM46.1821 13.6753L31.1023 27.8639L34.8223 29.8225L45.4737 19.0577C46.3838 18.1385 46.3946 18.1184 47.301 19.0176L58.1795 29.8225L61.8995 27.8639L46.7961 13.6534C46.5236 13.3986 46.4855 13.3695 46.1821 13.6753V13.6753Z" fill="#AB854F"/>
</g>
<defs>
<clipPath id="clip0_795_5">
<rect width="93" height="81" fill="white"/>
</clipPath>
</defs>
</svg>
