<svg width="64" height="64" viewBox="0 0 64 64" fill="none" xmlns="http://www.w3.org/2000/svg">
<path fill-rule="evenodd" clip-rule="evenodd" d="M18.4715 0.275146H45.5297C55.6908 0.275146 64 8.48155 64 18.5068V45.4918C64 55.5195 55.6908 63.7235 45.5297 63.7235H18.4715C8.3104 63.7235 0 55.5195 0 45.4918V18.5068C0 8.48155 8.3103 0.275146 18.4715 0.275146ZM31.8276 14.869C41.7017 14.869 49.7144 22.8817 49.7144 32.7558C49.7144 42.6311 41.7017 50.6426 31.8276 50.6426C21.9511 50.6426 13.9396 42.6311 13.9396 32.7558C13.9396 22.8817 21.9511 14.869 31.8276 14.869V14.869ZM31.8276 20.9104C38.3663 20.9104 43.673 26.216 43.673 32.7558C43.673 39.2956 38.3662 44.6024 31.8276 44.6024C25.2866 44.6024 19.981 39.2957 19.981 32.7558C19.981 26.216 25.2866 20.9104 31.8276 20.9104ZM49.1321 12.3899C50.7361 12.3899 52.0365 13.6903 52.0365 15.2931C52.0365 16.8971 50.7361 18.1975 49.1321 18.1975C47.5293 18.1975 46.2289 16.8971 46.2289 15.2931C46.2289 13.6903 47.5293 12.3899 49.1321 12.3899V12.3899ZM20.6825 5.45795H43.321C51.8215 5.45795 58.7736 12.3757 58.7736 20.8291V43.5809C58.7736 52.0341 51.8216 58.9508 43.321 58.9508H20.6825C12.182 58.9508 5.2288 52.0341 5.2288 43.5808V20.8289C5.2288 12.3757 12.182 5.45795 20.6825 5.45795V5.45795Z" fill="#9C9C9C"/>
</svg>
