<svg width="33" height="31" viewBox="0 0 33 31" fill="none" xmlns="http://www.w3.org/2000/svg">
<g filter="url(#filter0_d_784_10)">
<path d="M26.4302 7.40803C26.446 7.6301 26.446 7.85222 26.446 8.07429C26.446 14.8477 21.2906 22.6523 11.868 22.6523C8.96509 22.6523 6.26841 21.8115 4 20.3522C4.41245 20.3998 4.80898 20.4156 5.2373 20.4156C7.63257 20.4156 9.83755 19.6067 11.5983 18.2266C9.3458 18.179 7.45811 16.7037 6.80771 14.6733C7.125 14.7208 7.44224 14.7526 7.77539 14.7526C8.2354 14.7526 8.69546 14.6891 9.12373 14.5781C6.77603 14.1022 5.01519 12.04 5.01519 9.54954V9.48611C5.69727 9.86682 6.49048 10.1048 7.33115 10.1364C5.95107 9.21638 5.04692 7.64597 5.04692 5.86931C5.04692 4.91755 5.30068 4.04509 5.74487 3.28367C8.26709 6.3928 12.0583 8.42322 16.3096 8.64534C16.2303 8.26462 16.1827 7.86809 16.1827 7.47151C16.1827 4.64788 18.4669 2.34778 21.3064 2.34778C22.7816 2.34778 24.1141 2.96643 25.05 3.9658C26.208 3.74373 27.3184 3.31541 28.302 2.72849C27.9212 3.91824 27.1122 4.9176 26.0494 5.55208C27.0805 5.44109 28.0799 5.15549 28.9999 4.75896C28.3021 5.77415 27.4295 6.6783 26.4302 7.40803V7.40803Z" fill="white"/>
</g>
<defs>
<filter id="filter0_d_784_10" x="0" y="0" width="33" height="33" filterUnits="userSpaceOnUse" color-interpolation-filters="sRGB">
<feFlood flood-opacity="0" result="BackgroundImageFix"/>
<feColorMatrix in="SourceAlpha" type="matrix" values="0 0 0 0 0 0 0 0 0 0 0 0 0 0 0 0 0 0 127 0" result="hardAlpha"/>
<feOffset dy="4"/>
<feGaussianBlur stdDeviation="2"/>
<feComposite in2="hardAlpha" operator="out"/>
<feColorMatrix type="matrix" values="0 0 0 0 0 0 0 0 0 0 0 0 0 0 0 0 0 0 0.25 0"/>
<feBlend mode="normal" in2="BackgroundImageFix" result="effect1_dropShadow_784_10"/>
<feBlend mode="normal" in="SourceGraphic" in2="effect1_dropShadow_784_10" result="shape"/>
</filter>
</defs>
</svg>
