<svg width="25" height="25" viewBox="0 0 25 25" fill="none" xmlns="http://www.w3.org/2000/svg">
<path d="M23.8566 6.77439C23.584 5.74792 22.7808 4.9395 21.761 4.66515C19.9124 4.16663 12.5001 4.16663 12.5001 4.16663C12.5001 4.16663 5.08773 4.16663 3.23917 4.66515C2.21933 4.93954 1.41612 5.74792 1.14351 6.77439C0.648193 8.63494 0.648193 12.5168 0.648193 12.5168C0.648193 12.5168 0.648193 16.3987 1.14351 18.2592C1.41612 19.2857 2.21933 20.0604 3.23917 20.3348C5.08773 20.8333 12.5001 20.8333 12.5001 20.8333C12.5001 20.8333 19.9124 20.8333 21.761 20.3348C22.7808 20.0604 23.584 19.2857 23.8566 18.2592C24.3519 16.3987 24.3519 12.5168 24.3519 12.5168C24.3519 12.5168 24.3519 8.63494 23.8566 6.77439V6.77439ZM10.0758 16.0412V8.99236L16.2711 12.5169L10.0758 16.0412V16.0412Z" fill="white"/>
</svg>
