<svg width="123" height="95" viewBox="0 0 123 95" fill="none" xmlns="http://www.w3.org/2000/svg">
<g clip-path="url(#clip0_781_34)">
<path d="M8.45991 31.23C7.37991 32.15 6.03991 32.55 4.73991 32.45C3.42991 32.35 2.15991 31.75 1.23991 30.67L1.21991 30.64C0.309913 29.57 -0.0800869 28.23 0.0199131 26.94C0.119913 25.63 0.719913 24.36 1.79991 23.44L1.80991 23.43C10.8699 15.66 20.5399 9.78003 30.5399 5.85003C40.6199 1.89003 51.0399 -0.0799702 61.5399 0.0100298C71.8899 0.10003 82.2799 2.20003 92.4399 6.37003C102.25 10.4 111.84 16.37 120.99 24.34C121.1 24.42 121.2 24.51 121.28 24.6C122.24 25.52 122.78 26.73 122.86 27.97C122.94 29.21 122.57 30.48 121.74 31.52C121.66 31.64 121.56 31.75 121.45 31.85C120.53 32.81 119.32 33.35 118.08 33.43C116.78 33.52 115.43 33.1 114.37 32.17C106.1 24.94 97.4699 19.55 88.6899 15.92C79.6999 12.2 70.5499 10.34 61.4599 10.26C52.2599 10.18 43.0799 11.94 34.1499 15.46C25.2499 18.97 16.5999 24.25 8.45991 31.23ZM61.4399 72.27C64.5399 72.27 67.3399 73.53 69.3699 75.56C71.3999 77.59 72.6599 80.4 72.6599 83.49C72.6599 86.59 71.3999 89.39 69.3699 91.42C67.3399 93.45 64.5299 94.71 61.4399 94.71C58.3399 94.71 55.5399 93.45 53.4999 91.42C51.4699 89.39 50.2099 86.58 50.2099 83.49C50.2099 80.4 51.4699 77.59 53.4999 75.56C55.5399 73.53 58.3399 72.27 61.4399 72.27ZM42.0699 66.17C40.9699 67.06 39.6099 67.43 38.3099 67.29C37.0699 67.16 35.8699 66.58 34.9899 65.58C34.8899 65.48 34.7999 65.37 34.7299 65.26C33.9299 64.19 33.6099 62.91 33.7399 61.67C33.8699 60.43 34.4499 59.23 35.4499 58.35C35.5399 58.26 35.6399 58.18 35.7399 58.11C39.7399 54.88 43.9199 52.41 48.2099 50.74C52.5599 49.04 57.0299 48.17 61.5399 48.16C65.9899 48.15 70.4299 48.97 74.8099 50.66C79.0599 52.3 83.2499 54.77 87.2899 58.07C88.3899 58.96 89.0199 60.22 89.1599 61.52C89.2899 62.82 88.9299 64.18 88.0399 65.28L88.0299 65.29C87.1399 66.38 85.8899 67.01 84.5799 67.15C83.2799 67.28 81.9199 66.92 80.8199 66.03C77.6799 63.46 74.4699 61.56 71.2599 60.3C68.0099 59.02 64.7599 58.4 61.5399 58.41C58.2899 58.42 55.0199 59.08 51.7699 60.37C48.4599 61.67 45.2099 63.62 42.0699 66.17ZM25.8099 49.65C25.7299 49.73 25.6399 49.81 25.5499 49.87C24.5199 50.71 23.2499 51.08 22.0199 51.01C20.7499 50.93 19.5099 50.38 18.5799 49.38C18.4899 49.3 18.4199 49.21 18.3499 49.12C17.5099 48.09 17.1399 46.82 17.2099 45.59C17.2899 44.28 17.8699 43 18.9299 42.06C25.7399 36.03 32.7799 31.47 39.9399 28.45C47.1199 25.43 54.4299 23.94 61.7899 24.07C69.0599 24.19 76.3199 25.87 83.4799 29.17C90.4499 32.38 97.3399 37.13 104.07 43.47L104.2 43.59C105.15 44.54 105.64 45.79 105.68 47.05C105.72 48.36 105.26 49.68 104.29 50.71L104.17 50.84C103.21 51.79 101.97 52.29 100.71 52.33C99.3999 52.37 98.0799 51.91 97.0499 50.94C91.2199 45.44 85.3199 41.35 79.4299 38.59C73.4799 35.81 67.5299 34.4 61.6299 34.3C55.6399 34.2 49.6299 35.45 43.6699 37.99C37.6399 40.58 31.6599 44.48 25.8099 49.65Z" fill="#AB854F"/>
</g>
<defs>
<clipPath id="clip0_781_34">
<rect width="122.88" height="94.72" fill="white"/>
</clipPath>
</defs>
</svg>
